<mxfile host="app.diagrams.net" modified="2021-07-17T16:22:37.901Z" agent="5.0 (Windows NT 10.0; Win64; x64) AppleWebKit/537.36 (KHTML, like Gecko) Chrome/91.0.4472.124 Safari/537.36" etag="sMYiCXTW_CNdaxohuHWj" version="14.9.0" type="github">
  <diagram id="ZamsyW06iMtIl-IfdBVD" name="Page-1">
    <mxGraphModel dx="1422" dy="762" grid="1" gridSize="10" guides="1" tooltips="1" connect="1" arrows="1" fold="1" page="1" pageScale="1" pageWidth="850" pageHeight="1100" math="0" shadow="0">
      <root>
        <mxCell id="0" />
        <mxCell id="1" parent="0" />
        <mxCell id="Yowsr8ln7lWeVKN-Ewds-12" value="" style="rounded=0;whiteSpace=wrap;html=1;fontColor=#333333;dashed=1;perimeterSpacing=0;sketch=0;glass=1;strokeColor=#666666;fillColor=none;" vertex="1" parent="1">
          <mxGeometry x="400" y="10" width="280" height="70" as="geometry" />
        </mxCell>
        <mxCell id="GbpzfajvycvOcoFSvj6P-1" value="" style="group" parent="1" vertex="1" connectable="0">
          <mxGeometry x="340" y="100" width="575.44" height="562" as="geometry" />
        </mxCell>
        <mxCell id="I9LBWQpZaqhSioIUp3wA-1" value="" style="rounded=1;labelPosition=center;verticalLabelPosition=top;align=center;verticalAlign=bottom;fontFamily=Tahoma;fontSize=20;labelBorderColor=none;whiteSpace=wrap;html=1;horizontal=1;fontStyle=1;fontColor=#888;strokeColor=#888;fillColor=none;strokeWidth=2;" parent="GbpzfajvycvOcoFSvj6P-1" vertex="1">
          <mxGeometry y="30" width="400" height="150" as="geometry" />
        </mxCell>
        <mxCell id="rohLjPD7Sopph-08Ycnb-2" value="" style="shape=image;verticalLabelPosition=bottom;labelBackgroundColor=#ffffff;verticalAlign=top;aspect=fixed;imageAspect=0;image=data:image/png,iVBORw0KGgoAAAANSUhEUgAAAgAAAAIACAYAAAD0eNT6AAAABGdBTUEAAK/INwWK6QAAABl0RVh0U29mdHdhcmUAQWRvYmUgSW1hZ2VSZWFkeXHJZTwAABkGSURBVHja7N1/qJX3fQfw53pFkEkEQ8glgo3FEEjQOBwlhqQtRcVMTSezuAXSazrqHyGlpaWhtqFjo61tQspKpWV2rd4GssjcXNLYiIaxNKGGMFvrJaFSWVzAYAgRTA2CcD37fHe+odbO1HvOuc+P87xe8OGkqbn38fOc5/t9n+95fox0Op0CAGiXWVoAAAIAACAAAAACAAAgAAAAAgAAIAAAAAIAACAAAAACAAAgAAAAAgAAIAAAAP2ZrQVUZWJiYjp/fE7UsqjbokajVlz2/x+Jmoo6GjUZdeFqf/D4+Lj+6Z/+IQBAjYxEbc61KmreVf5356IORe3JpX/6p39wGV8BUNeBd0P+JPXPUX8xjcG3yH92Y9STUcei1umf/ukfCADU2zVR/xr1dNStA/h5S6OeifqXaQ7i+qd/+ocAACW5Iepw/vQ0aJuifh41pn/6p38gAFAf1xbd701vmcHfkT6NHYyar3/6p38IAFC9dFb1kzM8+F46CD+pf/qnfwgAUP178P6ie5Z1WdZGbdE//dM/BACozp9Efa2C35t+51z90z/9QwCAat5/D0ZdX8HvXph/t/7pn/4hAEAF77+tFf7+rfqnf/qHAADlS7dWvbHC37+k6J6UpX/6p38IAFCi22uwDSv1T//0DwEAyrXUNuif/oEAQPuM2Qb90z8QAGifubZB//QPBAAAQAAAAAQAAEAAAAAEAABAAAAABAAAQAAAAAEAABAAAAABAAAQAAAAAQAAEAAAAAEAABAAAAABAAAQAAAAAQAAEAAAAAEAABAAAAABAAAQAAAAAQAAEAAAQAAAAAQAAEAAAAAEAABAAAAABAAAQAAAAAQAAEAAAAAEAABAAAAABAAAQAAAAAQAAEAAAAAEAABAAAAAAQAAaIuRTqejCwBgBQAAEAAAAAEAABAAAAABAAAQAAAAAQAAEAAAAAEAABAAAAABAAAQAAAAAQAAEAAAAAEAABAAAEAA0AIAEAAAgBaYrQVcbmJiYn68LIlakV9TLbrkjyyPGtUpqI2pqKOX/O/Xo07kOpJfz9b5LzA+Pm4vCgBUMOEvjpd1UXdGrbxssgfqbzQH9ves+H/+TAoFh6NejNof9Zq2CQC0c9JPn+rvi7o3f8IHhtuiXJujvpsDwONRT0Qd1x4BgOGe9BfkCf/e/EkfaK+08vfVXC/nMLAn6i2tEQAYnol/Ybx8KepvoubqCHCZD+V6JOqHUd+MOqUtAgDNnfgX54l/S9QcHQH+iPQB4cGorVG7cxBwroAAQIMm/nnx8ndRny2crQ9M35wcAtKq4Xei/jbqnLYMF/cBGL7JP53g8+uoz5v8gT6N5rEkjSmbtcMKAPWc+NPZvf8UtVo3gAFL5xE9mVcF7i+6lxRiBYAaTP73xMsxkz8wwz6Wx5p7tMIKANVO/Ol7uu1Fd4kOoAzpTqFPRX07alvUBS2xAkC5k/9YvPynyR+oSBp7Xoga0woBgPIm/8X5wHMzH6BK6d4BPy+6NxVCAGCGJ//l+YBz+16gDhbnMWm5VggAzNzkf2dhyQ2on7E8Nt2pFQIAM/PJ/5moeboB1NC8PEZZCRAAGODkn5b7Dxbds28B6mp+Hqt8RSkAMIDJ/7p4eTbqOt0AGsCYJQAwgMk/Xef/lDQNNEwas9LXAR5CJgDQo/RoTpf6AU2ULhF8TBsEAKb/6T/davOzOgE0WHq0sNsGCwBMY/JP19Xu0glgCKSxzI2CBACmccAs0AZgCCzwgUYA4Oo+/afHbX5EJ4Ahksa0rdogAHDlyT8l5e06AQyh7YWVTQGAK/qaAwQYUgvyGIcAwGWf/tNJMpbIgGGWxjj3NREAuMxXoka1ARhiaYz7kjYIAPzu0/+ieLlPJ4AWSGPdIm0QAOj6fOGWmUA7zMljHgJA6z/9pwdm+O4faJM05nlYkADQemk5bK42AC0yt/C1pwCAT/+AsY/yzdaC6kxMTKyIl5sb/tc4G3Uo12tRZ6KOjo+PT9nDMLCxIp09v7zoXkufLhlenWt+g/9aaexLY+ARe1gAaKNNDd3uU1H7ovanid9kDzMrH2OXTpQ7cyhIIWBd1MaohQ0dAwWAiox0Oh1dqC7V/3fRrKdkTUZ9MwajJ+w9qN14cm/RvcZ+aYM2O60afjCHHDtRAGjNwZqug/2fhmzuW1EPxQG6256D2o8t6eS6x4rmnGX/gajXBYDyOQmwOusasp17o24y+UMzxLH6eDpm87FrLOSKnANQnbo/8vdC1BdiMNlhV0HjQkA6OfcTExMTD+bVgDrfaCyNhd+316wAtMmdNd62c1HrTf7Q+CCQjuH1+Zg2FiIAVC3f/a+uZ+ymgWJNDByH7CkYihCQjuU1NQ4BaSwcs6cEgLao61m6adn/4zFgHLaLYKhCQDqmP56PcWMiAkCFbqnpdn0mBor/sHtgKENAOrY/U9PNu9keEgDaYkkNt2lPDBA77RoY6hCQjvE9xkQEgOrU7eY/6fa9D9gt0ArpWH/LmIgAUI26nQCYlv7P2C3QilWAdKx/zpiIAFCNBTXalkm39oXWhYB0zB+t0SZdZ68IAAJA+f7e7oBW+nqNtmW+3SEAtMVoTbYjPYhjn90BrbQvjwHGRAGAEs2ryXY84VG+0E752H/cmCgA0E57tABaba8WCAC0T3r85qQ2QKtXAdIY8LpOCAC0y/NaABgLBADa52UtAIwFAgDtc0ILAGOBAICDHjAWIADQAm9pARBOa4EAQIuMj4+f1QUgxoJzuiAAAAACAAAgAAAAAgAAIAAAAAIAACAAAAACAABQrdm9/EcTExPT+eNLo1bm17GouQ3rUWd8fHyDt0o5Lj4wMhov90Rtiro5annUqM7QQFNRR6OOR+2NenrW9zpT2lKOmKeejZeRhm32+aJ7Z8b0mOaXoo6lYTHX+4p5qpwAcBXSJP9g1NaoJU2fkxxKpU3+acL/cdSHdIMhkILrilz3Rr0c7/FPRgg4rjWlWFM0f5X7ZNTOqB1R7w56PpqJ5myJ+k3UI0Mw+VPe5P/5ePmlyZ8hlt7bv8zvdbgaN0Z9I8+pnyoGvBo6yAAwPyotueyKWmi/MY3JP4XFx4rmfT0E05Xe44/l9zxcreujfhB1IOraugWA9N3+C1Fr7SemOflvjpcv6gQt88X83ofpWBX1s6gb6hIA5kUdLLon+cF0Jv85+ZM/tNHX8jEA03FL1KGoa+oQAHaZ/OlROtPf10W01ZJ8DEAvIWB30edVDv0GgHXewPT5/gHHAEzfxqj1VQaA7fYBfVihBbTcSi2gzzm451WAfgJAOoHF0j/9GNMCWs5XYPTj1jwXVxIAoB/ztYCWcxIg/So9AKQ37Wp9B4BKreo1SPYaANLS/zx9B4BKpbl4WZkB4DY9B4BaKDUAeDobANRDT3NyrwHA5VsAUA89zcmz9A0A2kcAAAABAAAQAK7siNYBQC30NCf3GgCm9BsAaqGnObnXAHBMvwGgFn5VdgA4p+cAUKk0F0+WGQAuRD2n7wBQqUN5Ti4tACR79B0AKtXzXNxvAHhF7wGgEpNVBYBO1Db9B4BK9DUH93sjoGei9tkHAFCqvVH7qwwAaRVgS9Sr9gUAlCIt/d/f7w8ZxK2A34laLQQAQCmT/5piAJfiD+pZAG9EfbhwaSAAzJQDUXdFnR7EDxvkw4Dejlob9emoN+0nABiIU0V3yf/uqLOD+qGDfhpguh/xj6Juivpy1En7DQB6ciLqoTyn7h70D589Axt8Meq3Ud+KejRqWdTtUUujxqLmNmwHdLwHARrnp1EjDdvm80V3eT99z3+46PEWv1UGgEuDQKpf5AKAsmzQgvc3SwsAQAAAAAQAAEAAAAAEAABAAAAABAAAQAAAAAQAAEAAAAAEAABAAAAABAAAQAAAAAQAAEAAAAAEAABAAAAAAQAAEAAAAAEAABAAAAABAAAQAAAAAQAAEAAAAAEAABAAAAABAAAQAAAAAQAAEAAAAAEAABAAAAABAAAEAABAAAAABAAAQAAAAAQAAEAAAAAEAABAAAAABAAAQAAAAGbe7BJ+x9Kolfl1LGpuw3rUidrgrQLQKM9GjTRsm89HnY6ajHop6ljUxVyNCQBpkn8wamvUkoa/iS46jgAaZ03R/FXuk1E7o3ZEvTvo+WgmmrMl6jdRjwzB5A8AVbkx6ht5Tv1U1GhdA8D8orvksitqof0GAANxfdQPog5EXVu3AJC+238haq39BAAzYlXUz6JuqEsAmBd1sOie5AcAzJxbog5FXVOHALDL5A8ApYaA3UWfVzn0GwDWRW2yLwCgVBuj1lcZALbbBwBQie39rAL0EwA2F5b+AaAqt+a5uJIAAABUp/QAMCdqtb4DQKVW5Tm5tACQlv7n6TsAVCrNxcvKDAC36TkA1EKpAWBUvwGgFnqak3sNACv0GwBqoac5eZa+AUD7CAAAIAAAAALAlR3ROgCohZ7m5F4DwJR+A0At9DQn9xoAjuk3ANTCr8oOAOf0HAAqlebiyTIDwIWo5/QdACp1KM/JpQWAZI++A0Clep6L+w0Ar+g9AFRisqoA0Inapv8AUIm+5uB+bwT0TNQ++wAASrU3an+VASCtAmyJetW+AIBSpKX/+/v9IYO4FfA7UauFAAAoZfJfUwzgUvxBPQvgjagPFy4NBICZciDqrqjTg/hhg3wY0NtRa6M+HfWm/QQAA3Gq6C753x11dlA/dNBPA0z3I/5R1E1RX446ab8BQE9ORD2U59Tdg/7hs2dggy9G/TbqW1GPRi2Luj1qadRY1NyG7YCO9yBA4/w0aqRh23y+6C7vp+/5Dxc93uK3ygBwaRBI9YtcAFCWDVrw/mZpAQAIAACAAAAACAAAgAAAAAgAAIAAAAAIAACAAAAACAAAgAAAAAgAAIAAAAAIAACAAAAACAAAgAAAAAgAACAAAAACAAAgAAAAAgAAIAAAAAIAACAAAAACAAAgAAAAAgAAIAAAAAIAACAAAAACAAAgAAAAAgAAIAAAgAAAAAgAAIAAAAAIAACAAAAACAAAgAAAAAgAAIAAAAAIAADAzJtdwu9YGrUyv45FzW1YjzpRG7xVABrl2aiRhm3z+ajTUZNRL0Udi7qYqzEBIE3yD0ZtjVrS8DfRRccRQOOsKZq/yn0yamfUjqh3Bz0fzURztkT9JuqRIZj8AaAqN0Z9I8+pn4oarWsAmF90l1x2RS203wBgIK6P+kHUgahr6xYA0nf7L0SttZ8AYEasivpZ1A11CQDzog4W3ZP8AICZc0vUoahr6hAAdpn8AaDUELC76PMqh34DwLqoTfYFAJRqY9T6KgPAdvsAACqxvZ9VgH4CwObC0j8AVOXWPBdXEgAAgOqUHgDmRK3WdwCo1Ko8J5cWANLS/zx9B4BKpbl4WZkB4DY9B4BaKDUAjOo3ANRCT3NyrwFghX4DQC30NCfP0jcAaB8BAAAEAABAALiyI1oHALXQ05zcawCY0m8AqIWe5uReA8Ax/QaAWvhV2QHgnJ4DQKXSXDxZZgC4EPWcvgNApQ7lObm0AJDs0Xf6dFYL8OkN+tLzXNxvAHhF7+nDaS2g5U5pAX2YrCoAdKK26T99cDkpjgHoXV9zcL83Anomap99QI/2awGOAejJ3n7fP/0GgLQKsCXqVfuCHt/AJ7SBlnotHwMwXWnp//5+f8ggbgX8TtRqIYBpv/m+10lnrj6sE7TUtnwMwHQn/zXFAE4gHdSzAN6I+nDh0kCmHwLSCSzf1gla5tv5vQ/TcSDqrmJAJ1AP8mFAb0etjfp01Jv2E9PwUF4J8GmIYffeqtdDWsE0pKtF0pL/3cUAL58e9NMA0/2IfxR1U9SXo07ab1zFKsBU1NfjH5dFvawjDKn03v7T9F5P73nt4CqcyGExzam7B/3DZ8/ABl+M+m3Ut6IezYP67VFLo8ai5jZsB3S8B0sLAscvPjByR/zjxqhNUUuiVugMDZYu80sn+6Xl/n0m/lL9NGqkYdt8vugu76fv+Q8XPd7id0YDwPj4+NUGgVS/yAVXtRpQdM+MdnY00LOYpzbowh8Zb7UAAAQAAEAAAAAEAABAAAAABAAAQAAAAAQAAGpnYmJiji4IALTroJ+vC0CYpwUCAO2yQAuA4MOAAEDLLNICwFggANA+t2gBYCwQAGiflVoAhA9pgQBAu3xEC4DwMS0QAGiXRRMTE5b+oMViDLi5cA6AAEArbdYCaLV7tUAAoFznarId98UngFG7A1r56T8d+/cZEwUAyjVVk+1YHLXR7oBW2pjHAGOiAECJztRoW75qd0ArfaVG23LW7hAABIDyLZ2YmPA9ILRIPuaX12iT3rJXBIC2OFWz7fluDAhuDQztmPzTsf4PxkQEgGq8VrPtSQPC9+wWaIV0rF9Xs2163W4RANriRA23aXN8Mthq18BQf/pPx3gdL/89bu8IAG1R1zd7+irAXcFgOCf/dGx/15iIAFCtozXdrjlRT8VA4TkBMFyTfzqmn8rHeB1N2ksCQFukM17retLLvKiDMWCstptgaD75H8zHdh2lsfC0PSUAtMmLNd62NFA845wAaPzkn47hZ2s8+dd9LBxqs7WgMs8X9b4Xf1oq/McYQNJTAx8YHx93ow5ozsQ/v+ie7d+Ee3w8b49ZAWibAw3ZzjSA/DoGlPvsMmjE5J+O1V8XzXnQzwF7zQpA26R7AaRrX5vwKM6xqB/HwPLZeP36+Pj4PrsPajfxp3v7p9v7rmjQZr9e1O++KAIApdgT9cUGbW8aWP4tBpp00k4KAfujDkUg8CAPKH/CT0/zSyfrriu6D/ZZ2NAxkIqMdDodXSj/wL10Qv2vhv910rkBh3KlJH8mAsERexkGPm6k8SLdtXNxnvhTzW/4X+vPov5vvIhxw062AtAq6Y2fboBxc4P/DmkA2pTr8oADcCXH35v8qYaTAKu3UwsAYx8CQPs8HnVeG4AWOZ/HPgSAVkt3BfyhNgAt8sM89iEAtN6jURe0AWiBC3nMQwCg6F4LazkMaIPH85iHAED2zSjX0wPDbMqnfwGAP3SicFYsMNzSGHdcGwQA/tDDUWe0ARhCZ/IYhwDAFQ6QbdoADKFtPuAIALy/tETm+djAMHmx8BWnAMBV+WTRvcc+QNOdzWMaAgBX4TUHDDAk7i888lcAYFqejtqhDUCDpTFsnzYIAEzfFwpPywKa6WgewxAA6EG6ZebHi+49AgCaIo1Z6wu3OBcA6MupqLsLD84AmuGtPGad0goBgMGlaVcGAHV2No9VVi0FAAbo5aL7dcA5rQBq6Fweo17WCgGAwXs+6qNRp7UCqJHTeWx6XisEAGZOuirgrsJ1tUA9vJbHJFcsCQCUIH2/dkdhqQ2o/gPJHYXv/AUASvXektturQAq8Hj+5O8rSQGACpwvurfZTOXkQKAM5/KY88k8BiEAUKG0CrCscAIOMLNezGPNbq0QAKiPdCLOR6MeKNwvABiss3lscQKyAECNfT/qg/l1SjuAPkxdNqYgAFBzZ3Jav7XoLtW5Hzcw3Yl/dx5DHshjCgIADXK86J6sk9J7eiynE3aA93M+jxUfyGPHcS0RAGi29FCOz+SD+nOFG3YAv+9IHhs+kMcKD/Jpgdla0CrpKV3fyXVz1H1R90Yt1hponXQy3xNF93p+n/QFAFokHfAP50oBYF3UR6JWRi3UHhg66VP94aJ7Kd/ThbP5BQAtIA8EO3IlC6KWRC3Pr6kW5f9vNP97oF6OFr+78uf1ont73hP536dXJ/Lxe0Y6nY4uAEDLOAkQAAQAAEAAAAAEAABAAAAABAAAQAAAAAQAAEAAAAAEAABAAAAABAAAQAAAAAQAAEAAAAAEAABAAAAABAAAEAAAgJaYrQVUZWJi4ifx8ucVb8bBqLsb2kL9G4L+jY+P3200QACgbUaK6lehRvRP//SPNvIVAAAIAACAAAAACAAAgAAAAAgAAIAAAAAIAACAAAAACAAAgAAAAAgAAIAAAAAIAACAAAAACAAAgAAAAAgAACAAAAACAAAgAAAAAgAAIAAAAAIAACAAAAACAAAgAAAAAgAAIAAAAAIAACAAAAACAAAgAAAAAgAAIAAAgAAAAAgAAIAAAAAIAACAAAAACAAAgAAAAAgAAIAAQKudtw36p38gANA+p22D/ukfCAC0z6Rt0D/9AwGA9jlcg214Sf/0T/8QAKD8Tz8nKvz9J6OO6Z/+6R8CAJRvZ8W/+6L+6Z/+IQBA+XZEnarg976Zf/dF/dM//UMAgPKly6AeruD3pt/5rv7pn/4hAEB1dkcdKPH3PRe1a4g+femf/oEAQGP9VVHOJVGv5t81pX/6p38IAFC9s1FrZngQToPv6qi39U//9A8BAOoj3RXtjqi9M/Cz90WtjHpD//RP/0AAoH7ORX0iav2APo29EnVP1F9GvaN/+qd/IABQb/ujlhXd70v35YF5OoP4v0f9ddTSqJ9EdfRP//QPfme2FlBze3LNyYPpbVGjUSsu+3NHiu6JVcdyXdA6/dM/uLKRTkcwBYC28RUAAAgAAIAAAAAIAACAAAAACAAAgAAAAAgAAIAAAAAIAACAAAAACAAAwGD9rwADAL9IpXJ72717AAAAAElFTkSuQmCC;" parent="GbpzfajvycvOcoFSvj6P-1" vertex="1">
          <mxGeometry x="255.55555555555557" y="41.111111111111114" width="127.77777777777779" height="127.77777777777779" as="geometry" />
        </mxCell>
        <mxCell id="rohLjPD7Sopph-08Ycnb-4" value="" style="shape=image;imageAspect=0;aspect=fixed;verticalLabelPosition=bottom;verticalAlign=top;image=data:image/png,iVBORw0KGgoAAAANSUhEUgAAAgAAAAIACAYAAAD0eNT6AAAABGdBTUEAAK/INwWK6QAAABl0RVh0U29mdHdhcmUAQWRvYmUgSW1hZ2VSZWFkeXHJZTwAAAvTSURBVHja7N1LqFV1H8fhtdUukl1QIe0CBtKFspImRhAESkJlCFJYwdaBHku7EFRKl0FBYVkkBZZReqgTOSgnRiBBg8SahCnUoAY1kC6DQxe7Yenq92/vgWDpObbXOXut//PA720SvO4v72Z93n0utsqyLACAvEwwAQAIAABAAAAAAgAAEAAAgAAAAAQAACAAAAABAAAIAABAAAAAAgAAEAAAgAAAAAQAACAAAAABAAAIAAAQAACAAAAABAAAIAAAAAEAAAgAAEAAAAACAAAQAACAAAAABAAAIAAAAAEAAAgAAEAAAAACAAAQAAAgAAAAAQAACAAAQAAAAAIAABAAAIAAAAAEAAAgAAAAAQAACAAAQAAAAAIAABAAAIAAAAAEAAAgAABAAAAAAgAAEAAAgAAAAAQAACAAAAABAAAIAABAAAAAAgAAEAAAgAAAAAQAACAAAAABAAAIAABAAACAAAAABAAAIAAAAAEAAAgAAEAAAAACAAAQAACAAAAABAAAIAAAAAEAAAgAAEAAAAACAAAQAACAAAAAAWACABAAAIAAAAAEAAAgAAAAAQAACAAAQAAAAAIAABAAAIAAAAAEAAAgAAAAAQAACAAAQAAAAAIAABAAACAAAAABAAAIAABAAAAAAgAAEAAAgAAAAAQAACAAAAABAAAIAABAAAAAAgAAEAAAgAAAAAQAACAAAEAAAAACAAAQAACAAAAABAAAIAAAAAEAAAgAAEAAAAACAAAQAACAAAAABAAAIAAAAAEAAAgAAEAAAIAAAAAEAAAgAAAAAQAACAAAQAAAAAIAABAAAIAAAAAEAAAgAAAAAQAACAAAQAAAAAIAABAAAIAAAAABAAAIAABAAAAAAgAAEAAAgAAAAAQAACAAAAABAAAIAABAAAAAAgAAEAAAgAAAAAQAACAAAAABAAACwAQAIAAAAAEAAAgAAEAAAAACAAAQAACAAAAABAAAIAAAAAEAAAgAAEAAAAACAAAQAACAAAAABAAAIAAAQAAAAAIAABAAAIAAAAAEAAAgAAAAAQAACAAAQAAAAAIAABAAAIAAAAAEAAAgAAAAAQAACAAAQAAAgAAAAAQAACAAAAABAAAIAABAAAAAAgAAEAAAgAAAAAQAACAAAIAKTDIBAD23a/Px/52hgWnxn8N98efdVPoEAADGyO0mEAAA5OeuuKWeRQIAgLxcFPdm3Lq408whAADI75OAm8wgAADIyzlxz8WtjZtuDgEAQD5mxj0Zt8QUY8OPAQLQT+6LOxi3Le5Xc/gEAIDmaxWdbwx8Ne4ezygBAEB+VsTdYgYBAEBeLoh7Oe6RuKnmEAAA5OOMuAcLPyJYCd8ECEA/O737KUD65xtxP5rEJwAA5GF23Atxy0whAADIz6q4W80gAADIS/oRwaG4R4vOlwQQAABkYmLc6rgbTSEAAMjL2XHr4x6Im2YOAQBAPs6Pe7rwy4IEAADZKePujrsj7hRzjE6WvwdgcHBwNP/6nLiru/+cUYzPN560uv9DPxC3P25P3MftdvuLeC0T4p+H7WxnO9u5CTufwGu8JO717icCG+L+9Ggf4XhlWQqAo02OWxO3suj8/Gk/OhS3L25j93/8ZbyhSzvb2c527oudd20+/r8zNNDL/+6v49YWnb9FcPQ25fcs9CWAoy2L+7LofG1pdh//OdN3ws6N2xK3N26hne1sZzs3fOdjmRX3YtzDhW8MFACjdGbce903xrk1+nOnj8Aui9se/w/llbiWne1sZzs3bOeRmt4NgEUeaQJgpNLX6D6seQ2nb4BZHrcj3swn2dnOdrZzQ3YerfSlmPSlgIGi85cJIQD+05S4nUXnm3XqLn28d33c23a2s53t3ICdT9SFcS/FrfCIEwDHsqUhb+Ij38zzo+Y32NnOdrZzzXf+v9I3ZPo9AQLgX90Qt6SBryt9BLY03sxz7WxnO9u5pjv36pOA9OMb6e8OOMsjXwAc6akGv7b0qzIfs7Od7Wznmu7cK6fG3Vv4uwMEwBHSXyk5p8GvL32kNy9q/ho729nOdq7Zzr2Wfizwibj746Z69AuAHP5O6fQjSovtbGc727lmO1dhVtyzcbd59OcdACfHLcjgdaav6V1nZzvb2c412rlqq7sRMFEA5Cl9hDclk9c6bXBwcKad7WxnO9dk56pdHDdUdH5XwGQBkJ8rMnqt6RtgLrWzne1s55rsPFZWxd0sAPKT00c/rXF8vXa2s53t3K/Oi3s+bl3R+RXCAiATV2X0WtNHXFfa2c52tnNNdh5L6cce008HLC4y5DcBApCzCd1PAgQAAGQkfbljpwAAgLxsLXwJICufZPRaf4/71M52trOda7LzWD/8l+daPrkGwKGMXms5jq/Xzna2s509/AVAX9mX0Wv9I+4zO9vZznauyc4e/gKg8jfyL5m81uF2u/2tne1sZzvXZGcPfwFQqYNx72fwOtPX8T6ws53tbOca7ezhLwAqty2D1/hT3Dt2trOd7VyznT38BUDlb+Qmf40rfQPP7na7vdvOdraznWu2s4e/AKhU+i7XdQ1+fd/FPW5nO9vZzjXc2cNfAFRuR9z2Br6u3+KGouL32tnOdrZzTXf28BcAldf8srjPG/Sa0kd4O+NN/JCd7WxnO9d4Zw9/AVC5n+MWNOTNnN7E78YtsbOd7WznBuzs4V+hSSb4xzdx18a9FTe/pq8h/eKOrVHwd9rZzna2c4N29vD3CUDlhuMWxq2I+75Gf+7DRed3di+qyZvYzna2s509/H0C0HfSR2GvFZ0f9VkTtzJuVp/+Wf+K2xO3Md7AQ3a2s53t3PCdPfwFwJiU8YG49XHPxF0eNy9uTtyMuMnj+Gf7IW5/9w38UbyBv7Kzne1s54x29vDvoVZZllYAoLd2bT7+vzM00IsHUG8e/pvyexb6HgAA/D//DAkAADz8BQAAePgLAADw8BcAAODhLwAAwMNfAACAh78AAAAPfwEAAB7+AgAAPPwFAAB4+AsAADz8EQAAePgjAADw8EcAAODhjwAAwMMfAQCAhz9Ha5VlaQUA8AkAACAAAAABAAAIAABAAAAAAgAAEAAAgAAAAAQAACAAAAABAAAIAABAAAAAAgAAEAAAgAAAAAFgAgAQAACAAAAABAAAIAAAAAEAAAgAAEAAAAACAAAQAACAAAAABAAAIAAAAAEAAAgAAEAAAAACAAAQAAAgAAAAAQAACAAAQAAAAAIAABAAAIAAAAAEAAAgAAAAAQAACAAAQAAAAAIAABAAAIAAAAAEAAAgAABAAAAAAgAAEAAAgAAAAAQAACAAAAABAAAIAABAAAAAAgAAEAAAgAAAAAQAACAAAAABAAAIAABAAACAAAAABAAAIAAAAAEAAAgAAEAAAAACAAAQAACAAAAABAAAIAAAAAEAAAgAAEAAAAACAAAQAACAAAAAAQAACAAAQAAAAAIAABAAAIAAAAAEAAAgAAAAAQAACAAAQAAAAAIAABAAAIAAAAAEAAAgAAAAAQAAAsAEACAAAAABAAAIAABAAAAAAgAAEAAAgAAAAAQAACAAAAABAAAIAABAAAAAAgAAEAAAgAAAAAQAACAAAEAAAAACAAAQAACAAAAABAAAIAAAAAEAAAgAAEAAAAACAAAQAACAAAAABAAAIAAAAAEAAAgAAEAAAIAAAAAEAAAgAAAAAQAACAAAQAAAAAIAABAAAIAAAAAEAAAgAAAAAQAACAAAQAAAAAIAABAAAIAAAAABAAAIAABAAAAAAgAAEAAAgAAAAAQAACAAAAABAAAIAABAAAAAAgAAEAAAgAAAAAQAACAAAAABAAACAAAQAACAAAAABAAAIAAAAAEAAAgAAEAAAAACAAAQAACAAAAABAAAIAAAAAEAAAgAAEAAAAACAAAEgAkAQAAAAAIAABAAAIAAAAAEAAAgAAAAAQAACAAAQAAAAAIAABAAAIAAAAAEAAAgAAAAAQAACAAAQAAAgAAAAAQAACAAAAABAAAIAABAAAAAAgAAEAAAgAAAAAQAACAAAAABAAAIAABAAAAAI/C3AAMAvQJVZb6TxBEAAAAASUVORK5CYII=;" parent="GbpzfajvycvOcoFSvj6P-1" vertex="1">
          <mxGeometry x="127.77777777777779" y="41.111111111111114" width="127.77777777777779" height="127.77777777777779" as="geometry" />
        </mxCell>
        <mxCell id="rohLjPD7Sopph-08Ycnb-3" value="" style="shape=image;imageAspect=0;aspect=fixed;verticalLabelPosition=bottom;verticalAlign=top;image=data:image/png,iVBORw0KGgoAAAANSUhEUgAAAgAAAAIACAYAAAD0eNT6AAAABGdBTUEAAK/INwWK6QAAABl0RVh0U29mdHdhcmUAQWRvYmUgSW1hZ2VSZWFkeXHJZTwAAA3WSURBVHja7N1vyJ1lHcDx67SnlWRNpmFlTRfS+kMhFIFCKEEvQksW0nA5T75I5BFTCsPh6k0U/aFYbKwMBjstDd8kSpHMV4NBIAmD3vjAYDAYDKSHFovBYJ1+V/c1SmWy5eM5931+nw9cDOrNea7j9Tvf5zz3uc9oOp0WACCXt9kCABAAAIAAAAAEAAAgAAAAAQAACAAAQAAAAAIAABAAAIAAAAAEAAAgAAAAAQAACAAAQAAAAAIAABAAACAAAAABAAAIAABAAAAAAgAAEAAAgAAAAAQAACAAAAABAAAIAABAAAAAAgAAEAAAgAAAAAQAACAAAEAAAAACAAAQAACAAAAABAAAIAAAAAEAAAgAAEAAAAACAAAQAACAAAAABAAAIAAAAAEAAAgAAEAAAIAAAAAEAAAgAAAAAQAACAAAQAAAAAIAABAAAIAAAAAEAAAgAAAAAQAACAAAQAAAAAIAABAAAIAAAAABAAAIAABAAAAAAgAAEAAAgAAAAAQAACAAAAABAAAIAABAAAAAAgAAEAAAgAAAAAQAACAAAAABAAACwBYAgAAAAAQAACAAAAABAAAIAABAAAAAAgAAEAAAgAAAAAQAACAAAAABAAAIAABAAAAAAgAAEAAAgAAAAAEAAAgAAEAAAAACAAAQAACAAAAABAAAIAAAAAEAAAgAAEAAAAACAAAQAACAAAAABAAAIAAAAAEAAAIAABAAAIAAAAAEAAAgAAAAAQAACAAAQAAAAAIAABAAAIAAAAAEAAAgAAAAAQAACAAAQAAAAAIAAAQAACAAAAABAAAIAABAAAAAAgAAEAAAgAAAAAQAACAAAAABAAAIAABAAAAAAgAAEAAAgAAAAAQAAAgAAEAAAAACAABYOEu2gHn51/JoOtf63Tcd+bn8XIv6c4F3AAAAAQAACAAAEAAAgAAAAAQAACAAAAABAAAIAABAAAAAAgAAEAAAgAAAAAQAACAAAAABAAAIAABAAAAAAgAAEAAAIAAAAAEAAAgAAEAAAAACAAAQAACAAAAABAAAIAAAAAEAAAgAAEAAAAACAAAQAACAAAAABAAAIAAAQAAAAAIAABAAAIAAAAAEAAAgAAAAAQAACAAAQAAAAAIAABAAAIAAAAAEAAAgAAAAAQAACAAAQAAAgAAAAAQAACAAAAABAAAIAABggJZswfBMJpOr45+/9eGxjMdjTwiYBWaBdwCYka/ZAsAsQADksxzrbs8fmAVmAQIgly2xnoq1M9a7bAeYBWYBAiBf/X/JNoBZYBYgAHL5QKyfx3os1jW2A8wCswABkMf7Y/0w1l22AswCs4BL5WOAi+ORWOdiPR3rn7YDzAKzAO8ALL5R6S4G2h/rm55XMAvMAgRAPt+I9VXbAGaBWYAAyGVzrCdi7Yq10XaAWWAWIADyeE+s7xQfCwKzwCzgIlwEuLje3cq//vvbWH+3JWAWmAV4ByCHG2PtifV1WwFmgVmAAMjngVjbbAOYBWYBAiCX+rGgJ2N9t3RvAwJmgVkgAEhiXawHY91hK8AsMAsQALlcG+vHsR6NdbXtALPALBAA5PGhWD8pbhACZoFZIABIZxrroVj3xHqH7QCzwCwQAORQ7xf+sVgHY30r1tttCZgFZoEAIJf7Y33FNoBZYBYIAHK5IdbeWI8XFwOBWWAWCABSuaYd+i/bCjALzIIcfBcAF1wR67FY62P9LtY/bAmYBWaBdwDI4SOxflW67xEHzAKzQACQTL0YyGeDAbNAAJCw/ielu1/4VbYDzAKzQACQxztjPVzcLxzMArNAAJBO/SjQ90t3g5CNtgPMArNAAJDHDbF+Fmu7rQCzwCwQAOTzYDv462wFmAVmgQAgj4/GerJ0nw++wnaAWWAWCAByeSDWnbYBzAKzQACQywdj7Y61s3S3DQXMArNAAJDEtaW7InirrQCzwCwQAOT7b2e3bQCzwCwQAOQyinXINoBZYBYIAHI5ULztB5gFAoB0B/4+2wBmgVkgAHDgAbMAAYADD5gFCAAceMAsQADgwANmAQIABx4wCxAAOPCAWYAAwIEHzAIEAA48YBYgAHDgAbMAAYADD5gFCAAceMAsQADgwANmAQIABx4wCwQADjxgFiAAcOABswABgAMPmAUIABx4wCxAAODAA2YBAgAHHjALEAA48IBZgADAgQfMAgQADjxgFiAAcOABswABgAMPmAUIABx4wCxAAODAA2YBAsCBd+ABswAB4MADZgEIAAceMAtAADjwgFmAAMCBB8wCBAAOPGAWsNiWbMHwjMdjBx4wC/AOAAAgAAAAAQAACAAAQAAAgAAAAAQAACAAAAABAAAIAABAAAAAAgAA6BFfBjQHk8lkOu/HMB6PR54JwEzyDgAAIAAAAAEAAAgAAEAAAAACAAAQAACAAAAABAAAIAAAAAEAAAgAAEAAAAACAAAQAACAAAAABAAACAAAQAAAAAIAABAAAIAAAAAEAAAgAAAAAQAACAAAQAAAAAIAABAAAIAAAAAEAAAgAAAAAQAACAAAEAAAgAAAAAQAACAAAAABAAAIAABAAAAAAgAAEAAAgAAAAAQAACAAAAABAAAIAADg8izZAuZWn/umIz+Xn8vPBd4BAAAEAAAgAAAAAQAACAAAQAAAAAIAABAAAHQmk8l6uyAAyHXoN9gFIFxpCwQAuWy0BUDwy4AAIJlNtgAwCwQA+XzcFgBmgQAgn5ttARA+awsEALncaguA8HlbIADIZdNkMvHWHyQWM2BLcQ2AACClbbYAUttuCwQAs3WmJ49jR/wGsM7TASl/+69nf4eZKACYrfM9eRybY231dEBKW9sMMBMFADO02qPH8j1PB6T0eI8ey2lPhwAQALP3yclk4u+AkEg78zf16CG94lkRAFmc7Nnj2RMDwa2BIceLfz3ru81EBMB8HO/Z46kDYZ+nBVKoZ/29PXtMJzwtAiCLYz18TNviN4P7PTWw0L/91zPex4//rnh2BEAWff2Pvf4pwF3BYDFf/OvZ3mMmIgDm62hPH9f6WM/GoPA9AbBYL/71TD/bzngf/dWzJACyqFe89vWilytjHYqB8QVPEyzMb/6H2tnuozoLT3mmBEAmR3r82Oqg+INrAmDwL/71DP+pxy/+fZ+FC23JFszN4dLve/HXtwqfiAFSvzVweTweu1EHDOeFf0PprvYfwj0+DnvGvAOQzfMDeZx1gLwcA2WHpwwG8eJfz+rLZThf9PO8Z807ANnUewHUz74O4as43xfrNzFYHo5/fzAej5/x9EHvXvjrvf3r7X0/PaCHfaL0774oAoCZeDrWowN6vHWw/D4GTb1op0bAH2O9EEHgizxg9i/49dv86sW6t5fui32uG+gMZE5G0+nULsz+4P7vC+pfBv7j1GsDXmirlvxqBMFLnmVY87lR50W9a+fm9sJf14aB/1ififWfeRFzw5PsHYBU6n/49QYYWwb8M9QBdFdbrw0cgItZufDiz3y4CHD+fm0LALMPAZDPwVhnbQOQyNk2+xAAqdW7Au63DUAi+9vsQwCk99NY52wDkMC5NvMQAJTus7DeDgMyONhmHgKA5kexfJ4eWGTn/fYvAHi9Y8VVscBiqzNuxTYIAF5vV6xV2wAsoNU24xAAXOSA7LQNwALa6RccAcAbq2+R+X5sYJEcKf7EKQC4JPeW7h77AEN3us00BACX4LgDAyyI+4qv/BUAXJbnYu21DcCA1Rn2jG0QAFy+bxfflgUM09E2wxAA/B/qLTPvLN09AgCGos6sO4pbnAsA3pSTsb5YfHEGMAyvtJl10lYIANaupn0yAOiz021WeddSALCGXizdnwPO2Aqgh860GfWirRAArL3DsW6LdcpWAD1yqs2mw7ZCAPDWqZ8K+FzxuVqgH463meQTSwKAGah/X7uleKsNmP8vJLcUf/MXAMzUhbfcDtgKYA4Ott/8/UlSADAHZ0t3m826XBwIzMKZNnPubTMIAcAc1XcBPlVcgAO8tY60WXPAVggA+qNeiHNbrOXifgHA2jrdZosLkAUAPfbLWB9u/563HcCbcP41MwUBQM+ttlr/ROneqnM/buByX/gPtBmy3GYKAoABWSndxTq13uvXcrpgB3gjZ9usuL7NjhVbIgAYtvqlHA+1Q/1IccMO4NVearPh+jYrfJFPAku2IJX6LV2/aGtLrB2xtsfabGsgnXox31Ol+zy/3/QFAInUA7+rrRoAt8e6NdbNsa6zPbBw6m/1fy7dR/meK67mFwC2gDYI9rZVbYx1Y6yb2r91bWr/37r2vwP9crT895M/J0p3e95j7X+v/7qQj1cZTadTuwAAybgIEAAEAAAgAAAAAQAACAAAQAAAAAIAABAAAIAAAAAEAAAgAAAAAQAACAAAQAAAAAIAABAAAIAAAAAEAAAIAABAAAAAAgAAEAAAgAAAAAQAACAAAAABAAAIAABAAAAAAgAAEAAAgAAAAAQAACAAAAABAAAIAAAQAACAAAAABAAAIAAAAAEAAAgAAEAAAAACAAAQAACAAAAABAAAIAAAAAEAAAgAAEAAAAACAAAQAAAgAAAAAQAACAAAQAAAAAIAABAAAIAAAAAEAAAgAAAAAQAACAAAQAAAAAIAABAAAIAAAAAEAAAgAABAAAAAAgAAEAAAgAAAAAQAACAAAAABAAAIAABAAAAAAgAAEAAAgAAAAAQAACAAAAABAAAIAABAAAAAAgAABAAAIAAAAAEAAAgAAEAAAABD8W8BBgBDx9kWx0auLgAAAABJRU5ErkJggg==;" parent="GbpzfajvycvOcoFSvj6P-1" vertex="1">
          <mxGeometry x="16.666666666666668" y="41.111111111111114" width="127.77777777777779" height="127.77777777777779" as="geometry" />
        </mxCell>
        <mxCell id="GbpzfajvycvOcoFSvj6P-9" value="" style="group" parent="1" vertex="1" connectable="0">
          <mxGeometry x="40" y="129" width="211" height="610" as="geometry" />
        </mxCell>
        <mxCell id="GbpzfajvycvOcoFSvj6P-4" value="" style="rounded=1;labelPosition=center;verticalLabelPosition=top;align=center;verticalAlign=bottom;fontFamily=Tahoma;fontSize=20;labelBorderColor=none;whiteSpace=wrap;html=1;horizontal=1;fontStyle=1;fontColor=#888;strokeColor=#888;fillColor=none;strokeWidth=2;" parent="GbpzfajvycvOcoFSvj6P-9" vertex="1">
          <mxGeometry width="160" height="609.9999999999999" as="geometry" />
        </mxCell>
        <mxCell id="GbpzfajvycvOcoFSvj6P-5" value="" style="shape=image;verticalLabelPosition=bottom;labelBackgroundColor=#ffffff;verticalAlign=top;aspect=fixed;imageAspect=0;image=data:image/png,iVBORw0KGgoAAAANSUhEUgAAAgAAAAIACAYAAAD0eNT6AAAABGdBTUEAAK/INwWK6QAAABl0RVh0U29mdHdhcmUAQWRvYmUgSW1hZ2VSZWFkeXHJZTwAABkGSURBVHja7N1/qJX3fQfw53pFkEkEQ8glgo3FEEjQOBwlhqQtRcVMTSezuAXSazrqHyGlpaWhtqFjo61tQspKpWV2rd4GssjcXNLYiIaxNKGGMFvrJaFSWVzAYAgRTA2CcD37fHe+odbO1HvOuc+P87xe8OGkqbn38fOc5/t9n+95fox0Op0CAGiXWVoAAAIAACAAAAACAAAgAAAAAgAAIAAAAAIAACAAAAACAAAgAAAAAgAAIAAAAP2ZrQVUZWJiYjp/fE7UsqjbokajVlz2/x+Jmoo6GjUZdeFqf/D4+Lj+6Z/+IQBAjYxEbc61KmreVf5356IORe3JpX/6p39wGV8BUNeBd0P+JPXPUX8xjcG3yH92Y9STUcei1umf/ukfCADU2zVR/xr1dNStA/h5S6OeifqXaQ7i+qd/+ocAACW5Iepw/vQ0aJuifh41pn/6p38gAFAf1xbd701vmcHfkT6NHYyar3/6p38IAFC9dFb1kzM8+F46CD+pf/qnfwgAUP178P6ie5Z1WdZGbdE//dM/BACozp9Efa2C35t+51z90z/9QwCAat5/D0ZdX8HvXph/t/7pn/4hAEAF77+tFf7+rfqnf/qHAADlS7dWvbHC37+k6J6UpX/6p38IAFCi22uwDSv1T//0DwEAyrXUNuif/oEAQPuM2Qb90z8QAGifubZB//QPBAAAQAAAAAQAAEAAAAAEAABAAAAABAAAQAAAAAEAABAAAAABAAAQAAAAAQAAEAAAAAEAABAAAAABAAAQAAAAAQAAEAAAAAEAABAAAAABAAAQAAAAAQAAEAAAQAAAAAQAAEAAAAAEAABAAAAABAAAQAAAAAQAAEAAAAAEAABAAAAABAAAQAAAAAQAAEAAAAAEAABAAAAAAQAAaIuRTqejCwBgBQAAEAAAAAEAABAAAAABAAAQAAAAAQAAEAAAAAEAABAAAAABAAAQAAAAAQAAEAAAAAEAABAAAEAA0AIAEAAAgBaYrQVcbmJiYn68LIlakV9TLbrkjyyPGtUpqI2pqKOX/O/Xo07kOpJfz9b5LzA+Pm4vCgBUMOEvjpd1UXdGrbxssgfqbzQH9ves+H/+TAoFh6NejNof9Zq2CQC0c9JPn+rvi7o3f8IHhtuiXJujvpsDwONRT0Qd1x4BgOGe9BfkCf/e/EkfaK+08vfVXC/nMLAn6i2tEQAYnol/Ybx8KepvoubqCHCZD+V6JOqHUd+MOqUtAgDNnfgX54l/S9QcHQH+iPQB4cGorVG7cxBwroAAQIMm/nnx8ndRny2crQ9M35wcAtKq4Xei/jbqnLYMF/cBGL7JP53g8+uoz5v8gT6N5rEkjSmbtcMKAPWc+NPZvf8UtVo3gAFL5xE9mVcF7i+6lxRiBYAaTP73xMsxkz8wwz6Wx5p7tMIKANVO/Ol7uu1Fd4kOoAzpTqFPRX07alvUBS2xAkC5k/9YvPynyR+oSBp7Xoga0woBgPIm/8X5wHMzH6BK6d4BPy+6NxVCAGCGJ//l+YBz+16gDhbnMWm5VggAzNzkf2dhyQ2on7E8Nt2pFQIAM/PJ/5moeboB1NC8PEZZCRAAGODkn5b7Dxbds28B6mp+Hqt8RSkAMIDJ/7p4eTbqOt0AGsCYJQAwgMk/Xef/lDQNNEwas9LXAR5CJgDQo/RoTpf6AU2ULhF8TBsEAKb/6T/davOzOgE0WHq0sNsGCwBMY/JP19Xu0glgCKSxzI2CBACmccAs0AZgCCzwgUYA4Oo+/afHbX5EJ4Ahksa0rdogAHDlyT8l5e06AQyh7YWVTQGAK/qaAwQYUgvyGIcAwGWf/tNJMpbIgGGWxjj3NREAuMxXoka1ARhiaYz7kjYIAPzu0/+ieLlPJ4AWSGPdIm0QAOj6fOGWmUA7zMljHgJA6z/9pwdm+O4faJM05nlYkADQemk5bK42AC0yt/C1pwCAT/+AsY/yzdaC6kxMTKyIl5sb/tc4G3Uo12tRZ6KOjo+PT9nDMLCxIp09v7zoXkufLhlenWt+g/9aaexLY+ARe1gAaKNNDd3uU1H7ovanid9kDzMrH2OXTpQ7cyhIIWBd1MaohQ0dAwWAiox0Oh1dqC7V/3fRrKdkTUZ9MwajJ+w9qN14cm/RvcZ+aYM2O60afjCHHDtRAGjNwZqug/2fhmzuW1EPxQG6256D2o8t6eS6x4rmnGX/gajXBYDyOQmwOusasp17o24y+UMzxLH6eDpm87FrLOSKnANQnbo/8vdC1BdiMNlhV0HjQkA6OfcTExMTD+bVgDrfaCyNhd+316wAtMmdNd62c1HrTf7Q+CCQjuH1+Zg2FiIAVC3f/a+uZ+ymgWJNDByH7CkYihCQjuU1NQ4BaSwcs6cEgLao61m6adn/4zFgHLaLYKhCQDqmP56PcWMiAkCFbqnpdn0mBor/sHtgKENAOrY/U9PNu9keEgDaYkkNt2lPDBA77RoY6hCQjvE9xkQEgOrU7eY/6fa9D9gt0ArpWH/LmIgAUI26nQCYlv7P2C3QilWAdKx/zpiIAFCNBTXalkm39oXWhYB0zB+t0SZdZ68IAAJA+f7e7oBW+nqNtmW+3SEAtMVoTbYjPYhjn90BrbQvjwHGRAGAEs2ryXY84VG+0E752H/cmCgA0E57tABaba8WCAC0T3r85qQ2QKtXAdIY8LpOCAC0y/NaABgLBADa52UtAIwFAgDtc0ILAGOBAICDHjAWIADQAm9pARBOa4EAQIuMj4+f1QUgxoJzuiAAAAACAAAgAAAAAgAAIAAAAAIAACAAAAACAABQrdm9/EcTExPT+eNLo1bm17GouQ3rUWd8fHyDt0o5Lj4wMhov90Rtiro5annUqM7QQFNRR6OOR+2NenrW9zpT2lKOmKeejZeRhm32+aJ7Z8b0mOaXoo6lYTHX+4p5qpwAcBXSJP9g1NaoJU2fkxxKpU3+acL/cdSHdIMhkILrilz3Rr0c7/FPRgg4rjWlWFM0f5X7ZNTOqB1R7w56PpqJ5myJ+k3UI0Mw+VPe5P/5ePmlyZ8hlt7bv8zvdbgaN0Z9I8+pnyoGvBo6yAAwPyotueyKWmi/MY3JP4XFx4rmfT0E05Xe44/l9zxcreujfhB1IOraugWA9N3+C1Fr7SemOflvjpcv6gQt88X83ofpWBX1s6gb6hIA5kUdLLon+cF0Jv85+ZM/tNHX8jEA03FL1KGoa+oQAHaZ/OlROtPf10W01ZJ8DEAvIWB30edVDv0GgHXewPT5/gHHAEzfxqj1VQaA7fYBfVihBbTcSi2gzzm451WAfgJAOoHF0j/9GNMCWs5XYPTj1jwXVxIAoB/ztYCWcxIg/So9AKQ37Wp9B4BKreo1SPYaANLS/zx9B4BKpbl4WZkB4DY9B4BaKDUAeDobANRDT3NyrwHA5VsAUA89zcmz9A0A2kcAAAABAAAQAK7siNYBQC30NCf3GgCm9BsAaqGnObnXAHBMvwGgFn5VdgA4p+cAUKk0F0+WGQAuRD2n7wBQqUN5Ti4tACR79B0AKtXzXNxvAHhF7wGgEpNVBYBO1Db9B4BK9DUH93sjoGei9tkHAFCqvVH7qwwAaRVgS9Sr9gUAlCIt/d/f7w8ZxK2A34laLQQAQCmT/5piAJfiD+pZAG9EfbhwaSAAzJQDUXdFnR7EDxvkw4Dejlob9emoN+0nABiIU0V3yf/uqLOD+qGDfhpguh/xj6Juivpy1En7DQB6ciLqoTyn7h70D589Axt8Meq3Ud+KejRqWdTtUUujxqLmNmwHdLwHARrnp1EjDdvm80V3eT99z3+46PEWv1UGgEuDQKpf5AKAsmzQgvc3SwsAQAAAAAQAAEAAAAAEAABAAAAABAAAQAAAAAQAAEAAAAAEAABAAAAABAAAQAAAAAQAAEAAAAAEAABAAAAAAQAAEAAAAAEAABAAAAABAAAQAAAAAQAAEAAAAAEAABAAAAABAAAQAAAAAQAAEAAAAAEAABAAAAABAAAEAABAAAAABAAAQAAAAAQAAEAAAAAEAABAAAAABAAAQAAAAGbe7BJ+x9Kolfl1LGpuw3rUidrgrQLQKM9GjTRsm89HnY6ajHop6ljUxVyNCQBpkn8wamvUkoa/iS46jgAaZ03R/FXuk1E7o3ZEvTvo+WgmmrMl6jdRjwzB5A8AVbkx6ht5Tv1U1GhdA8D8orvksitqof0GAANxfdQPog5EXVu3AJC+238haq39BAAzYlXUz6JuqEsAmBd1sOie5AcAzJxbog5FXVOHALDL5A8ApYaA3UWfVzn0GwDWRW2yLwCgVBuj1lcZALbbBwBQie39rAL0EwA2F5b+AaAqt+a5uJIAAABUp/QAMCdqtb4DQKVW5Tm5tACQlv7n6TsAVCrNxcvKDAC36TkA1EKpAWBUvwGgFnqak3sNACv0GwBqoac5eZa+AUD7CAAAIAAAAALAlR3ROgCohZ7m5F4DwJR+A0At9DQn9xoAjuk3ANTCr8oOAOf0HAAqlebiyTIDwIWo5/QdACp1KM/JpQWAZI++A0Clep6L+w0Ar+g9AFRisqoA0Inapv8AUIm+5uB+bwT0TNQ++wAASrU3an+VASCtAmyJetW+AIBSpKX/+/v9IYO4FfA7UauFAAAoZfJfUwzgUvxBPQvgjagPFy4NBICZciDqrqjTg/hhg3wY0NtRa6M+HfWm/QQAA3Gq6C753x11dlA/dNBPA0z3I/5R1E1RX446ab8BQE9ORD2U59Tdg/7hs2dggy9G/TbqW1GPRi2Luj1qadRY1NyG7YCO9yBA4/w0aqRh23y+6C7vp+/5Dxc93uK3ygBwaRBI9YtcAFCWDVrw/mZpAQAIAACAAAAACAAAgAAAAAgAAIAAAAAIAACAAAAACAAAgAAAAAgAAIAAAAAIAACAAAAACAAAgAAAAAgAACAAAAACAAAgAAAAAgAAIAAAAAIAACAAAAACAAAgAAAAAgAAIAAAAAIAACAAAAACAAAgAAAAAgAAIAAAgAAAAAgAAIAAAAAIAACAAAAACAAAgAAAAAgAAIAAAAAIAADAzJtdwu9YGrUyv45FzW1YjzpRG7xVABrl2aiRhm3z+ajTUZNRL0Udi7qYqzEBIE3yD0ZtjVrS8DfRRccRQOOsKZq/yn0yamfUjqh3Bz0fzURztkT9JuqRIZj8AaAqN0Z9I8+pn4oarWsAmF90l1x2RS203wBgIK6P+kHUgahr6xYA0nf7L0SttZ8AYEasivpZ1A11CQDzog4W3ZP8AICZc0vUoahr6hAAdpn8AaDUELC76PMqh34DwLqoTfYFAJRqY9T6KgPAdvsAACqxvZ9VgH4CwObC0j8AVOXWPBdXEgAAgOqUHgDmRK3WdwCo1Ko8J5cWANLS/zx9B4BKpbl4WZkB4DY9B4BaKDUAjOo3ANRCT3NyrwFghX4DQC30NCfP0jcAaB8BAAAEAABAALiyI1oHALXQ05zcawCY0m8AqIWe5uReA8Ax/QaAWvhV2QHgnJ4DQKXSXDxZZgC4EPWcvgNApQ7lObm0AJDs0Xf6dFYL8OkN+tLzXNxvAHhF7+nDaS2g5U5pAX2YrCoAdKK26T99cDkpjgHoXV9zcL83Anomap99QI/2awGOAejJ3n7fP/0GgLQKsCXqVfuCHt/AJ7SBlnotHwMwXWnp//5+f8ggbgX8TtRqIYBpv/m+10lnrj6sE7TUtnwMwHQn/zXFAE4gHdSzAN6I+nDh0kCmHwLSCSzf1gla5tv5vQ/TcSDqrmJAJ1AP8mFAb0etjfp01Jv2E9PwUF4J8GmIYffeqtdDWsE0pKtF0pL/3cUAL58e9NMA0/2IfxR1U9SXo07ab1zFKsBU1NfjH5dFvawjDKn03v7T9F5P73nt4CqcyGExzam7B/3DZ8/ABl+M+m3Ut6IezYP67VFLo8ai5jZsB3S8B0sLAscvPjByR/zjxqhNUUuiVugMDZYu80sn+6Xl/n0m/lL9NGqkYdt8vugu76fv+Q8XPd7id0YDwPj4+NUGgVS/yAVXtRpQdM+MdnY00LOYpzbowh8Zb7UAAAQAAEAAAAAEAABAAAAABAAAQAAAAAQAAGpnYmJiji4IALTroJ+vC0CYpwUCAO2yQAuA4MOAAEDLLNICwFggANA+t2gBYCwQAGiflVoAhA9pgQBAu3xEC4DwMS0QAGiXRRMTE5b+oMViDLi5cA6AAEArbdYCaLV7tUAAoFznarId98UngFG7A1r56T8d+/cZEwUAyjVVk+1YHLXR7oBW2pjHAGOiAECJztRoW75qd0ArfaVG23LW7hAABIDyLZ2YmPA9ILRIPuaX12iT3rJXBIC2OFWz7fluDAhuDQztmPzTsf4PxkQEgGq8VrPtSQPC9+wWaIV0rF9Xs2163W4RANriRA23aXN8Mthq18BQf/pPx3gdL/89bu8IAG1R1zd7+irAXcFgOCf/dGx/15iIAFCtozXdrjlRT8VA4TkBMFyTfzqmn8rHeB1N2ksCQFukM17retLLvKiDMWCstptgaD75H8zHdh2lsfC0PSUAtMmLNd62NFA845wAaPzkn47hZ2s8+dd9LBxqs7WgMs8X9b4Xf1oq/McYQNJTAx8YHx93ow5ozsQ/v+ie7d+Ee3w8b49ZAWibAw3ZzjSA/DoGlPvsMmjE5J+O1V8XzXnQzwF7zQpA26R7AaRrX5vwKM6xqB/HwPLZeP36+Pj4PrsPajfxp3v7p9v7rmjQZr9e1O++KAIApdgT9cUGbW8aWP4tBpp00k4KAfujDkUg8CAPKH/CT0/zSyfrriu6D/ZZ2NAxkIqMdDodXSj/wL10Qv2vhv910rkBh3KlJH8mAsERexkGPm6k8SLdtXNxnvhTzW/4X+vPov5vvIhxw062AtAq6Y2fboBxc4P/DmkA2pTr8oADcCXH35v8qYaTAKu3UwsAYx8CQPs8HnVeG4AWOZ/HPgSAVkt3BfyhNgAt8sM89iEAtN6jURe0AWiBC3nMQwCg6F4LazkMaIPH85iHAED2zSjX0wPDbMqnfwGAP3SicFYsMNzSGHdcGwQA/tDDUWe0ARhCZ/IYhwDAFQ6QbdoADKFtPuAIALy/tETm+djAMHmx8BWnAMBV+WTRvcc+QNOdzWMaAgBX4TUHDDAk7i888lcAYFqejtqhDUCDpTFsnzYIAEzfFwpPywKa6WgewxAA6EG6ZebHi+49AgCaIo1Z6wu3OBcA6MupqLsLD84AmuGtPGad0goBgMGlaVcGAHV2No9VVi0FAAbo5aL7dcA5rQBq6Fweo17WCgGAwXs+6qNRp7UCqJHTeWx6XisEAGZOuirgrsJ1tUA9vJbHJFcsCQCUIH2/dkdhqQ2o/gPJHYXv/AUASvXektturQAq8Hj+5O8rSQGACpwvurfZTOXkQKAM5/KY88k8BiEAUKG0CrCscAIOMLNezGPNbq0QAKiPdCLOR6MeKNwvABiss3lscQKyAECNfT/qg/l1SjuAPkxdNqYgAFBzZ3Jav7XoLtW5Hzcw3Yl/dx5DHshjCgIADXK86J6sk9J7eiynE3aA93M+jxUfyGPHcS0RAGi29FCOz+SD+nOFG3YAv+9IHhs+kMcKD/Jpgdla0CrpKV3fyXVz1H1R90Yt1hponXQy3xNF93p+n/QFAFokHfAP50oBYF3UR6JWRi3UHhg66VP94aJ7Kd/ThbP5BQAtIA8EO3IlC6KWRC3Pr6kW5f9vNP97oF6OFr+78uf1ont73hP536dXJ/Lxe0Y6nY4uAEDLOAkQAAQAAEAAAAAEAABAAAAABAAAQAAAAAQAAEAAAAAEAABAAAAABAAAQAAAAAQAAEAAAAAEAABAAAAABAAAEAAAgJaYrQVUZWJi4ifx8ucVb8bBqLsb2kL9G4L+jY+P3200QACgbUaK6lehRvRP//SPNvIVAAAIAACAAAAACAAAgAAAAAgAAIAAAAAIAACAAAAACAAAgAAAAAgAAIAAAAAIAACAAAAACAAAgAAAAAgAACAAAAACAAAgAAAAAgAAIAAAAAIAACAAAAACAAAgAAAAAgAAIAAAAAIAACAAAAACAAAgAAAAAgAAIAAAgAAAAAgAAIAAAAAIAACAAAAACAAAgAAAAAgAAIAAQKudtw36p38gANA+p22D/ukfCAC0z6Rt0D/9AwGA9jlcg214Sf/0T/8QAKD8Tz8nKvz9J6OO6Z/+6R8CAJRvZ8W/+6L+6Z/+IQBA+XZEnarg976Zf/dF/dM//UMAgPKly6AeruD3pt/5rv7pn/4hAEB1dkcdKPH3PRe1a4g+femf/oEAQGP9VVHOJVGv5t81pX/6p38IAFC9s1FrZngQToPv6qi39U//9A8BAOoj3RXtjqi9M/Cz90WtjHpD//RP/0AAoH7ORX0iav2APo29EnVP1F9GvaN/+qd/IABQb/ujlhXd70v35YF5OoP4v0f9ddTSqJ9EdfRP//QPfme2FlBze3LNyYPpbVGjUSsu+3NHiu6JVcdyXdA6/dM/uLKRTkcwBYC28RUAAAgAAIAAAAAIAACAAAAACAAAgAAAAAgAAIAAAAAIAACAAAAACAAAwGD9rwADAL9IpXJ72717AAAAAElFTkSuQmCC;" parent="GbpzfajvycvOcoFSvj6P-9" vertex="1">
          <mxGeometry x="16.345555555555542" y="241.1065079365078" width="127.77777777777779" height="127.77777777777779" as="geometry" />
        </mxCell>
        <mxCell id="GbpzfajvycvOcoFSvj6P-16" value="" style="edgeStyle=orthogonalEdgeStyle;rounded=0;orthogonalLoop=1;jettySize=auto;html=1;strokeColor=#888888;strokeWidth=5;endArrow=oval;endFill=1;startArrow=oval;startFill=1;exitX=0.5;exitY=0;exitDx=0;exitDy=0;" parent="GbpzfajvycvOcoFSvj6P-9" source="GbpzfajvycvOcoFSvj6P-11" edge="1">
          <mxGeometry relative="1" as="geometry">
            <mxPoint x="79.5" y="714.5714285714283" as="sourcePoint" />
            <mxPoint x="79.5" y="609.9999999999999" as="targetPoint" />
            <Array as="points">
              <mxPoint x="80" y="627.4285714285712" />
              <mxPoint x="80" y="627.4285714285712" />
            </Array>
          </mxGeometry>
        </mxCell>
        <mxCell id="Yowsr8ln7lWeVKN-Ewds-2" value="" style="shape=image;verticalLabelPosition=bottom;labelBackgroundColor=#ffffff;verticalAlign=top;aspect=fixed;imageAspect=0;image=data:image/png,iVBORw0KGgoAAAANSUhEUgAAAgAAAAIACAYAAAD0eNT6AAAABGdBTUEAAK/INwWK6QAAABl0RVh0U29mdHdhcmUAQWRvYmUgSW1hZ2VSZWFkeXHJZTwAAA3ZSURBVHja7N1/qN1lHcDx57bbTLIm07Cypgtp5iiEIlAIJeiP0JKJNFzOk39MZGJKYThc/RNFPygWG5XFYKel4T8TpUjmX4NBIAmDCLwwGAwGA+nSYjIYjNPn6fuMUplseT3n+z2f1wseLtgfnfucPZ/zPuee8z0Lk8mkAAC5vMcWAIAAAAAEAAAgAAAAAQAACAAAQAAAAAIAABAAAIAAAAAEAAAgAAAAAQAACAAAQAAAAAIAABAAAIAAAAABAAAIAABAAAAAAgAAEAAAgAAAAAQAACAAAAABAAAIAABAAAAAAgAAEAAAgAAAAAQAACAAAAABAAACAAAQAACAAAAABAAAIAAAAAEAAAgAAEAAAAACAAAQAACAAAAABAAAIAAAAAEAAAgAAEAAAAACAAAEAAAgAAAAAQAACAAAQAAAAAIAABAAAIAAAAAEAAAgAAAAAQAACAAAQAAAAAIAABAAAIAAAAAEAAAIAABAAAAAAgAAEAAAgAAAAAQAACAAAAABAAAIAABAAAAAAgAAEAAAgAAAAAQAACAAAAABAAAIAAAQALYAAAQAACAAAAABAAAIAABAAAAAAgAAEAAAgAAAAAQAACAAAAABAAAIAABAAAAAAgAAEAAAgAAAAAQAAAgAAEAAAAACAAAQAACAAAAABAAAIAAAAAEAAAgAAEAAAAACAAAQAACAAAAABAAAIAAAAAEAAAgAABAAAIAAAAAEAAAgAAAAAQAACAAAQAAAAAIAABAAAIAAAAAEAAAgAAAAAQAACAAAQAAAAAIAABAAACAAAAABAAAIAABAAAAAAgAAEAAAgAAAAAQAACAAAAABAAAIAABAAAAAAgAAEAAAgAAAAAQAACAAAEAAAAACAAAQAADA3Fm0BczK3b/9+2SW//8Htm1c8Hv5veb19wKvAAAAAgAAEAAAIAAAAAEAAAgAAEAAAAACAAAQAACAAAAABAAAIAAAAAEAAAgAAEAAAAACAAAQAACAAAAABAAAIAAAQAAAAAIAABAAAIAAAAAEAAAgAAAAAQAACAAAQAAAAAIAABAAAIAAAAAEAAAgAAAAAQAACAAAQAAAgAAAAAQAACAAAAABAAAIAABAAAAAAgAAEAAAgAAAAAQAACAAAAABAAAIAABAAAAAAgAAEAAAgAAAAAEAAAgAAEAAAAACAAAQAADAAC3aguEZj8dXxY9/9OG2jEYjdwiYBWaBVwCYkq/bAsAsQADksz3Wve4/MAvMAgRALhtiPRNrR6z32w4wC8wCBEC++v+KbQCzwCxAAOTy0Vg/j/VErKttB5gFZgECII+PxPphrHtsBZgFZgEXy8cA58djsc7GejbW67YDzAKzAK8AzL+F0r0ZaG+sb7pfwSwwCxAA+WyL9TXbAGaBWYAAyGV9rKdi7Yy11naAWWAWIADy+GCs7xQfCwKzwCzgArwJcH59oJV//fn7WP+0JWAWmAV4BSCHG2LtjvUNWwFmgVmAAMjnoVibbQOYBWYBAiCX+rGgp2N9t3QvAwJmgVkgAEhiVayHY91pK8AsMAsQALlcE+vHsR6PdZXtALPALBAA5PHxWD8pLhACZoFZIABIZxLrkVj3xbrMdoBZYBYIAHKo1wv/VKz9sb4V6722BMwCs0AAkMuDse62DWAWmAUCgFyuj7Un1pPFm4HALDALBACpXN0O/VdtBZgFZkEOvguA8y6P9USs1bH+EOtftgTMArPAKwDk8MlYvy7d94gDZoFZIABIpr4ZyGeDAbNAAJCw/selu174lbYDzAKzQACQx/tiPVpcLxzMArNAAJBO/SjQ90t3gZC1tgPMArNAAJDH9bF+FmuLrQCzwCwQAOTzcDv4q2wFmAVmgQAgjxtjPV26zwdfbjvALDALBAC5PBTrLtsAZoFZIADI5WOxdsXaUbrLhgJmgVkgAEjimtK9I3iTrQCzwCwQAOT7t7PLNoBZYBYIAHJZiHXQNoBZYBYIAHLZV7zsB5gFAoB0B/4B2wBmgVkgAHDgAbMAAYADD5gFCAAceMAsQADgwANmAQIABx4wCxAAOPCAWYAAwIEHzAIEAA48YBYgAHDgAbMAAYADD5gFCAAceMAsQADgwANmAQIABx4wCwQADjxgFiAAcOABswABgAMPmAUIABx4wCxAAODAA2YBAgAHHjALEAA48IBZgADAgQfMAgQADjxgFiAAcOABswABgAMPmAUIABx4wCxAAODAA2YBAsCBd+ABswAB4MADZgEIAAceMAtAADjwgFmAAMCBB8wCBAAOPGAWMN8WbcHwjEYjBx4wC/AKAAAgAAAAAQAACAAAQAAAgAAAAAQAACAAAAABAAAIAABAAAAAAgAA6BFfBjQD4/F4MuvbMBqNFtwTgJnkFQAAQAAAAAIAABAAAIAAAAAEAAAgAAAAAQAACAAAQAAAAAIAABAAAIAAAAAEAAAgAAAAAQAACAAAEAAAgAAAAAQAACAAAAABAAAIAABAAAAAAgAAEAAAgAAAAAQAACAAAAABAAAIAABAAAAAAgAAEAAAIAAAAAEAAAgAAEAAAAACAAAQAACAAAAABAAAIAAAAAEAAAgAAEAAAAACAAAQAADApVm0BczKgW0bF/xefi+/F3gFAAAQAACAAAAABAAAIAAAAAEAAAgAAEAAANAZj8er7YIAINehX2MXgHCFLRAA5LLWFgDBkwEBQDLrbAFgFggA8rnJFgBmgQAgn1tsARA+bwsEALncZguA8EVbIADIZd14PPbSHyQWM2BD8R4AAUBKm20BpLbFFggAput0T27H1ngGsMrdASmf/dezv9VMFABM17me3I71sTa5OyClTW0GmIkCgCla7tFt+Z67A1J6ske35ZS7QwAIgOn79Hg89ndASKSd+Zt7dJNec68IgCxO9Oz27I6B4NLAkOPBv571XWYiAmA2jvXs9tSB8Et3C6RQz/qHenabjrtbBEAWR3t4mzbHM4MH3TUw18/+6xnv48d/l9w7AiCLvv5jr38KcFUwmM8H/3q2d5uJCIDZOtLT27U61vMxKHxPAMzXg38908+3M95Hf3MvCYAs6jte+/qmlytiHYyB8SV3E8zNM/+D7Wz3UZ2FJ91TAiCTwz2+bXVQ/NF7AmDwD/71DP+5xw/+fZ+Fc23RFszModLva/HXlwqfigFSvzVw+2g0cqEOGM4D/5rSvdt/CNf4OOQe8wpANi8O5HbWAfJqDJSt7jIYxIN/PauvluF80c+L7jWvAGRTrwVQP/s6hK/i/HCs38VgeTR+/mA0Gj3n7oPePfDXa/vXy/t+dkA3+3jp33VRBABT8Wysxwd0e+tgORCDpr5pp0bAn2K9FEHgizxg+g/49dv86pt17yjdF/tcO9AZyIwsTCYTuzD9g/u/D6h/HfivU98b8FJbteSXIwhecS/Dis+NOi/qVTvXtwf+utYM/Nf6XKz/zIuYG+5krwCkUv/h1wtgbBjw71AH0D1tvTlwAC5k6fyDP7PhTYCz9xtbAJh9CIB89sc6YxuARM602YcASK1eFXCvbQAS2dtmHwIgvZ/GOmsbgATOtpmHAKB0n4X1chiQwf428xAAND+K5fP0wDw759m/AOCtjhbvigXmW51xS7ZBAPBWO2Mt2wZgDi23GYcA4AIHZIdtAObQDk9wBABvr75E5vuxgXlyuPgTpwDgotxfumvsAwzdqTbTEABchGMODDAnHii+8lcAcEleiLXHNgADVmfYc7ZBAHDpvl18WxYwTEfaDEMA8H+ol8y8q3TXCAAYijqz7iwucS4AeEdOxPpy8cUZwDC81mbWCVshAFi5mvbJAKDPTrVZ5VVLAcAKerl0fw44bSuAHjrdZtTLtkIAsPIOxbo91klbAfTIyTabDtkKAcC7p34q4AvF52qBfjjWZpJPLAkApqD+fe3W4qU2YPZPSG4t/uYvAJiq8y+57bMVwAzsb8/8/UlSADADZ0p3mc26vDkQmIbTbebc32YQAoAZqq8CfKZ4Aw7w7jrcZs0+WyEA6I/6RpzbY20vrhcArKxTbbZ4A7IAoMd+FesT7ec52wG8A+feNFMQAPTccqv1jaV7qc71uIFLfeDf12bI9jZTEAAMyFLp3qxT671+Lac37ABv50ybFde12bFkSwQAw1a/lOORdqgfKy7YAbzRK202XNdmhS/ySWDRFqRSv6XrF21tiLU11pZY620NpFPfzPdM6T7P75m+ACCReuB3tlUD4I5Yt8W6Jda1tgfmTn1W/5fSfZTvheLd/ALAFtAGwZ62qrWxboh1c/tZ17r2v61q/x3olyPlv5/8OV66y/Mebf+9/vRGPt5gYTKZ2AUASMabAAFAAAAAAgAAEAAAgAAAAAQAACAAAAABAAAIAABAAAAAAgAAEAAAgAAAAAQAACAAAAABAAAIAABAAACAAAAABAAAIAAAAAEAAAgAAEAAAAACAAAQAACAAAAABAAAIAAAAAEAAAgAAEAAAAACAAAQAACAAAAAAQAACAAAQAAAAAIAABAAAIAAAAAEAAAgAAAAAQAACAAAQAAAAAIAABAAAIAAAAAEAAAgAAAAAQAAAgAAEAAAgAAAAAQAACAAAAABAAAIAABAAAAAAgAAEAAAgAAAAAQAACAAAAABAAAIAABAAAAAAgAABAAAIAAAAAEAAAgAAEAAAAACAAAQAACAAAAABAAAIAAAAAEAAAgAAEAAAAACAAAQAACAAAAABAAAIAAAQAAAAAIAABAAAIAAAAAEAAAwFP8WYAARF9eyN/FhzAAAAABJRU5ErkJggg==;" vertex="1" parent="GbpzfajvycvOcoFSvj6P-9">
          <mxGeometry x="16.119999999999997" y="17.428571428571423" width="128" height="128" as="geometry" />
        </mxCell>
        <mxCell id="Yowsr8ln7lWeVKN-Ewds-3" value="" style="shape=image;verticalLabelPosition=bottom;labelBackgroundColor=#ffffff;verticalAlign=top;aspect=fixed;imageAspect=0;image=data:image/png,iVBORw0KGgoAAAANSUhEUgAAAgAAAAIACAYAAAD0eNT6AAAABGdBTUEAAK/INwWK6QAAABl0RVh0U29mdHdhcmUAQWRvYmUgSW1hZ2VSZWFkeXHJZTwAAAvaSURBVHja7N1PiFV1H8fxM2r5ByXCzH8ZLdpNVtLGCIJCSQiCREixvJaNWKkUUZFZlBRmmmX/KAayIYRaNG6MQIIWgUUQpjAtahGRlVEiaVREevv+uHcRWuTknLn3nN/rBV/aPA+P9/N0Oe/uTDM9zWazAADyMsYEACAAAAABAAAIAABAAAAAAgAAEAAAgAAAAAQAACAAAAABAAAIAABAAAAAAgAAEAAAgAAAAAQAACAAAEAAAAACAAAQAACAAAAABAAAIAAAAAEAAAgAAEAAAAACAAAQAACAAAAABAAAIAAAAAEAAAgAAEAAAIAAAAAEAAAgAAAAAQAACAAAQAAAAAIAABAAAIAAAAAEAAAgAAAAAQAACAAAQAAAAAIAABAAAIAAAAABAAAIAABAAAAAAgAAEAAAgAAAAAQAACAAAAABAAAIAABAAAAAAgAAEAAAgAAAAAQAACAAAAABAAACAAAQAACAAAAABAAAIAAAAAEAAAgAAEAAAAACAAAQAACAAAAABAAAIAAAAAEAAAgAAEAAAAACAAAEgAkAQAAAAAIAABAAAIAAAAAEAAAgAAAAAQAACAAAQAAAAAIAABAAAIAAAAAEAAAgAAAAAQAACAAAQAAAgAAAAAQAACAAAAABAAAIAABAAAAAAgAAEAAAgAAAAAQAACAAAAABAAAIAABAAAAAAgAAEAAAgAAAAAEAAAgAAEAAAAACAAAQAACAAAAABAAAIAAAAAEAAAgAAEAAAAACAAAQAACAAAAABAAAIAAAAAEAAAIAABAAAIAAAAAEAAAgAAAAAQAACAAAQAAAAAIAABAAAIAAAAAEAAAgAAAAAQAACAAAQAAAAAIAAAQAACAAAAABAAAIAABAAAAAAgAAEAAAgAAAAAQAACAAAAABAAAIAABAAAAAAgAAEAAAgAAAAAQAAAgAEwCAAAAABAAAIAAAAAEAAAgAAEAAAAACAAAQAACAAAAABAAAIAAAAAEAAAgAAEAAAAACAAAQAACAAAAAAQAACAAAQAAAAAIAABAAAIAAAAAEAAAgAAAAAQAACAAAQAAAAAIAABAAAIAAAAAEAAAgAAAAAQAAAgAAEAAAgAAAAAQAACAAAAABAAAIAABAAAAAAgAAEAAAQPnGmQCATljcPzQt/vJjt/x5Bvt6fQIAAKPg0bgpZhAAAORladwqMwgAAPKSvgSwNe7luDnmEAAA5CN9L9rdcStMMfrDA0CnrYubEPdq3Lfm8AkAAHmYHrcxbn1cjzkEAAB5Wd6OgPGmEAAA5GN23PNxz7Y/FUAAAJCR2+NuM4MAACAvk+I2xG2Pu9gcAgCAfJwfd1/calOMPP8aIADdrhF3LK4/7qg5fAIAQB4uitsStynuPHMIAADysqxofXMgAgCAjEyN2xz3UuEbAwUAAFlJPy74nqL1fQGcBd8ECEAVrWn/Q+xrcYfN4RMAAPIwK+7xuAfjzjWHAAAgL0uL1q8T9jwTAABkZGbcc0XrGwNnmePMZfk9AAMDA8P5j8+Nu7r91xlxUzrwR06/GrMZdzzuUNz+uI8bjcYX8VrGxF9P2tnOdrZzHXY+C6vivi5aPy+AM/kbpNlsCoDTTYxbW7R+/OSlXfoyTsQdjNsR92Z6o8cbumlnO9vZzlXZeXH/0Ej/b/8UtzPuxbhvhvtfHuzrzepZ6EsAp1sZ92XcM138Jk7Gxs1r/81+IG6Rne1sZzvXfOf/ckHcA0XrewIQAGcs/XjJ99pvjNkV+nOnj/kui9sd/4TSH9djZzvb2c4123m4bo27v+jMl14EQMWkr9F9WPEaHl+0fkTmnngzn2NnO9vZzjXZ+f9IvztgW9zTReunByIA/tHkuL1F65t1qi59vHdD3Dt2trOd7VyDnc/W8rgVHnMC4N/srMmb+O9v5gVR89vsbGc727niO5+t9CWa9BsEXyj87gABcIob45bU8HWl70ZeFm/meXa2s53tXNGdR0r6tGZd3B0e+QLg7zbX+LVNj3vMzna2s50ruvNIuzPukbhpHv0C4JaiXh/hnSp9pDc/av4aO9vZznau2M5lSP+WxpNxG+MmefwLgLpLX/+62c52trOdK7ZzmdLvDljt8Z9vAKTfHLUwg9eZvqZ3nZ3tbGc7V2jnsl0Ytz3ulbg5AiA/6SO8yZm81qkDAwMz7WxnO9u5IjuPhvSDj9YUrR8YJAAyc0VGr3VCXK+d7WxnO1dk59GMgHvjnipaPzhIAGRibEavtaeDr9fOdraznbtZ+nLAhrj1AiAfV2X0WtPX8660s53tbOeK7NwJ6ScGPiEAACAvs9qfBAgAAMjI8bjrc3vR4/z/DkDmD/8FcZ/4BCAPn2b0Wn+L+8zOdraznSuys4e/ACjViYxea7ODr9fOdraznT38BUBXOZjRa/09bsjOdraznSuys4e/ACj9jfxLJq/1SKPR+N7OdraznSuys4e/ACjVH3HvZ/A609fxPrCzne1s5wrt7OEvAEr3dgav8ee4QTvb2c52rtjOHv4CoPQ3cp2/xpW+gWdfo9HYZ2c729nOFdvZw18AlCp9l+vDNX59h+M22dnOdrZzBXf28BcApdsTt7uGr+vXuF1R8QfsbGc727miO3v4C4DSa35l3Oc1ek3pI7y98SZ+yM52trOdK7yzh78AKN2xuIU1eTOnN/G7cUvsbGc727kGO3v4l8jvAmj5Lu7auLfaf9NUUfrBHW9Ewd9lZzvb2c412tnD3ycApTsStyiuL+6HCv25Txatn9l9U0XexHa2s53t7OHvE4Cukz4Ke71o/as+a+NWx13SpX/WP+P2x+2IN/AuO9vZznau+c4e/gJgVMo4/Y20JW5r3OVx8+Pmxs2Im9jBP9vRuEPtN/BH8Qb+ys52trOdM9rZw38E9TSbTSsAMOoW9w+NxANoxB7+g329We3vewAA8E/+GRIAAHj4CwAA8PAXAADg4S8AAMDDXwAAgIe/AAAAD38BAAAe/gIAADz8BQAAePgLAADw8BcAAHj4IwAA8PBHAADg4Y8AAMDDHwEAgIc/AgAAD38EAADdw8O/g3qazaYVAMAnAACAAAAABAAAIAAAAAEAAAgAAEAAAAACAAAQAACAAAAABAAAIAAAAAEAAAgAAEAAAAACAAAEgAkAQAAAAAIAABAAAIAAAAAEAAAgAAAAAQAACAAAQAAAAAIAABAAAIAAAAAEAAAgAAAAAQAACAAAQAAAgAAAAAQAACAAAAABAAAIAABAAAAAAgAAEAAAgAAAAAQAACAAAAABAAAIAABAAAAAAgAAEAAAgAAAAAEAAAgAAEAAAAACAAAQAACAAAAABAAAIAAAAAEAAAgAAEAAAAACAAAQAACAAAAABAAAIAAAAAEAAAIAABAAAIAAAAAEAAAgAAAAAQAACAAAQAAAAAIAABAAAIAAAAAEAAAgAAAAAQAACAAAQAAAAAIAAAQAACAAAAABAAAIAABAAAAAAgAAEAAAgAAAAAQAACAAAAABAAAIAABAAAAAAgAAEAAAgAAAAAQAAAgAEwCAAAAABAAAIAAAAAEAAAgAAEAAAAACAAAQAACAAAAABAAAIAAAAAEAAAgAAEAAAAACAAAQAACAAAAAAQAACAAAQAAAAAIAABAAAIAAAAAEAAAgAAAAAQAACAAAQAAAAAIAABAAAIAAAAAEAAAgAAAAAQAAAgAAEAAAgAAAAAQAACAAAAABAAAIAABAAAAAAgAAEAAAgAAAAAQAACAAAAABAAAIAABAAAAAAgAABAAAIAAAAAEAAAgAAEAAAAACAAAQAACAAAAABAAAIAAAAAEAAAgAAEAAAAACAAAQAACAAAAABAAACAAAQAAAAAIAABAAAIAAAAAEAAAgAAAAAQAACAAAQAAAAAIAABAAAIAAAAAEAAAgAAAAAQAACAAAEAAmAAABAAAIAABAAAAAAgAAEAAAgAAAAAQAACAAAAABAAAIAABAAAAAAgAAEAAAgAAAAAQAACAAAAABAAACAAAQAACAAAAABAAAIAAAAAEAAAgAAEAAAAACAAAQAACAAAAABAAAIAAAgOH7S4ABAKZ3dvQY6YuvAAAAAElFTkSuQmCC;rotation=90;" vertex="1" parent="GbpzfajvycvOcoFSvj6P-9">
          <mxGeometry x="16.119999999999987" y="119.99977443609018" width="128" height="128" as="geometry" />
        </mxCell>
        <mxCell id="Yowsr8ln7lWeVKN-Ewds-15" value="" style="shape=image;verticalLabelPosition=bottom;labelBackgroundColor=#ffffff;verticalAlign=top;aspect=fixed;imageAspect=0;image=data:image/png,iVBORw0KGgoAAAANSUhEUgAAAgAAAAIACAYAAAD0eNT6AAAABGdBTUEAAK/INwWK6QAAABl0RVh0U29mdHdhcmUAQWRvYmUgSW1hZ2VSZWFkeXHJZTwAAA3WSURBVHja7N1vyJ1lHcDx67SnlWRNpmFlTRfS+kMhFIFCKEEvQksW0nA5T75I5BFTCsPh6k0U/aFYbKwMBjstDd8kSpHMV4NBIAmD3vjAYDAYDKSHFovBYJ1+V/c1SmWy5eM5931+nw9cDOrNea7j9Tvf5zz3uc9oOp0WACCXt9kCABAAAIAAAAAEAAAgAAAAAQAACAAAQAAAAAIAABAAAIAAAAAEAAAgAAAAAQAACAAAQAAAAAIAABAAACAAAAABAAAIAABAAAAAAgAAEAAAgAAAAAQAACAAAAABAAAIAABAAAAAAgAAEAAAgAAAAAQAACAAAEAAAAACAAAQAACAAAAABAAAIAAAAAEAAAgAAEAAAAACAAAQAACAAAAABAAAIAAAAAEAAAgAAEAAAIAAAAAEAAAgAAAAAQAACAAAQAAAAAIAABAAAIAAAAAEAAAgAAAAAQAACAAAQAAAAAIAABAAAIAAAAABAAAIAABAAAAAAgAAEAAAgAAAAAQAACAAAAABAAAIAABAAAAAAgAAEAAAgAAAAAQAACAAAAABAAACwBYAgAAAAAQAACAAAAABAAAIAABAAAAAAgAAEAAAgAAAAAQAACAAAAABAAAIAABAAAAAAgAAEAAAgAAAAAEAAAgAAEAAAAACAAAQAACAAAAABAAAIAAAAAEAAAgAAEAAAAACAAAQAACAAAAABAAAIAAAAAEAAAIAABAAAIAAAAAEAAAgAAAAAQAACAAAQAAAAAIAABAAAIAAAAAEAAAgAAAAAQAACAAAQAAAAAIAAAQAACAAAAABAAAIAABAAAAAAgAAEAAAgAAAAAQAACAAAAABAAAIAABAAAAAAgAAEAAAgAAAAAQAAAgAAEAAAAACAABYOEu2gHn51/JoOtf63Tcd+bn8XIv6c4F3AAAAAQAACAAAEAAAgAAAAAQAACAAAAABAAAIAABAAAAAAgAAEAAAgAAAAAQAACAAAAABAAAIAABAAAAAAgAAEAAAIAAAAAEAAAgAAEAAAAACAAAQAACAAAAABAAAIAAAAAEAAAgAAEAAAAACAAAQAACAAAAABAAAIAAAQAAAAAIAABAAAIAAAAAEAAAgAAAAAQAACAAAQAAAAAIAABAAAIAAAAAEAAAgAAAAAQAACAAAQAAAgAAAAAQAACAAAAABAAAIAABggJZswfBMJpOr45+/9eGxjMdjTwiYBWaBdwCYka/ZAsAsQADksxzrbs8fmAVmAQIgly2xnoq1M9a7bAeYBWYBAiBf/X/JNoBZYBYgAHL5QKyfx3os1jW2A8wCswABkMf7Y/0w1l22AswCs4BL5WOAi+ORWOdiPR3rn7YDzAKzAO8ALL5R6S4G2h/rm55XMAvMAgRAPt+I9VXbAGaBWYAAyGVzrCdi7Yq10XaAWWAWIADyeE+s7xQfCwKzwCzgIlwEuLje3cq//vvbWH+3JWAWmAV4ByCHG2PtifV1WwFmgVmAAMjngVjbbAOYBWYBAiCX+rGgJ2N9t3RvAwJmgVkgAEhiXawHY91hK8AsMAsQALlcG+vHsR6NdbXtALPALBAA5PGhWD8pbhACZoFZIABIZxrroVj3xHqH7QCzwCwQAORQ7xf+sVgHY30r1tttCZgFZoEAIJf7Y33FNoBZYBYIAHK5IdbeWI8XFwOBWWAWCABSuaYd+i/bCjALzIIcfBcAF1wR67FY62P9LtY/bAmYBWaBdwDI4SOxflW67xEHzAKzQACQTL0YyGeDAbNAAJCw/ielu1/4VbYDzAKzQACQxztjPVzcLxzMArNAAJBO/SjQ90t3g5CNtgPMArNAAJDHDbF+Fmu7rQCzwCwQAOTzYDv462wFmAVmgQAgj4/GerJ0nw++wnaAWWAWCAByeSDWnbYBzAKzQACQywdj7Y61s3S3DQXMArNAAJDEtaW7InirrQCzwCwQAOT7b2e3bQCzwCwQAOQyinXINoBZYBYIAHI5ULztB5gFAoB0B/4+2wBmgVkgAHDgAbMAAYADD5gFCAAceMAsQADgwANmAQIABx4wCxAAOPCAWYAAwIEHzAIEAA48YBYgAHDgAbMAAYADD5gFCAAceMAsQADgwANmAQIABx4wCwQADjxgFiAAcOABswABgAMPmAUIABx4wCxAAODAA2YBAgAHHjALEAA48IBZgADAgQfMAgQADjxgFiAAcOABswABgAMPmAUIABx4wCxAAODAA2YBAsCBd+ABswAB4MADZgEIAAceMAtAADjwgFmAAMCBB8wCBAAOPGAWsNiWbMHwjMdjBx4wC/AOAAAgAAAAAQAACAAAQAAAgAAAAAQAACAAAAABAAAIAABAAAAAAgAA6BFfBjQHk8lkOu/HMB6PR54JwEzyDgAAIAAAAAEAAAgAAEAAAAACAAAQAACAAAAABAAAIAAAAAEAAAgAAEAAAAACAAAQAACAAAAABAAACAAAQAAAAAIAABAAAIAAAAAEAAAgAAAAAQAACAAAQAAAAAIAABAAAIAAAAAEAAAgAAAAAQAACAAAEAAAgAAAAAQAACAAAAABAAAIAABAAAAAAgAAEAAAgAAAAAQAACAAAAABAAAIAADg8izZAuZWn/umIz+Xn8vPBd4BAAAEAAAgAAAAAQAACAAAQAAAAAIAABAAAHQmk8l6uyAAyHXoN9gFIFxpCwQAuWy0BUDwy4AAIJlNtgAwCwQA+XzcFgBmgQAgn5ttARA+awsEALncaguA8HlbIADIZdNkMvHWHyQWM2BLcQ2AACClbbYAUttuCwQAs3WmJ49jR/wGsM7TASl/+69nf4eZKACYrfM9eRybY231dEBKW9sMMBMFADO02qPH8j1PB6T0eI8ey2lPhwAQALP3yclk4u+AkEg78zf16CG94lkRAFmc7Nnj2RMDwa2BIceLfz3ru81EBMB8HO/Z46kDYZ+nBVKoZ/29PXtMJzwtAiCLYz18TNviN4P7PTWw0L/91zPex4//rnh2BEAWff2Pvf4pwF3BYDFf/OvZ3mMmIgDm62hPH9f6WM/GoPA9AbBYL/71TD/bzngf/dWzJACyqFe89vWilytjHYqB8QVPEyzMb/6H2tnuozoLT3mmBEAmR3r82Oqg+INrAmDwL/71DP+pxy/+fZ+FC23JFszN4dLve/HXtwqfiAFSvzVweTweu1EHDOeFf0PprvYfwj0+DnvGvAOQzfMDeZx1gLwcA2WHpwwG8eJfz+rLZThf9PO8Z807ANnUewHUz74O4as43xfrNzFYHo5/fzAej5/x9EHvXvjrvf3r7X0/PaCHfaL0774oAoCZeDrWowN6vHWw/D4GTb1op0bAH2O9EEHgizxg9i/49dv86sW6t5fui32uG+gMZE5G0+nULsz+4P7vC+pfBv7j1GsDXmirlvxqBMFLnmVY87lR50W9a+fm9sJf14aB/1ififWfeRFzw5PsHYBU6n/49QYYWwb8M9QBdFdbrw0cgItZufDiz3y4CHD+fm0LALMPAZDPwVhnbQOQyNk2+xAAqdW7Au63DUAi+9vsQwCk99NY52wDkMC5NvMQAJTus7DeDgMyONhmHgKA5kexfJ4eWGTn/fYvAHi9Y8VVscBiqzNuxTYIAF5vV6xV2wAsoNU24xAAXOSA7LQNwALa6RccAcAbq2+R+X5sYJEcKf7EKQC4JPeW7h77AEN3us00BACX4LgDAyyI+4qv/BUAXJbnYu21DcCA1Rn2jG0QAFy+bxfflgUM09E2wxAA/B/qLTPvLN09AgCGos6sO4pbnAsA3pSTsb5YfHEGMAyvtJl10lYIANaupn0yAOiz021WeddSALCGXizdnwPO2Aqgh860GfWirRAArL3DsW6LdcpWAD1yqs2mw7ZCAPDWqZ8K+FzxuVqgH463meQTSwKAGah/X7uleKsNmP8vJLcUf/MXAMzUhbfcDtgKYA4Ott/8/UlSADAHZ0t3m826XBwIzMKZNnPubTMIAcAc1XcBPlVcgAO8tY60WXPAVggA+qNeiHNbrOXifgHA2jrdZosLkAUAPfbLWB9u/563HcCbcP41MwUBQM+ttlr/ROneqnM/buByX/gPtBmy3GYKAoABWSndxTq13uvXcrpgB3gjZ9usuL7NjhVbIgAYtvqlHA+1Q/1IccMO4NVearPh+jYrfJFPAku2IJX6LV2/aGtLrB2xtsfabGsgnXox31Ol+zy/3/QFAInUA7+rrRoAt8e6NdbNsa6zPbBw6m/1fy7dR/meK67mFwC2gDYI9rZVbYx1Y6yb2r91bWr/37r2vwP9crT895M/J0p3e95j7X+v/7qQj1cZTadTuwAAybgIEAAEAAAgAAAAAQAACAAAQAAAAAIAABAAAIAAAAAEAAAgAAAAAQAACAAAQAAAAAIAABAAAIAAAAAEAAAIAABAAAAAAgAAEAAAgAAAAAQAACAAAAABAAAIAABAAAAAAgAAEAAAgAAAAAQAACAAAAABAAAIAAAQAACAAAAABAAAIAAAAAEAAAgAAEAAAAACAAAQAACAAAAABAAAIAAAAAEAAAgAAEAAAAACAAAQAAAgAAAAAQAACAAAQAAAAAIAABAAAIAAAAAEAAAgAAAAAQAACAAAQAAAAAIAABAAAIAAAAAEAAAgAABAAAAAAgAAEAAAgAAAAAQAACAAAAABAAAIAABAAAAAAgAAEAAAgAAAAAQAACAAAAABAAAIAABAAAAAAgAABAAAIAAAAAEAAAgAAEAAAABD8W8BBgBDx9kWx0auLgAAAABJRU5ErkJggg==;" vertex="1" parent="GbpzfajvycvOcoFSvj6P-9">
          <mxGeometry x="16" y="472" width="128" height="128" as="geometry" />
        </mxCell>
        <mxCell id="Yowsr8ln7lWeVKN-Ewds-16" value="" style="shape=image;verticalLabelPosition=bottom;labelBackgroundColor=#ffffff;verticalAlign=top;aspect=fixed;imageAspect=0;image=data:image/png,iVBORw0KGgoAAAANSUhEUgAAAgAAAAIACAYAAAD0eNT6AAAABGdBTUEAAK/INwWK6QAAABl0RVh0U29mdHdhcmUAQWRvYmUgSW1hZ2VSZWFkeXHJZTwAAAvTSURBVHja7N1LqFV1H8fhtdUukl1QIe0CBtKFspImRhAESkJlCFJYwdaBHku7EFRKl0FBYVkkBZZReqgTOSgnRiBBg8SahCnUoAY1kC6DQxe7Yenq92/vgWDpObbXOXut//PA720SvO4v72Z93n0utsqyLACAvEwwAQAIAABAAAAAAgAAEAAAgAAAAAQAACAAAAABAAAIAABAAAAAAgAAEAAAgAAAAAQAACAAAAABAAAIAAAQAACAAAAABAAAIAAAAAEAAAgAAEAAAAACAAAQAACAAAAABAAAIAAAAAEAAAgAAEAAAAACAAAQAAAgAAAAAQAACAAAQAAAAAIAABAAAIAAAAAEAAAgAAAAAQAACAAAQAAAAAIAABAAAIAAAAAEAAAgAABAAAAAAgAAEAAAgAAAAAQAACAAAAABAAAIAABAAAAAAgAAEAAAgAAAAAQAACAAAAABAAAIAABAAACAAAAABAAAIAAAAAEAAAgAAEAAAAACAAAQAACAAAAABAAAIAAAAAEAAAgAAEAAAAACAAAQAACAAAAAAWACABAAAIAAAAAEAAAgAAAAAQAACAAAQAAAAAIAABAAAIAAAAAEAAAgAAAAAQAACAAAQAAAAAIAABAAACAAAAABAAAIAABAAAAAAgAAEAAAgAAAAAQAACAAAAABAAAIAABAAAAAAgAAEAAAgAAAAAQAACAAAEAAAAACAAAQAACAAAAABAAAIAAAAAEAAAgAAEAAAAACAAAQAACAAAAABAAAIAAAAAEAAAgAAEAAAIAAAAAEAAAgAAAAAQAACAAAQAAAAAIAABAAAIAAAAAEAAAgAAAAAQAACAAAQAAAAAIAABAAAIAAAAABAAAIAABAAAAAAgAAEAAAgAAAAAQAACAAAAABAAAIAABAAAAAAgAAEAAAgAAAAAQAACAAAAABAAACwAQAIAAAAAEAAAgAAEAAAAACAAAQAACAAAAABAAAIAAAAAEAAAgAAEAAAAACAAAQAACAAAAABAAAIAAAQAAAAAIAABAAAIAAAAAEAAAgAAAAAQAACAAAQAAAAAIAABAAAIAAAAAEAAAgAAAAAQAACAAAQAAAgAAAAAQAACAAAAABAAAIAABAAAAAAgAAEAAAgAAAAAQAACAAAIAKTDIBAD23a/Px/52hgWnxn8N98efdVPoEAADGyO0mEAAA5OeuuKWeRQIAgLxcFPdm3Lq408whAADI75OAm8wgAADIyzlxz8WtjZtuDgEAQD5mxj0Zt8QUY8OPAQLQT+6LOxi3Le5Xc/gEAIDmaxWdbwx8Ne4ezygBAEB+VsTdYgYBAEBeLoh7Oe6RuKnmEAAA5OOMuAcLPyJYCd8ECEA/O737KUD65xtxP5rEJwAA5GF23Atxy0whAADIz6q4W80gAADIS/oRwaG4R4vOlwQQAABkYmLc6rgbTSEAAMjL2XHr4x6Im2YOAQBAPs6Pe7rwy4IEAADZKePujrsj7hRzjE6WvwdgcHBwNP/6nLiru/+cUYzPN560uv9DPxC3P25P3MftdvuLeC0T4p+H7WxnO9u5CTufwGu8JO717icCG+L+9Ggf4XhlWQqAo02OWxO3suj8/Gk/OhS3L25j93/8ZbyhSzvb2c527oudd20+/r8zNNDL/+6v49YWnb9FcPQ25fcs9CWAoy2L+7LofG1pdh//OdN3ws6N2xK3N26hne1sZzs3fOdjmRX3YtzDhW8MFACjdGbce903xrk1+nOnj8Aui9se/w/llbiWne1sZzs3bOeRmt4NgEUeaQJgpNLX6D6seQ2nb4BZHrcj3swn2dnOdrZzQ3YerfSlmPSlgIGi85cJIQD+05S4nUXnm3XqLn28d33c23a2s53t3ICdT9SFcS/FrfCIEwDHsqUhb+Ij38zzo+Y32NnOdrZzzXf+v9I3ZPo9AQLgX90Qt6SBryt9BLY03sxz7WxnO9u5pjv36pOA9OMb6e8OOMsjXwAc6akGv7b0qzIfs7Od7Wznmu7cK6fG3Vv4uwMEwBHSXyk5p8GvL32kNy9q/ho729nOdq7Zzr2Wfizwibj746Z69AuAHP5O6fQjSovtbGc727lmO1dhVtyzcbd59OcdACfHLcjgdaav6V1nZzvb2c412rlqq7sRMFEA5Cl9hDclk9c6bXBwcKad7WxnO9dk56pdHDdUdH5XwGQBkJ8rMnqt6RtgLrWzne1s55rsPFZWxd0sAPKT00c/rXF8vXa2s53t3K/Oi3s+bl3R+RXCAiATV2X0WtNHXFfa2c52tnNNdh5L6cce008HLC4y5DcBApCzCd1PAgQAAGQkfbljpwAAgLxsLXwJICufZPRaf4/71M52trOda7LzWD/8l+daPrkGwKGMXms5jq/Xzna2s509/AVAX9mX0Wv9I+4zO9vZznauyc4e/gKg8jfyL5m81uF2u/2tne1sZzvXZGcPfwFQqYNx72fwOtPX8T6ws53tbOca7ezhLwAqty2D1/hT3Dt2trOd7VyznT38BUDlb+Qmf40rfQPP7na7vdvOdraznWu2s4e/AKhU+i7XdQ1+fd/FPW5nO9vZzjXc2cNfAFRuR9z2Br6u3+KGouL32tnOdrZzTXf28BcAldf8srjPG/Sa0kd4O+NN/JCd7WxnO9d4Zw9/AVC5n+MWNOTNnN7E78YtsbOd7WznBuzs4V+hSSb4xzdx18a9FTe/pq8h/eKOrVHwd9rZzna2c4N29vD3CUDlhuMWxq2I+75Gf+7DRed3di+qyZvYzna2s509/H0C0HfSR2GvFZ0f9VkTtzJuVp/+Wf+K2xO3Md7AQ3a2s53t3PCdPfwFwJiU8YG49XHPxF0eNy9uTtyMuMnj+Gf7IW5/9w38UbyBv7Kzne1s54x29vDvoVZZllYAoLd2bT7+vzM00IsHUG8e/pvyexb6HgAA/D//DAkAADz8BQAAePgLAADw8BcAAODhLwAAwMNfAACAh78AAAAPfwEAAB7+AgAAPPwFAAB4+AsAADz8EQAAePgjAADw8EcAAODhjwAAwMMfAQCAhz9Ha5VlaQUA8AkAACAAAAABAAAIAABAAAAAAgAAEAAAgAAAAAQAACAAAAABAAAIAABAAAAAAgAAEAAAgAAAAAFgAgAQAACAAAAABAAAIAAAAAEAAAgAAEAAAAACAAAQAACAAAAABAAAIAAAAAEAAAgAAEAAAAACAAAQAAAgAAAAAQAACAAAQAAAAAIAABAAAIAAAAAEAAAgAAAAAQAACAAAQAAAAAIAABAAAIAAAAAEAAAgAABAAAAAAgAAEAAAgAAAAAQAACAAAAABAAAIAABAAAAAAgAAEAAAgAAAAAQAACAAAAABAAAIAABAAACAAAAABAAAIAAAAAEAAAgAAEAAAAACAAAQAACAAAAABAAAIAAAAAEAAAgAAEAAAAACAAAQAACAAAAAAQAACAAAQAAAAAIAABAAAIAAAAAEAAAgAAAAAQAACAAAQAAAAAIAABAAAIAAAAAEAAAgAAAAAQAAAsAEACAAAAABAAAIAABAAAAAAgAAEAAAgAAAAAQAACAAAAABAAAIAABAAAAAAgAAEAAAgAAAAAQAACAAAEAAAAACAAAQAACAAAAABAAAIAAAAAEAAAgAAEAAAAACAAAQAACAAAAABAAAIAAAAAEAAAgAAEAAAIAAAAAEAAAgAAAAAQAACAAAQAAAAAIAABAAAIAAAAAEAAAgAAAAAQAACAAAQAAAAAIAABAAAIAAAAABAAAIAABAAAAAAgAAEAAAgAAAAAQAACAAAAABAAAIAABAAAAAAgAAEAAAgAAAAAQAACAAAAABAAACAAAQAACAAAAABAAAIAAAAAEAAAgAAEAAAAACAAAQAACAAAAABAAAIAAAAAEAAAgAAEAAAAACAAAEgAkAQAAAAAIAABAAAIAAAAAEAAAgAAAAAQAACAAAQAAAAAIAABAAAIAAAAAEAAAgAAAAAQAACAAAQAAAgAAAAAQAACAAAAABAAAIAABAAAAAAgAAEAAAgAAAAAQAACAAAAABAAAIAABAAAAAI/C3AAMAvQJVZb6TxBEAAAAASUVORK5CYII=;rotation=-90;" vertex="1" parent="GbpzfajvycvOcoFSvj6P-9">
          <mxGeometry x="16" y="368.88" width="128" height="128" as="geometry" />
        </mxCell>
        <mxCell id="GbpzfajvycvOcoFSvj6P-10" value="" style="group" parent="1" vertex="1" connectable="0">
          <mxGeometry x="40" y="790" width="160" height="150" as="geometry" />
        </mxCell>
        <mxCell id="GbpzfajvycvOcoFSvj6P-11" value="" style="rounded=1;labelPosition=center;verticalLabelPosition=top;align=center;verticalAlign=bottom;fontFamily=Tahoma;fontSize=20;labelBorderColor=none;whiteSpace=wrap;html=1;horizontal=1;fontStyle=1;fontColor=#888;strokeColor=#888;fillColor=none;strokeWidth=2;" parent="GbpzfajvycvOcoFSvj6P-10" vertex="1">
          <mxGeometry width="160" height="150" as="geometry" />
        </mxCell>
        <mxCell id="Yowsr8ln7lWeVKN-Ewds-1" value="" style="shape=image;verticalLabelPosition=bottom;labelBackgroundColor=#ffffff;verticalAlign=top;aspect=fixed;imageAspect=0;image=data:image/png,iVBORw0KGgoAAAANSUhEUgAAAgAAAAIACAYAAAD0eNT6AAAABGdBTUEAAK/INwWK6QAAABl0RVh0U29mdHdhcmUAQWRvYmUgSW1hZ2VSZWFkeXHJZTwAACEySURBVHja7N0PrF5lnSfw5/aWane7aaZjmY7VYtlqZ+hiuqlhg8FgyGIwJRAIBoML1cXi0sDiwkBgIRqIbllcWB1IGUF2WrsSyZASiI2Ebsg2kiEhNtPYhaWmS8c61Y7VbprtTLV6e/f38D6NFSnce973vu953+fzSX65DtPe9/R3znme7/nznjM2OTmZAIC6zNICABAAAAABAAAQAAAAAQAAEAAAAAEAABAAAAABAAAQAAAAAQAAEAAAAAEAAOjObC1gUC5/9OWp/tHzoy6KuiBqPGpl+Xmyiaid5efzUc9GbZ/KL9+ydoX+Vda/afQuuzBqddR5J/XvjY5GvRJ1LGpb1DNRO0Z5+0MAgJkyN+r6qNujFk7hz+eBeVX53+eUv3cw6t6oh8sArX/6N1Xzom6NuiFqwRT7faJ/50Z9IWpf6d8jJVhBq7gEQBtdEvVq1P1TnLxOZWH5Ha+W36l/+jcVn456rUziC7r4PUuiNkS9XM4igAAAb2F91NNl8OyVJeV3rtc//XsLc8qE/ZddBqc3Wh713XI2AQQAeBPfTp1TzzPl9vIZ+qd/bzb5fyd1LpvMhHyJ5cFSIADASb4UdWUfPufK8ln6p38ny0f+/ThNf4MzAQgA8FuXRd3Zx8+7s3ym/unfiUn52j5+3ldT5xsFIABQtXzqdRCnRR8sn61/dfcv3+R3d58/88TlgHG7PwIANbspavEAPndx+Wz9q7t/d6bu7vRvKj9L4Eq7PwIAtcpHQLcO8PNvHfKjWP3rzolnJQzK7YYABABqlZ9Ot3CAn58/+0L9q7Z/l5QQMChnp95+XRMEAIZqArMM+jfIADBoVxkGEACo0SrLoH8DdG4LluEcwwACADVaZhn0b0Dy/RNtOP2+1DCAAECN5lsG/Rvgcrfha3gLDAMIANRojmXQvwGZZ/dDAAAABAAAQAAAAAQAAEAAAAAEAABAAAAABAAAQAAAAAQAAEAAAAAEAABAAAAABAAAQAAAAAQAAEAAAAAEAAAQAAAAAQAAEAAAAAEAABAAAAABAAAQAAAAAQAAEAAAAAEAABAAAAABAAAQAAAAAQAAEAAAAAEAABAAAEAAAAAEAABAAAAABAAAQAAAAAQAAKDVZmsBtbv80Zc1Qf/AGQCACpzWkuVYYlUgAAD0z29ashwHrAoGZWxyclIXAMAZAABAAAAABAAAQAAAAAQAAEAAAAAEAABAAAAABAAAQAAAAAQAAEAAAAAEAABAAAAABAAAQAAAAAFACwBAAAAAKjBbC3ijTZs2zY8fy6JWlZ+5lpz0R1ZGjesUtMZE1M6T/u99UXtK7Sg/D7f5H7BmzRprUQBgABP+0vixOuq8qHPfMNkD7TdeAvsJq97kz+RQ8GLUC1Fbo/ZqmwBAnZN+Pqq/OuqqcoQPjLYlpa6MerAEgM1Rj0ft1h4BgNGe9BeUCf+qcqQP1Cuf+ftCqZdKGHgi6qDWCACMzsS/OH7cHnVt1FwdAd7gnFL3RT0WdW/Ufm0RABjeiX9pmfg/HTVHR4C3kQ8Qboi6LmpjCQLuFRAAGKKJf178uDvqpuRufWD65pQQkM8afi3qi1FHtGW0eA7A6E3++QafV6NuNvkDXRovY0keU67UDmcAaOfEn+/u/UbUhboB9Fi+j+jb5azAZ1LnK4U4A0ALJv9L4scPTP7ADLugjDWXaIUzAAx24s/X6danzik6gH7ITwp9OuqBqDuijmmJMwD0d/JfFD/+p8kfGJA89nwvapFWCAD0b/JfWnY8D/MBBik/O+CvU+ehQggAzPDkv7LscB7fC7TB0jImrdQKAYCZm/zPS065Ae2zqIxN52mFAMDMHPl/J2qebgAtNK+MUc4ECAD0cPLPp/ufS527bwHaan4Zq1yiFADoweS/MH58N2qhbgBDwJglANCDyT9/z/9paRoYMnnMypcDvIRMAKCh/GpOX/UDhlH+iuD92iAAMP2j//yozZt0Ahhi+dXCHhssADCNyT9/r/YvdQIYAXks86AgAYBp7DALtAEYAQsc0AgATO3oP79u83ydAEZIHtOu0wYBgFNP/jkpr9cJYAStT85sCgCc0pfsIMCIWlDGOAQA3nD0n2+ScYoMGGV5jPNcEwGAN7gzalwbgBGWx7jbtUEA4LdH/0vix9U6AVQgj3VLtEEAoOPm5JGZQB3mlDEPAaD6o//8wgzX/oGa5DHPy4IEgOrl02FztQGoyNzksqcAgKN/wNhH/83WgsHZtGnTqvixfMj/GYejtpXaG3UoaueaNWsmrGHo2ViR755fmTrfpc9fGb6w1Pwh/mflsS+PgTusYQGgRlcM6XLvj3oqamue+E32MLPKPnbyRPlICQU5BKyOuixq8ZCOgQLAgIxNTk7qwuBS/WtpuN6StSvq3hiMHrf2oHXjyVWp8x37s4dosfNZwzNLyLESBYBqdtb8PdgfDcniHoy6LXbQjdYctH5syTfX3Z+G5y77M6L2CQD95ybAwVk9JMv5ZNT7Tf4wHGJf3Zz32bLvGgs5JfcADE7bX/l7LOqWGEwesqpg6EJAvjn3E5s2bbqhnA1o84PG8lj4sLXmDEBNzmvxsh2JutjkD0MfBPI+fHHZp42FCACDVp7+19Y7dvNA8bEYOLZZUzASISDvyx9rcQjIY+Eia0oAqEVb79LNp/0vjQHjRasIRioE5H360rKPGxMRAAborJYu140xUDxv9cBIhoC8b9/Y0sVbbg0JALVY1sJleiIGiEesGhjpEJD38SeMiQgAg9O2h//kx/eus1qgCnlfP2hMRAAYjLbdAJhP/R+yWqCKswB5X/+8MREBYDAWtGhZdnm0L1QXAvI+v7NFi7TQWhEABID+u8fqgCp9uUXLMt/qEABqMd6S5cgv4njK6oAqPVXGAGOiAEAfzWvJcjzuVb5Qp7LvbzYmCgDU6QktgKo9qQUCAPXJr9/cpQ1Q9VmAPAbs0wkBgLps1wLAWCAAUJ+XtAAwFggA1GePFgDGAgEAOz1gLEAAoAIHtQAIB7RAAKAia9asOawLQIwFR3RBAAAABAAAQAAAAAQAAEAAAAAEAABAAAAAWmV2k790+aMvN/28uVFnDVuTtqxdscOm0nvH142N7DYD4ZWoo297FLZhUqdmQMxTq4ZwsfNTGRs/oyXmqpkPAFO0IOqiqCuilg/5ID5md+qbvN1cG7U66nztYATkt+1tjXos6pB29M33h3jZ95YA+UypGXla40xcAlgYtSHqZ1HfirrMERxTdGvUa1H3mfwZIeeXbfq1so3D21laDoK+HvXTMpcubXsAODGAXx81bh0yRfk0/1+VQXK+djCi5pdt/K/KNg9TdVXUq2X7mdO2AJA35u+UhZtnXTFN30idS0VQgyvKNg/TMaccZH8vdc60tyIA5IV6LnVOV8B0XVfSLdR2RHedNtDAOSUEdH22tBcBIF+jOM86oYF8tuhubaBSdydnTGkm31ifLyV1dam92wBwQ9SnrQsauiRqkTZQqUVlH4AmLoz60qACwOKo9dYBXXDqH/sANHdz1LJBBID8wU5f0Y2VWoB9ABrL9+A1vozaNADkid8NLHRroRZQOZfA6NaVUUv6GQAucfRPj9Ir1MzzUujFNtToUlLTAHCBngNAK1zYzwBwtn4DQCs0upekaQBYpt8A0Ar5JWrTvizfzU2AAEA7TPvJgE0DgJu3AKA9pn1D6Sw9A4D6CAAAIAAAAALAqR3VOgBojWP9CgCH9BoAWuNwvwLAHr0GgFbYlxqcmW8aAF7UbwBohUZzctMA8Lx+A0ArbOt3ANin53TpsBZgH4CuHIl6sp8BYCLqa/pOlw5oAfYB6MpDTYPkrC4/1M2AdMOlJGq3XQvoQv5G3r1N/3I3ASB/5/Cz5WwANLFVC6jcM1pAFz6furiM1O2TAHN6vdE6oKFno3ZqA5XaWfYBaOIrUZu7+QW9eBTww1EPWBc0kM8e3ZKcRaLObf822z4NPRF1R7e/pFfvAsiDeL4ccMx6YZqeLwMh1CRv89u0gQa+GPXJXoTHXr4M6LGoj0btsH6YpgdKmnU0RA1H/nckZ02Zvt1RF0fd06tf2Ou3AeanEX2opBNBgOnId7J+OHnKJKPrxbKN36sVTHPi/1zUitTjG6dnz9ACP1FqcdRlUWdHLY+aZ13yFl4qA+S5UavLz/nawhA7XCb+rcJt3w3rQWi+lL4ram+ZR/fO1Ac1CgBb1q6Y6h/dnzrPC4DfM2vD5FsdKRksgcZinvqQLrzNGKwFACAAAAACAAAgAAAAAgAAIAAAAAIAACAAAAACAAAgAAAAAgAAIAAAAAIAACAAAAACAAAgAAAAAgAAIAAAgAAAAAgAAIAAAAAIAACAAAAACAAAgAAAALTJbC0YPr+K1faO9Juufsflj77cs+XZsnaFlQIgADDTfjjx7vSn4/tj5U1oBlSsV0H+0jnd/f3/O/lP0x+M/YMVMmRcAhhC+ycWpB9NvEsjgIHLk/9f//oDGiEA0A/5EsDLE+9JP/jNknR0co6GAAOd/H+TxjVDAKBfJtNY2nv89PTj43+oGYDJn2lzD8CQey1CwETkuKWzDqZ3jh3TEMDkjzMANfjV5GnphxN//HoQADD5IwBU5sfHF6TXJv4oHU9jmgGY/BEAavHLyTlp18R70/+KymcFAEz+CAAV2TfxLjcGAiZ/3pabAEdMviEw3xPwy3Ra+uez/j7NdWMgYPLHGYA6/Dp21P8z8Ufpb48v1AzA5I8zALXJlwLy44LfN34wneaxwYDJH2cA6pCfEvjKxHvS/55Y/PpZAQCTPwJARfK7A/Z5dwBg8kcAqMuxNDu9MrE4/WDCuwMAkz8CQFWOx6reO3F62ucrgoDJn+QmwOr87euPDH79aYGLog7oCGDydwaACvxy8rT06sS78/+8Lcr1AOAck78AQF0+GbXONgB1T/5R/8PkX6dGlwAuf/Tlqf7R86MuirogKm9hK8vPobJl7YpRfMPOH0f916gPRH0p6if9XoDj6960rXn7uCTqiqjlw7rNQEqvP3xjZ9TuqCejnin/7XePwjZMDnTyj/pno9j8mKcmh3Cxj5TtJf98PuqpqF1TnKf6EwDextyo66Nuj/Iouva7NupHUf+5BcuSJ/xvloEJhl0OrqtKXRX1UtQ1ZYBvxZH/qE7+Q2xe2V5OHEDfHbUn6p6ozb3+sF6f/s1Hbq9G3W/yHxr5PoA/i7ov6r0DXI6bo/7G5M8IO6ds4zeb/JmGZeXA6G9OCgetCwDro56OWmJ9DZ38lKBbU+eegEFYX0LjXKuCETe3bOvrTf5MU74c+r2oq9sWAL6dOqf8GW7/JuqWPg8OV9h2qFDe5i8z+dMgQH6zV2NmLwJAvoHsSutlJLwn6r9E3RvVjycG5csPX9V2KnVf6t9XcU3+o2V9OXgaaADICfZO62LkfCp1blbqx9H/Yu2mUsv6dBbA5D+a8pmAswcVAHJyfdA6GEnzU+eu0z9PM3tPx2qtpnKXmPxp6MT9JAMJADc5ehtp+esoN0b92xn8jFXaTOXONfnThQtL9TUA5O+33qr3Vfhs6lzmmYmvdS7SXio3UwdRJv96NL4M3zQAXJR8z7+mASrf6HlX1D/p8e+er71UbiZuAjT51yU/MKjRpdpuAgB1ye8OuE4boNVM/nVqdBmgaQBw7bY++T3CD0RtSIN9YiBg8qcHc3LTALBMv6uU397z71LngUGAyZ92WN7kLzV9GZBrt3WHgM+nzrcEHo76Oy0Bkz8DNa+fZwDm6HfV8uWA/xj177UCTP4MXKP3qMzSN7qQnxh4tzZA/13+6MsfMfnTDQGAbry7nAkA+u95kz8CAIPy/6Iu0AYYiP8U9RNtoN8B4JjWmfyj/nXqvJ8a6LMta1d8MX58SycIR/sZAA7rt8k/6iWtgIH683Im4GdaUbUj/QwAe/Tb5K8VMHD5a7j5WfBfjZrUjmrt7mcA2KnfJn+gNf571F8IAdXa0c8AsFW/Tf5Aa/w4al3UzcnlgBpt62cAyB92UM9N/l1yLwm1O9Lj3/dI1Le1tSrbo/b1MwDkbwE8oO8m/y4d0F4qt7/Hv+8f029f371fe6twb9O/2M1zAB6wgZn8u7RDi6ncTOwD+ezsl6O+ob0jL5+Nf3YQASCfBbhR/03+XXAvCbWbyX3gv0U9mHp/mYF2yN/9v6WbX9DtkwCfKkkTk38TTyZfKaVee8s+MFPydeH8wq4vJPfbjKJronYNMgBk+VrTE9aFyb+BY2X7gRrdkfrzVNVvJk8MHMVtp+vw2Kt3AXwydXEjAlVO/ifk8OiGUmrzQB8PnH4RdXvUn6XOg4MYXjkwfqZX820vXwaUE8knUsOvI1Dl5H/CbeVMgHdMUMMAflfZ5vu9f9+fOg8MYjjlB/DlV0Bv7NUv7PXbAPMpiT8pG7fnBJj8p2oide4l+WDyoCFGV962/2XZ1icGtAwbor4S9XOrY2jk+6SuKdtOT8fH2TOwsEfLBpbr/KiLUueVseNRq6xLk/9byM+z/nDUZVFXRC2zzTDk8tf88s1++XT/UwOc+E/4cTlAy5cF7omaYxW1Sp4/X0mdb248X7aZXTP1YY0CwJa1K6b6R7eXwuT/e2ZtmDzV2YAn08zeHQ212xx1RtT1o/oPjHlqzGp+mzFYC0z+WgHV+UnUDVH/Ieqn2iEAUInZnbOQJn+o2/HUuSfAuwMEAGqZ/D982g+TyR9InW8l3Pcn4z9J7xz7tW4IAIz65P8HY/+gGcAJB5ZHAHjfLG8RFgAw+QPVWTLrF2np+M9iUjiuGQIAJn+gFnPHjqUPju9LZ43vT3PSbzREAMDkD1R1JmD852nx+CGNqGJ+wOQPUJwW48afju9Pc9OxtPf46enopGcFOQOAyR+oJgS8f/xAeu+sX2iGMwCY/IHavG/WwRhNZqV9E+9Kv379ae44A4DJHxh5+cbAfzH+4/SB8Z/G9O/bAQIAJn+gKvlSQL45EAEAkz9QkXeM/fr1MwFnR71z7JiGCACY/IF6JovJdOb436f3zvIVwdGZOzD5A0zRmbN+lsYiDPzo+LvSryZP0xBnADD5AzXIlwDycwLO9O4AAQCTP1CffGPg0nI2AAEAkz9QidffHTB7X1ox/nfpHd4dMKRzCUPH5A+0xRnjP0//GBEAAYA+6MXkv2XtCo0EejCJTKQPjP9EIwQAAPqlV0F+06bvd/X3XQIYTu4BAAABAAAQAAAAAQAAEAAAAAEAABAAAAABAAAQAAAAAQAAEAAAAAEAABAAAAABAAAQAAAAAQAAEAAAAAEAAAQAAEAAAAAEAABAAAAABAAAQAAAANpsdpO/dPmjL0/1jy6PujLq7KilUfOjlg1bk7asXTFmU+m94+tO2daLolZHnTus2wyEPVGHo16M2hr17JsehW2Y1KkZEPPUMDZ2X9TBqP1Ru8p28+I05qqZDwBvYzzq01G3G7iZpguj7otaqRWMgBPj36qoG6J2Rt0WtU1rOIUlpfI2c0nUnVEHoh6IeijqaC8/rNeXAPIA/oOob5j8maYcGJ8z+TPCVpZt/HatYBoWlQOjV6OuamsA+FLZuM+yvpimL0St1wYqsb5s8zDdswPfKgfYc9oUAPIC3Wn90EC+3n+3NlCZu8u2D9N1bdTTvQgBvQgAt5YFgunK94t8VRuo1P1lH4AmB05dj53dBoB8p7ZTt3SzES/XBip1lrMAdOH6qOsGFQDmRX1dgqULV2kB9gFoLB+ALxhEAMhfa1ms/3ThXC3APgCN5cm/8f13TQNAPuq/Se/p0iItoHIOoujW9U3PAjQNABcZvOmBuVpA5eZoAT0YR6/oZwC4UM8BoBVW9zMArNJvAGiFRnNy0wDgq1sA0A75XpJpX1JtGgDm6zcAtMa05+WmAcCNKwDQHtOel2fpGQDURwAAAAEAABAATu2Y1gFAa0z0KwAc1msAaI1pz8tNA8AevQaAVjgQdaRfAWCnfgNAK+xo8peaBoBn9RsAWmF7PwPAtqhDek6XjmoB9gHoSr757/F+BoC80T6i73RpvxZgH4CubG66HXXzHICvOAtAl17SAuwD0Fj+Sv5dTf9yNwEgT/636D9d2KoF2AegsS+nLs4idfskwI1RD1kHNPRUcgqUeu0v+wA08UwJAI314lHAn0++FUAz+V6Su7SBSt2V3ARIM/mr+J9KDZ7+1+sAkBfgYmcCaGhjckMp9XmsbPswXU9GfSQ1ePDPTASAEyHgxqjPJjcGMn1523lCG6hE3tbXaQPTlCf8L0Z9oheTfy8DwMmp9syoe3u1gFQh38n6yRIgD2gHI+pA2cY/mbxQjemNjw9HvT/qnl7+4pl4HXB+IcEdUX+YOpcG8undHc4MMMUAmTfyz6XO3dEHtYQhd7Bsy58r2/ZjWsIUjvTznJlP9V9e5tJ1M3FwNLvJX9qydsVUU8vW5GsunCp9bpg81cb/SHJfANCFmKfGdKH/ZwAAAAEAABAAAAABAAAQAAAAAQAAEAAAAAEAgO5s2rRpji4IANS108/XBSDM0wIBgLos0AIgOBgQAKjMEi0AjAUCAPU5SwsAY4EAQH3O1QIgnKMFAgB1OV8LgHCBFggA1GXJpk2bnPqDisUYsDy5B0AAoEpXagFU7SotEADoryMtWY6r4whg3OqAKo/+875/tTFRAKC/JlqyHEujLrM6oEqXlTHAmCgA0EeHWrQsX7A6oEp3tmhZDlsdAoAA0H9nb9q0yXVAqEjZ51e2aJEOWisCQC32t2x5HowBwaOBoY7JP+/rXzUmIgAMxt6WLU8eEDZYLVCFvK8vbNky7bNaBIBa7GnhMl0ZRwbXWTUw0kf/eR9v49d/d1s7AkAt2rqx50sBngoGozn55337QWMiAsBg7Wzpcs2JejoGCu8JgNGa/PM+/XTZx9tol7UkANQi3/Ha1pte5kU9FwPGhVYTjMyR/3Nl326jPBYesKYEgJq80OJlywPFd9wTAEM/+ed9+LstnvzbPhaOtNlaMDDbU7ufxZ9PFX49BpD81sB1a9as8aAOGJ6Jf37q3O0/DM/42G6NOQNQm2eHZDnzAPJqDChXW2UwFJN/3ldfTcPzop9nrTVnAGqTnwWQv/s6DK/iXBT1zRhYboqfX16zZs1TVh+0buLPz/bPj/ddNUSLvS+177koAgB98UTUrUO0vHlg2RIDTb5pJ4eArVHbIhB4kQf0f8LPb/PLN+uuTp0X+ywe0jGQARmbnJzUhf7vuCdPqN8f8n9OvjdgW6mc5A9FINhhLUPPx408XuSndi4tE3+u+UP+z/pQ1OvjRYwbVrIzAFXJG35+AMbyIf435AHoilJvDDgAp7L7xOTPYLgJcPAe0QLA2IcAUJ/NUUe1AajI0TL2IQBULT8V8DFtACryWBn7EACq95WoY9oAVOBYGfMQAEid78I6HQbUYHMZ8xAAKO6N8n16YJRNOPoXAPh9e5K7YoHRlse43dogAPD77oo6pA3ACDpUxjgEAE6xg9yhDcAIusMBjgDAW8unyLwfGxglLySXOAUApuSa1HnGPsCwO1zGNAQApmCvHQYYEZ9JXvkrADAtz0Q9pA3AEMtj2FPaIAAwfbckb8sChtPOMoYhANBAfmTmpanzjACAYZHHrIuTR5wLAHRlf9THkxdnAMPhYBmz9muFAEDv0rRvBgBtdriMVc5aCgD00EupczngiFYALXSkjFEvaYUAQO9tj/po1AGtAFrkQBmbtmuFAMDMyd8K+EjyvVqgHfaWMck3lgQA+iBfX/twcqoNGPwByYeTa/4CAH114pTbRq0ABmBzOfJ3SVIAYACOps5jNnO5ORDohyNlzLmmjEEIAAxQPgvwweQGHGBmvVDGmo1aIQDQHvlGnI9GrUueFwD01uEytrgBWQCgxR6OOrP8nNAOoAsTbxhTEABouUMlra9InVN1nscNTHfi31jGkHVlTEEAYIjsTp2bdXJ6z6/ldMMO8FaOlrHijDJ27NYSAYDhll/KcWPZqT+fPLAD+F07ythwRhkrvMinArO1oCr5LV1fK7U86uqoq6KWag1UJ9/M93jqfJ/fkb4AQEXyDn9XqRwAVkedH3Vu1GLtgZGTj+pfTJ2v8j2T3M0vAGgBZSB4qFS2IGpZ1MryM9eS8v8bL/8daJed6bff/NmXOo/n3VP+e/7pRj5+x9jk5KQuAEBl3AQIAAIAACAAAAACAAAgAAAAAgAAIAAAAAIAACAAAAACAAAgAAAAAgAAIAAAAAIAACAAAAACAAAgAAAAAgAACAAAQCVmawGDcvmjL0+2YTm2rF0xpn919S96tyR+/KgFi7Iv+neG0QBnAAAAAQAAEAAAAAEAABAAAAABAAAQAAAAAQAABAAAQAAAAAQAAEAAAAAEAABAAAAABAAAQAAAAAQAAEAAAAAEAABAAAAABAAAQAAAAAQAAEAAAAAEAAAQALQAAAQAAEAAAAAEAABAAAAABAAAQAAAAAQAAEAAAAAEAABAAAAABAAAQAAAAAQAAEAAAAAEAABAAAAABAAAEAAAAAEAaLcJy9DYEZsPAgDUPQgP80Rw2DIM/Xo/bBhAAKBGBy1DV/ZahsaORe3XPwQAGIydlkH/Kl/2XYYBBABq9JJl6MrzlqErz1oGBAAYjKcsQ1eeSYO9ln2kLMOwejIN9ibGfAniRcMAAgA12h21fYCfv70sw7DKE/BjA/z8x9Jw30R5oISAQXkoDe+3KBAAoGtfrvSze+UrA5qEj5TPHnb3pM4NgYM4+n/I7o8AQM22RW0dwOduLZ897PJEctcAPveu1I676Lv1yoCCzC3JswgQACB9JvX361D7ymeOiq9Fbezj520snzkq8lmAF/r4eY9EPWG3RwCAznfxL+3TEVH+jIvTcH///818rk+T2Avls0ZJvgRweerPV/LyTZPr7PIIAPBbu/oQAo6UzxjF717nSexjaWa/VvZs+YxjI9i/HAg/mmb2rvzNUZ9IbvxDAIDfk79T/q/SzNyZv7v87udHuH9Hoz4edUePg9SR8js/Xj5jVB0qIeDeHoecw+Wo/5oRDU8IANAT+aasD6bOTVKHejT43lJ+5yuV9DBPYO+PerjLo82J8jveX35nDY6VsJP/zRt7EMjyDYZnlD6CAABTGIQfiDoz6rbU7FkBL5S/e0b5XbUdeR0oR52nR30qdR54NJUzK7vLn/1U+bvryu+qzYkbRU8vP/O1+6ncqJovLz2eOvcUnF62QS/8oZVmawEtdrgcQeVaFHV21NKo+VHL3vBn95Q/v7cMwge073WHyoT0+En/7a36x+86WM4EnHw2YGHUkjcJTr7Wx1AZm5yc1AUAqIxLAAAgAAAAAgAAIAAAAAIAACAAAAACAAAgAAAAAgAAIAAAAAIAADCj/r8AAwBWtoo4oZQIYAAAAABJRU5ErkJggg==;" vertex="1" parent="GbpzfajvycvOcoFSvj6P-10">
          <mxGeometry x="16" y="10.999999999999986" width="128" height="128" as="geometry" />
        </mxCell>
        <mxCell id="GbpzfajvycvOcoFSvj6P-17" style="edgeStyle=orthogonalEdgeStyle;rounded=0;orthogonalLoop=1;jettySize=auto;html=1;startArrow=none;startFill=0;endArrow=block;endFill=1;strokeColor=#888888;strokeWidth=5;" parent="1" edge="1">
          <mxGeometry relative="1" as="geometry">
            <mxPoint x="200" y="368" as="sourcePoint" />
            <mxPoint x="340" y="205" as="targetPoint" />
            <Array as="points">
              <mxPoint x="310" y="368" />
              <mxPoint x="310" y="205" />
            </Array>
          </mxGeometry>
        </mxCell>
        <mxCell id="GbpzfajvycvOcoFSvj6P-18" value="" style="group" parent="1" vertex="1" connectable="0">
          <mxGeometry x="340" y="360" width="400" height="150" as="geometry" />
        </mxCell>
        <mxCell id="GbpzfajvycvOcoFSvj6P-19" value="" style="rounded=1;labelPosition=center;verticalLabelPosition=top;align=center;verticalAlign=bottom;fontFamily=Tahoma;fontSize=20;labelBorderColor=none;whiteSpace=wrap;html=1;horizontal=1;fontStyle=1;fontColor=#888;strokeColor=#888;fillColor=none;strokeWidth=2;" parent="GbpzfajvycvOcoFSvj6P-18" vertex="1">
          <mxGeometry width="400" height="150" as="geometry" />
        </mxCell>
        <mxCell id="GbpzfajvycvOcoFSvj6P-20" value="" style="shape=image;verticalLabelPosition=bottom;labelBackgroundColor=#ffffff;verticalAlign=top;aspect=fixed;imageAspect=0;image=data:image/png,iVBORw0KGgoAAAANSUhEUgAAAgAAAAIACAYAAAD0eNT6AAAABGdBTUEAAK/INwWK6QAAABl0RVh0U29mdHdhcmUAQWRvYmUgSW1hZ2VSZWFkeXHJZTwAABkGSURBVHja7N1/qJX3fQfw53pFkEkEQ8glgo3FEEjQOBwlhqQtRcVMTSezuAXSazrqHyGlpaWhtqFjo61tQspKpWV2rd4GssjcXNLYiIaxNKGGMFvrJaFSWVzAYAgRTA2CcD37fHe+odbO1HvOuc+P87xe8OGkqbn38fOc5/t9n+95fox0Op0CAGiXWVoAAAIAACAAAAACAAAgAAAAAgAAIAAAAAIAACAAAAACAAAgAAAAAgAAIAAAAP2ZrQVUZWJiYjp/fE7UsqjbokajVlz2/x+Jmoo6GjUZdeFqf/D4+Lj+6Z/+IQBAjYxEbc61KmreVf5356IORe3JpX/6p39wGV8BUNeBd0P+JPXPUX8xjcG3yH92Y9STUcei1umf/ukfCADU2zVR/xr1dNStA/h5S6OeifqXaQ7i+qd/+ocAACW5Iepw/vQ0aJuifh41pn/6p38gAFAf1xbd701vmcHfkT6NHYyar3/6p38IAFC9dFb1kzM8+F46CD+pf/qnfwgAUP178P6ie5Z1WdZGbdE//dM/BACozp9Efa2C35t+51z90z/9QwCAat5/D0ZdX8HvXph/t/7pn/4hAEAF77+tFf7+rfqnf/qHAADlS7dWvbHC37+k6J6UpX/6p38IAFCi22uwDSv1T//0DwEAyrXUNuif/oEAQPuM2Qb90z8QAGifubZB//QPBAAAQAAAAAQAAEAAAAAEAABAAAAABAAAQAAAAAEAABAAAAABAAAQAAAAAQAAEAAAAAEAABAAAAABAAAQAAAAAQAAEAAAAAEAABAAAAABAAAQAAAAAQAAEAAAQAAAAAQAAEAAAAAEAABAAAAABAAAQAAAAAQAAEAAAAAEAABAAAAABAAAQAAAAAQAAEAAAAAEAABAAAAAAQAAaIuRTqejCwBgBQAAEAAAAAEAABAAAAABAAAQAAAAAQAAEAAAAAEAABAAAAABAAAQAAAAAQAAEAAAAAEAABAAAEAA0AIAEAAAgBaYrQVcbmJiYn68LIlakV9TLbrkjyyPGtUpqI2pqKOX/O/Xo07kOpJfz9b5LzA+Pm4vCgBUMOEvjpd1UXdGrbxssgfqbzQH9ves+H/+TAoFh6NejNof9Zq2CQC0c9JPn+rvi7o3f8IHhtuiXJujvpsDwONRT0Qd1x4BgOGe9BfkCf/e/EkfaK+08vfVXC/nMLAn6i2tEQAYnol/Ybx8KepvoubqCHCZD+V6JOqHUd+MOqUtAgDNnfgX54l/S9QcHQH+iPQB4cGorVG7cxBwroAAQIMm/nnx8ndRny2crQ9M35wcAtKq4Xei/jbqnLYMF/cBGL7JP53g8+uoz5v8gT6N5rEkjSmbtcMKAPWc+NPZvf8UtVo3gAFL5xE9mVcF7i+6lxRiBYAaTP73xMsxkz8wwz6Wx5p7tMIKANVO/Ol7uu1Fd4kOoAzpTqFPRX07alvUBS2xAkC5k/9YvPynyR+oSBp7Xoga0woBgPIm/8X5wHMzH6BK6d4BPy+6NxVCAGCGJ//l+YBz+16gDhbnMWm5VggAzNzkf2dhyQ2on7E8Nt2pFQIAM/PJ/5moeboB1NC8PEZZCRAAGODkn5b7Dxbds28B6mp+Hqt8RSkAMIDJ/7p4eTbqOt0AGsCYJQAwgMk/Xef/lDQNNEwas9LXAR5CJgDQo/RoTpf6AU2ULhF8TBsEAKb/6T/davOzOgE0WHq0sNsGCwBMY/JP19Xu0glgCKSxzI2CBACmccAs0AZgCCzwgUYA4Oo+/afHbX5EJ4Ahksa0rdogAHDlyT8l5e06AQyh7YWVTQGAK/qaAwQYUgvyGIcAwGWf/tNJMpbIgGGWxjj3NREAuMxXoka1ARhiaYz7kjYIAPzu0/+ieLlPJ4AWSGPdIm0QAOj6fOGWmUA7zMljHgJA6z/9pwdm+O4faJM05nlYkADQemk5bK42AC0yt/C1pwCAT/+AsY/yzdaC6kxMTKyIl5sb/tc4G3Uo12tRZ6KOjo+PT9nDMLCxIp09v7zoXkufLhlenWt+g/9aaexLY+ARe1gAaKNNDd3uU1H7ovanid9kDzMrH2OXTpQ7cyhIIWBd1MaohQ0dAwWAiox0Oh1dqC7V/3fRrKdkTUZ9MwajJ+w9qN14cm/RvcZ+aYM2O60afjCHHDtRAGjNwZqug/2fhmzuW1EPxQG6256D2o8t6eS6x4rmnGX/gajXBYDyOQmwOusasp17o24y+UMzxLH6eDpm87FrLOSKnANQnbo/8vdC1BdiMNlhV0HjQkA6OfcTExMTD+bVgDrfaCyNhd+316wAtMmdNd62c1HrTf7Q+CCQjuH1+Zg2FiIAVC3f/a+uZ+ymgWJNDByH7CkYihCQjuU1NQ4BaSwcs6cEgLao61m6adn/4zFgHLaLYKhCQDqmP56PcWMiAkCFbqnpdn0mBor/sHtgKENAOrY/U9PNu9keEgDaYkkNt2lPDBA77RoY6hCQjvE9xkQEgOrU7eY/6fa9D9gt0ArpWH/LmIgAUI26nQCYlv7P2C3QilWAdKx/zpiIAFCNBTXalkm39oXWhYB0zB+t0SZdZ68IAAJA+f7e7oBW+nqNtmW+3SEAtMVoTbYjPYhjn90BrbQvjwHGRAGAEs2ryXY84VG+0E752H/cmCgA0E57tABaba8WCAC0T3r85qQ2QKtXAdIY8LpOCAC0y/NaABgLBADa52UtAIwFAgDtc0ILAGOBAICDHjAWIADQAm9pARBOa4EAQIuMj4+f1QUgxoJzuiAAAAACAAAgAAAAAgAAIAAAAAIAACAAAAACAABQrdm9/EcTExPT+eNLo1bm17GouQ3rUWd8fHyDt0o5Lj4wMhov90Rtiro5annUqM7QQFNRR6OOR+2NenrW9zpT2lKOmKeejZeRhm32+aJ7Z8b0mOaXoo6lYTHX+4p5qpwAcBXSJP9g1NaoJU2fkxxKpU3+acL/cdSHdIMhkILrilz3Rr0c7/FPRgg4rjWlWFM0f5X7ZNTOqB1R7w56PpqJ5myJ+k3UI0Mw+VPe5P/5ePmlyZ8hlt7bv8zvdbgaN0Z9I8+pnyoGvBo6yAAwPyotueyKWmi/MY3JP4XFx4rmfT0E05Xe44/l9zxcreujfhB1IOraugWA9N3+C1Fr7SemOflvjpcv6gQt88X83ofpWBX1s6gb6hIA5kUdLLon+cF0Jv85+ZM/tNHX8jEA03FL1KGoa+oQAHaZ/OlROtPf10W01ZJ8DEAvIWB30edVDv0GgHXewPT5/gHHAEzfxqj1VQaA7fYBfVihBbTcSi2gzzm451WAfgJAOoHF0j/9GNMCWs5XYPTj1jwXVxIAoB/ztYCWcxIg/So9AKQ37Wp9B4BKreo1SPYaANLS/zx9B4BKpbl4WZkB4DY9B4BaKDUAeDobANRDT3NyrwHA5VsAUA89zcmz9A0A2kcAAAABAAAQAK7siNYBQC30NCf3GgCm9BsAaqGnObnXAHBMvwGgFn5VdgA4p+cAUKk0F0+WGQAuRD2n7wBQqUN5Ti4tACR79B0AKtXzXNxvAHhF7wGgEpNVBYBO1Db9B4BK9DUH93sjoGei9tkHAFCqvVH7qwwAaRVgS9Sr9gUAlCIt/d/f7w8ZxK2A34laLQQAQCmT/5piAJfiD+pZAG9EfbhwaSAAzJQDUXdFnR7EDxvkw4Dejlob9emoN+0nABiIU0V3yf/uqLOD+qGDfhpguh/xj6Juivpy1En7DQB6ciLqoTyn7h70D589Axt8Meq3Ud+KejRqWdTtUUujxqLmNmwHdLwHARrnp1EjDdvm80V3eT99z3+46PEWv1UGgEuDQKpf5AKAsmzQgvc3SwsAQAAAAAQAAEAAAAAEAABAAAAABAAAQAAAAAQAAEAAAAAEAABAAAAABAAAQAAAAAQAAEAAAAAEAABAAAAAAQAAEAAAAAEAABAAAAABAAAQAAAAAQAAEAAAAAEAABAAAAABAAAQAAAAAQAAEAAAAAEAABAAAAABAAAEAABAAAAABAAAQAAAAAQAAEAAAAAEAABAAAAABAAAQAAAAGbe7BJ+x9Kolfl1LGpuw3rUidrgrQLQKM9GjTRsm89HnY6ajHop6ljUxVyNCQBpkn8wamvUkoa/iS46jgAaZ03R/FXuk1E7o3ZEvTvo+WgmmrMl6jdRjwzB5A8AVbkx6ht5Tv1U1GhdA8D8orvksitqof0GAANxfdQPog5EXVu3AJC+238haq39BAAzYlXUz6JuqEsAmBd1sOie5AcAzJxbog5FXVOHALDL5A8ApYaA3UWfVzn0GwDWRW2yLwCgVBuj1lcZALbbBwBQie39rAL0EwA2F5b+AaAqt+a5uJIAAABUp/QAMCdqtb4DQKVW5Tm5tACQlv7n6TsAVCrNxcvKDAC36TkA1EKpAWBUvwGgFnqak3sNACv0GwBqoac5eZa+AUD7CAAAIAAAAALAlR3ROgCohZ7m5F4DwJR+A0At9DQn9xoAjuk3ANTCr8oOAOf0HAAqlebiyTIDwIWo5/QdACp1KM/JpQWAZI++A0Clep6L+w0Ar+g9AFRisqoA0Inapv8AUIm+5uB+bwT0TNQ++wAASrU3an+VASCtAmyJetW+AIBSpKX/+/v9IYO4FfA7UauFAAAoZfJfUwzgUvxBPQvgjagPFy4NBICZciDqrqjTg/hhg3wY0NtRa6M+HfWm/QQAA3Gq6C753x11dlA/dNBPA0z3I/5R1E1RX446ab8BQE9ORD2U59Tdg/7hs2dggy9G/TbqW1GPRi2Luj1qadRY1NyG7YCO9yBA4/w0aqRh23y+6C7vp+/5Dxc93uK3ygBwaRBI9YtcAFCWDVrw/mZpAQAIAACAAAAACAAAgAAAAAgAAIAAAAAIAACAAAAACAAAgAAAAAgAAIAAAAAIAACAAAAACAAAgAAAAAgAACAAAAACAAAgAAAAAgAAIAAAAAIAACAAAAACAAAgAAAAAgAAIAAAAAIAACAAAAACAAAgAAAAAgAAIAAAgAAAAAgAAIAAAAAIAACAAAAACAAAgAAAAAgAAIAAAAAIAADAzJtdwu9YGrUyv45FzW1YjzpRG7xVABrl2aiRhm3z+ajTUZNRL0Udi7qYqzEBIE3yD0ZtjVrS8DfRRccRQOOsKZq/yn0yamfUjqh3Bz0fzURztkT9JuqRIZj8AaAqN0Z9I8+pn4oarWsAmF90l1x2RS203wBgIK6P+kHUgahr6xYA0nf7L0SttZ8AYEasivpZ1A11CQDzog4W3ZP8AICZc0vUoahr6hAAdpn8AaDUELC76PMqh34DwLqoTfYFAJRqY9T6KgPAdvsAACqxvZ9VgH4CwObC0j8AVOXWPBdXEgAAgOqUHgDmRK3WdwCo1Ko8J5cWANLS/zx9B4BKpbl4WZkB4DY9B4BaKDUAjOo3ANRCT3NyrwFghX4DQC30NCfP0jcAaB8BAAAEAABAALiyI1oHALXQ05zcawCY0m8AqIWe5uReA8Ax/QaAWvhV2QHgnJ4DQKXSXDxZZgC4EPWcvgNApQ7lObm0AJDs0Xf6dFYL8OkN+tLzXNxvAHhF7+nDaS2g5U5pAX2YrCoAdKK26T99cDkpjgHoXV9zcL83Anomap99QI/2awGOAejJ3n7fP/0GgLQKsCXqVfuCHt/AJ7SBlnotHwMwXWnp//5+f8ggbgX8TtRqIYBpv/m+10lnrj6sE7TUtnwMwHQn/zXFAE4gHdSzAN6I+nDh0kCmHwLSCSzf1gla5tv5vQ/TcSDqrmJAJ1AP8mFAb0etjfp01Jv2E9PwUF4J8GmIYffeqtdDWsE0pKtF0pL/3cUAL58e9NMA0/2IfxR1U9SXo07ab1zFKsBU1NfjH5dFvawjDKn03v7T9F5P73nt4CqcyGExzam7B/3DZ8/ABl+M+m3Ut6IezYP67VFLo8ai5jZsB3S8B0sLAscvPjByR/zjxqhNUUuiVugMDZYu80sn+6Xl/n0m/lL9NGqkYdt8vugu76fv+Q8XPd7id0YDwPj4+NUGgVS/yAVXtRpQdM+MdnY00LOYpzbowh8Zb7UAAAQAAEAAAAAEAABAAAAABAAAQAAAAAQAAGpnYmJiji4IALTroJ+vC0CYpwUCAO2yQAuA4MOAAEDLLNICwFggANA+t2gBYCwQAGiflVoAhA9pgQBAu3xEC4DwMS0QAGiXRRMTE5b+oMViDLi5cA6AAEArbdYCaLV7tUAAoFznarId98UngFG7A1r56T8d+/cZEwUAyjVVk+1YHLXR7oBW2pjHAGOiAECJztRoW75qd0ArfaVG23LW7hAABIDyLZ2YmPA9ILRIPuaX12iT3rJXBIC2OFWz7fluDAhuDQztmPzTsf4PxkQEgGq8VrPtSQPC9+wWaIV0rF9Xs2163W4RANriRA23aXN8Mthq18BQf/pPx3gdL/89bu8IAG1R1zd7+irAXcFgOCf/dGx/15iIAFCtozXdrjlRT8VA4TkBMFyTfzqmn8rHeB1N2ksCQFukM17retLLvKiDMWCstptgaD75H8zHdh2lsfC0PSUAtMmLNd62NFA845wAaPzkn47hZ2s8+dd9LBxqs7WgMs8X9b4Xf1oq/McYQNJTAx8YHx93ow5ozsQ/v+ie7d+Ee3w8b49ZAWibAw3ZzjSA/DoGlPvsMmjE5J+O1V8XzXnQzwF7zQpA26R7AaRrX5vwKM6xqB/HwPLZeP36+Pj4PrsPajfxp3v7p9v7rmjQZr9e1O++KAIApdgT9cUGbW8aWP4tBpp00k4KAfujDkUg8CAPKH/CT0/zSyfrriu6D/ZZ2NAxkIqMdDodXSj/wL10Qv2vhv910rkBh3KlJH8mAsERexkGPm6k8SLdtXNxnvhTzW/4X+vPov5vvIhxw062AtAq6Y2fboBxc4P/DmkA2pTr8oADcCXH35v8qYaTAKu3UwsAYx8CQPs8HnVeG4AWOZ/HPgSAVkt3BfyhNgAt8sM89iEAtN6jURe0AWiBC3nMQwCg6F4LazkMaIPH85iHAED2zSjX0wPDbMqnfwGAP3SicFYsMNzSGHdcGwQA/tDDUWe0ARhCZ/IYhwDAFQ6QbdoADKFtPuAIALy/tETm+djAMHmx8BWnAMBV+WTRvcc+QNOdzWMaAgBX4TUHDDAk7i888lcAYFqejtqhDUCDpTFsnzYIAEzfFwpPywKa6WgewxAA6EG6ZebHi+49AgCaIo1Z6wu3OBcA6MupqLsLD84AmuGtPGad0goBgMGlaVcGAHV2No9VVi0FAAbo5aL7dcA5rQBq6Fweo17WCgGAwXs+6qNRp7UCqJHTeWx6XisEAGZOuirgrsJ1tUA9vJbHJFcsCQCUIH2/dkdhqQ2o/gPJHYXv/AUASvXektturQAq8Hj+5O8rSQGACpwvurfZTOXkQKAM5/KY88k8BiEAUKG0CrCscAIOMLNezGPNbq0QAKiPdCLOR6MeKNwvABiss3lscQKyAECNfT/qg/l1SjuAPkxdNqYgAFBzZ3Jav7XoLtW5Hzcw3Yl/dx5DHshjCgIADXK86J6sk9J7eiynE3aA93M+jxUfyGPHcS0RAGi29FCOz+SD+nOFG3YAv+9IHhs+kMcKD/Jpgdla0CrpKV3fyXVz1H1R90Yt1hponXQy3xNF93p+n/QFAFokHfAP50oBYF3UR6JWRi3UHhg66VP94aJ7Kd/ThbP5BQAtIA8EO3IlC6KWRC3Pr6kW5f9vNP97oF6OFr+78uf1ont73hP536dXJ/Lxe0Y6nY4uAEDLOAkQAAQAAEAAAAAEAABAAAAABAAAQAAAAAQAAEAAAAAEAABAAAAABAAAQAAAAAQAAEAAAAAEAABAAAAABAAAEAAAgJaYrQVUZWJi4ifx8ucVb8bBqLsb2kL9G4L+jY+P3200QACgbUaK6lehRvRP//SPNvIVAAAIAACAAAAACAAAgAAAAAgAAIAAAAAIAACAAAAACAAAgAAAAAgAAIAAAAAIAACAAAAACAAAgAAAAAgAACAAAAACAAAgAAAAAgAAIAAAAAIAACAAAAACAAAgAAAAAgAAIAAAAAIAACAAAAACAAAgAAAAAgAAIAAAgAAAAAgAAIAAAAAIAACAAAAACAAAgAAAAAgAAIAAQKudtw36p38gANA+p22D/ukfCAC0z6Rt0D/9AwGA9jlcg214Sf/0T/8QAKD8Tz8nKvz9J6OO6Z/+6R8CAJRvZ8W/+6L+6Z/+IQBA+XZEnarg976Zf/dF/dM//UMAgPKly6AeruD3pt/5rv7pn/4hAEB1dkcdKPH3PRe1a4g+femf/oEAQGP9VVHOJVGv5t81pX/6p38IAFC9s1FrZngQToPv6qi39U//9A8BAOoj3RXtjqi9M/Cz90WtjHpD//RP/0AAoH7ORX0iav2APo29EnVP1F9GvaN/+qd/IABQb/ujlhXd70v35YF5OoP4v0f9ddTSqJ9EdfRP//QPfme2FlBze3LNyYPpbVGjUSsu+3NHiu6JVcdyXdA6/dM/uLKRTkcwBYC28RUAAAgAAIAAAAAIAACAAAAACAAAgAAAAAgAAIAAAAAIAACAAAAACAAAwGD9rwADAL9IpXJ72717AAAAAElFTkSuQmCC;" parent="GbpzfajvycvOcoFSvj6P-18" vertex="1">
          <mxGeometry x="255.55555555555557" y="11.11111111111111" width="127.77777777777779" height="127.77777777777779" as="geometry" />
        </mxCell>
        <mxCell id="GbpzfajvycvOcoFSvj6P-21" value="" style="shape=image;imageAspect=0;aspect=fixed;verticalLabelPosition=bottom;verticalAlign=top;image=data:image/png,iVBORw0KGgoAAAANSUhEUgAAAgAAAAIACAYAAAD0eNT6AAAABGdBTUEAAK/INwWK6QAAABl0RVh0U29mdHdhcmUAQWRvYmUgSW1hZ2VSZWFkeXHJZTwAAAvTSURBVHja7N1LqFV1H8fhtdUukl1QIe0CBtKFspImRhAESkJlCFJYwdaBHku7EFRKl0FBYVkkBZZReqgTOSgnRiBBg8SahCnUoAY1kC6DQxe7Yenq92/vgWDpObbXOXut//PA720SvO4v72Z93n0utsqyLACAvEwwAQAIAABAAAAAAgAAEAAAgAAAAAQAACAAAAABAAAIAABAAAAAAgAAEAAAgAAAAAQAACAAAAABAAAIAAAQAACAAAAABAAAIAAAAAEAAAgAAEAAAAACAAAQAACAAAAABAAAIAAAAAEAAAgAAEAAAAACAAAQAAAgAAAAAQAACAAAQAAAAAIAABAAAIAAAAAEAAAgAAAAAQAACAAAQAAAAAIAABAAAIAAAAAEAAAgAABAAAAAAgAAEAAAgAAAAAQAACAAAAABAAAIAABAAAAAAgAAEAAAgAAAAAQAACAAAAABAAAIAABAAACAAAAABAAAIAAAAAEAAAgAAEAAAAACAAAQAACAAAAABAAAIAAAAAEAAAgAAEAAAAACAAAQAACAAAAAAWACABAAAIAAAAAEAAAgAAAAAQAACAAAQAAAAAIAABAAAIAAAAAEAAAgAAAAAQAACAAAQAAAAAIAABAAACAAAAABAAAIAABAAAAAAgAAEAAAgAAAAAQAACAAAAABAAAIAABAAAAAAgAAEAAAgAAAAAQAACAAAEAAAAACAAAQAACAAAAABAAAIAAAAAEAAAgAAEAAAAACAAAQAACAAAAABAAAIAAAAAEAAAgAAEAAAIAAAAAEAAAgAAAAAQAACAAAQAAAAAIAABAAAIAAAAAEAAAgAAAAAQAACAAAQAAAAAIAABAAAIAAAAABAAAIAABAAAAAAgAAEAAAgAAAAAQAACAAAAABAAAIAABAAAAAAgAAEAAAgAAAAAQAACAAAAABAAACwAQAIAAAAAEAAAgAAEAAAAACAAAQAACAAAAABAAAIAAAAAEAAAgAAEAAAAACAAAQAACAAAAABAAAIAAAQAAAAAIAABAAAIAAAAAEAAAgAAAAAQAACAAAQAAAAAIAABAAAIAAAAAEAAAgAAAAAQAACAAAQAAAgAAAAAQAACAAAAABAAAIAABAAAAAAgAAEAAAgAAAAAQAACAAAIAKTDIBAD23a/Px/52hgWnxn8N98efdVPoEAADGyO0mEAAA5OeuuKWeRQIAgLxcFPdm3Lq408whAADI75OAm8wgAADIyzlxz8WtjZtuDgEAQD5mxj0Zt8QUY8OPAQLQT+6LOxi3Le5Xc/gEAIDmaxWdbwx8Ne4ezygBAEB+VsTdYgYBAEBeLoh7Oe6RuKnmEAAA5OOMuAcLPyJYCd8ECEA/O737KUD65xtxP5rEJwAA5GF23Atxy0whAADIz6q4W80gAADIS/oRwaG4R4vOlwQQAABkYmLc6rgbTSEAAMjL2XHr4x6Im2YOAQBAPs6Pe7rwy4IEAADZKePujrsj7hRzjE6WvwdgcHBwNP/6nLiru/+cUYzPN560uv9DPxC3P25P3MftdvuLeC0T4p+H7WxnO9u5CTufwGu8JO717icCG+L+9Ggf4XhlWQqAo02OWxO3suj8/Gk/OhS3L25j93/8ZbyhSzvb2c527oudd20+/r8zNNDL/+6v49YWnb9FcPQ25fcs9CWAoy2L+7LofG1pdh//OdN3ws6N2xK3N26hne1sZzs3fOdjmRX3YtzDhW8MFACjdGbce903xrk1+nOnj8Aui9se/w/llbiWne1sZzs3bOeRmt4NgEUeaQJgpNLX6D6seQ2nb4BZHrcj3swn2dnOdrZzQ3YerfSlmPSlgIGi85cJIQD+05S4nUXnm3XqLn28d33c23a2s53t3ICdT9SFcS/FrfCIEwDHsqUhb+Ij38zzo+Y32NnOdrZzzXf+v9I3ZPo9AQLgX90Qt6SBryt9BLY03sxz7WxnO9u5pjv36pOA9OMb6e8OOMsjXwAc6akGv7b0qzIfs7Od7Wznmu7cK6fG3Vv4uwMEwBHSXyk5p8GvL32kNy9q/ho729nOdq7Zzr2Wfizwibj746Z69AuAHP5O6fQjSovtbGc727lmO1dhVtyzcbd59OcdACfHLcjgdaav6V1nZzvb2c412rlqq7sRMFEA5Cl9hDclk9c6bXBwcKad7WxnO9dk56pdHDdUdH5XwGQBkJ8rMnqt6RtgLrWzne1s55rsPFZWxd0sAPKT00c/rXF8vXa2s53t3K/Oi3s+bl3R+RXCAiATV2X0WtNHXFfa2c52tnNNdh5L6cce008HLC4y5DcBApCzCd1PAgQAAGQkfbljpwAAgLxsLXwJICufZPRaf4/71M52trOda7LzWD/8l+daPrkGwKGMXms5jq/Xzna2s509/AVAX9mX0Wv9I+4zO9vZznauyc4e/gKg8jfyL5m81uF2u/2tne1sZzvXZGcPfwFQqYNx72fwOtPX8T6ws53tbOca7ezhLwAqty2D1/hT3Dt2trOd7VyznT38BUDlb+Qmf40rfQPP7na7vdvOdraznWu2s4e/AKhU+i7XdQ1+fd/FPW5nO9vZzjXc2cNfAFRuR9z2Br6u3+KGouL32tnOdrZzTXf28BcAldf8srjPG/Sa0kd4O+NN/JCd7WxnO9d4Zw9/AVC5n+MWNOTNnN7E78YtsbOd7WznBuzs4V+hSSb4xzdx18a9FTe/pq8h/eKOrVHwd9rZzna2c4N29vD3CUDlhuMWxq2I+75Gf+7DRed3di+qyZvYzna2s509/H0C0HfSR2GvFZ0f9VkTtzJuVp/+Wf+K2xO3Md7AQ3a2s53t3PCdPfwFwJiU8YG49XHPxF0eNy9uTtyMuMnj+Gf7IW5/9w38UbyBv7Kzne1s54x29vDvoVZZllYAoLd2bT7+vzM00IsHUG8e/pvyexb6HgAA/D//DAkAADz8BQAAePgLAADw8BcAAODhLwAAwMNfAACAh78AAAAPfwEAAB7+AgAAPPwFAAB4+AsAADz8EQAAePgjAADw8EcAAODhjwAAwMMfAQCAhz9Ha5VlaQUA8AkAACAAAAABAAAIAABAAAAAAgAAEAAAgAAAAAQAACAAAAABAAAIAABAAAAAAgAAEAAAgAAAAAFgAgAQAACAAAAABAAAIAAAAAEAAAgAAEAAAAACAAAQAACAAAAABAAAIAAAAAEAAAgAAEAAAAACAAAQAAAgAAAAAQAACAAAQAAAAAIAABAAAIAAAAAEAAAgAAAAAQAACAAAQAAAAAIAABAAAIAAAAAEAAAgAABAAAAAAgAAEAAAgAAAAAQAACAAAAABAAAIAABAAAAAAgAAEAAAgAAAAAQAACAAAAABAAAIAABAAACAAAAABAAAIAAAAAEAAAgAAEAAAAACAAAQAACAAAAABAAAIAAAAAEAAAgAAEAAAAACAAAQAACAAAAAAQAACAAAQAAAAAIAABAAAIAAAAAEAAAgAAAAAQAACAAAQAAAAAIAABAAAIAAAAAEAAAgAAAAAQAAAsAEACAAAAABAAAIAABAAAAAAgAAEAAAgAAAAAQAACAAAAABAAAIAABAAAAAAgAAEAAAgAAAAAQAACAAAEAAAAACAAAQAACAAAAABAAAIAAAAAEAAAgAAEAAAAACAAAQAACAAAAABAAAIAAAAAEAAAgAAEAAAIAAAAAEAAAgAAAAAQAACAAAQAAAAAIAABAAAIAAAAAEAAAgAAAAAQAACAAAQAAAAAIAABAAAIAAAAABAAAIAABAAAAAAgAAEAAAgAAAAAQAACAAAAABAAAIAABAAAAAAgAAEAAAgAAAAAQAACAAAAABAAACAAAQAACAAAAABAAAIAAAAAEAAAgAAEAAAAACAAAQAACAAAAABAAAIAAAAAEAAAgAAEAAAAACAAAEgAkAQAAAAAIAABAAAIAAAAAEAAAgAAAAAQAACAAAQAAAAAIAABAAAIAAAAAEAAAgAAAAAQAACAAAQAAAgAAAAAQAACAAAAABAAAIAABAAAAAAgAAEAAAgAAAAAQAACAAAAABAAAIAABAAAAAI/C3AAMAvQJVZb6TxBEAAAAASUVORK5CYII=;" parent="GbpzfajvycvOcoFSvj6P-18" vertex="1">
          <mxGeometry x="127.77777777777779" y="11.11111111111111" width="127.77777777777779" height="127.77777777777779" as="geometry" />
        </mxCell>
        <mxCell id="GbpzfajvycvOcoFSvj6P-22" value="" style="shape=image;imageAspect=0;aspect=fixed;verticalLabelPosition=bottom;verticalAlign=top;image=data:image/png,iVBORw0KGgoAAAANSUhEUgAAAgAAAAIACAYAAAD0eNT6AAAABGdBTUEAAK/INwWK6QAAABl0RVh0U29mdHdhcmUAQWRvYmUgSW1hZ2VSZWFkeXHJZTwAAA3WSURBVHja7N1vyJ1lHcDx67SnlWRNpmFlTRfS+kMhFIFCKEEvQksW0nA5T75I5BFTCsPh6k0U/aFYbKwMBjstDd8kSpHMV4NBIAmD3vjAYDAYDKSHFovBYJ1+V/c1SmWy5eM5931+nw9cDOrNea7j9Tvf5zz3uc9oOp0WACCXt9kCABAAAIAAAAAEAAAgAAAAAQAACAAAQAAAAAIAABAAAIAAAAAEAAAgAAAAAQAACAAAQAAAAAIAABAAACAAAAABAAAIAABAAAAAAgAAEAAAgAAAAAQAACAAAAABAAAIAABAAAAAAgAAEAAAgAAAAAQAACAAAEAAAAACAAAQAACAAAAABAAAIAAAAAEAAAgAAEAAAAACAAAQAACAAAAABAAAIAAAAAEAAAgAAEAAAIAAAAAEAAAgAAAAAQAACAAAQAAAAAIAABAAAIAAAAAEAAAgAAAAAQAACAAAQAAAAAIAABAAAIAAAAABAAAIAABAAAAAAgAAEAAAgAAAAAQAACAAAAABAAAIAABAAAAAAgAAEAAAgAAAAAQAACAAAAABAAACwBYAgAAAAAQAACAAAAABAAAIAABAAAAAAgAAEAAAgAAAAAQAACAAAAABAAAIAABAAAAAAgAAEAAAgAAAAAEAAAgAAEAAAAACAAAQAACAAAAABAAAIAAAAAEAAAgAAEAAAAACAAAQAACAAAAABAAAIAAAAAEAAAIAABAAAIAAAAAEAAAgAAAAAQAACAAAQAAAAAIAABAAAIAAAAAEAAAgAAAAAQAACAAAQAAAAAIAAAQAACAAAAABAAAIAABAAAAAAgAAEAAAgAAAAAQAACAAAAABAAAIAABAAAAAAgAAEAAAgAAAAAQAAAgAAEAAAAACAABYOEu2gHn51/JoOtf63Tcd+bn8XIv6c4F3AAAAAQAACAAAEAAAgAAAAAQAACAAAAABAAAIAABAAAAAAgAAEAAAgAAAAAQAACAAAAABAAAIAABAAAAAAgAAEAAAIAAAAAEAAAgAAEAAAAACAAAQAACAAAAABAAAIAAAAAEAAAgAAEAAAAACAAAQAACAAAAABAAAIAAAQAAAAAIAABAAAIAAAAAEAAAgAAAAAQAACAAAQAAAAAIAABAAAIAAAAAEAAAgAAAAAQAACAAAQAAAgAAAAAQAACAAAAABAAAIAABggJZswfBMJpOr45+/9eGxjMdjTwiYBWaBdwCYka/ZAsAsQADksxzrbs8fmAVmAQIgly2xnoq1M9a7bAeYBWYBAiBf/X/JNoBZYBYgAHL5QKyfx3os1jW2A8wCswABkMf7Y/0w1l22AswCs4BL5WOAi+ORWOdiPR3rn7YDzAKzAO8ALL5R6S4G2h/rm55XMAvMAgRAPt+I9VXbAGaBWYAAyGVzrCdi7Yq10XaAWWAWIADyeE+s7xQfCwKzwCzgIlwEuLje3cq//vvbWH+3JWAWmAV4ByCHG2PtifV1WwFmgVmAAMjngVjbbAOYBWYBAiCX+rGgJ2N9t3RvAwJmgVkgAEhiXawHY91hK8AsMAsQALlcG+vHsR6NdbXtALPALBAA5PGhWD8pbhACZoFZIABIZxrroVj3xHqH7QCzwCwQAORQ7xf+sVgHY30r1tttCZgFZoEAIJf7Y33FNoBZYBYIAHK5IdbeWI8XFwOBWWAWCABSuaYd+i/bCjALzIIcfBcAF1wR67FY62P9LtY/bAmYBWaBdwDI4SOxflW67xEHzAKzQACQTL0YyGeDAbNAAJCw/ielu1/4VbYDzAKzQACQxztjPVzcLxzMArNAAJBO/SjQ90t3g5CNtgPMArNAAJDHDbF+Fmu7rQCzwCwQAOTzYDv462wFmAVmgQAgj4/GerJ0nw++wnaAWWAWCAByeSDWnbYBzAKzQACQywdj7Y61s3S3DQXMArNAAJDEtaW7InirrQCzwCwQAOT7b2e3bQCzwCwQAOQyinXINoBZYBYIAHI5ULztB5gFAoB0B/4+2wBmgVkgAHDgAbMAAYADD5gFCAAceMAsQADgwANmAQIABx4wCxAAOPCAWYAAwIEHzAIEAA48YBYgAHDgAbMAAYADD5gFCAAceMAsQADgwANmAQIABx4wCwQADjxgFiAAcOABswABgAMPmAUIABx4wCxAAODAA2YBAgAHHjALEAA48IBZgADAgQfMAgQADjxgFiAAcOABswABgAMPmAUIABx4wCxAAODAA2YBAsCBd+ABswAB4MADZgEIAAceMAtAADjwgFmAAMCBB8wCBAAOPGAWsNiWbMHwjMdjBx4wC/AOAAAgAAAAAQAACAAAQAAAgAAAAAQAACAAAAABAAAIAABAAAAAAgAA6BFfBjQHk8lkOu/HMB6PR54JwEzyDgAAIAAAAAEAAAgAAEAAAAACAAAQAACAAAAABAAAIAAAAAEAAAgAAEAAAAACAAAQAACAAAAABAAACAAAQAAAAAIAABAAAIAAAAAEAAAgAAAAAQAACAAAQAAAAAIAABAAAIAAAAAEAAAgAAAAAQAACAAAEAAAgAAAAAQAACAAAAABAAAIAABAAAAAAgAAEAAAgAAAAAQAACAAAAABAAAIAADg8izZAuZWn/umIz+Xn8vPBd4BAAAEAAAgAAAAAQAACAAAQAAAAAIAABAAAHQmk8l6uyAAyHXoN9gFIFxpCwQAuWy0BUDwy4AAIJlNtgAwCwQA+XzcFgBmgQAgn5ttARA+awsEALncaguA8HlbIADIZdNkMvHWHyQWM2BLcQ2AACClbbYAUttuCwQAs3WmJ49jR/wGsM7TASl/+69nf4eZKACYrfM9eRybY231dEBKW9sMMBMFADO02qPH8j1PB6T0eI8ey2lPhwAQALP3yclk4u+AkEg78zf16CG94lkRAFmc7Nnj2RMDwa2BIceLfz3ru81EBMB8HO/Z46kDYZ+nBVKoZ/29PXtMJzwtAiCLYz18TNviN4P7PTWw0L/91zPex4//rnh2BEAWff2Pvf4pwF3BYDFf/OvZ3mMmIgDm62hPH9f6WM/GoPA9AbBYL/71TD/bzngf/dWzJACyqFe89vWilytjHYqB8QVPEyzMb/6H2tnuozoLT3mmBEAmR3r82Oqg+INrAmDwL/71DP+pxy/+fZ+FC23JFszN4dLve/HXtwqfiAFSvzVweTweu1EHDOeFf0PprvYfwj0+DnvGvAOQzfMDeZx1gLwcA2WHpwwG8eJfz+rLZThf9PO8Z807ANnUewHUz74O4as43xfrNzFYHo5/fzAej5/x9EHvXvjrvf3r7X0/PaCHfaL0774oAoCZeDrWowN6vHWw/D4GTb1op0bAH2O9EEHgizxg9i/49dv86sW6t5fui32uG+gMZE5G0+nULsz+4P7vC+pfBv7j1GsDXmirlvxqBMFLnmVY87lR50W9a+fm9sJf14aB/1ififWfeRFzw5PsHYBU6n/49QYYWwb8M9QBdFdbrw0cgItZufDiz3y4CHD+fm0LALMPAZDPwVhnbQOQyNk2+xAAqdW7Au63DUAi+9vsQwCk99NY52wDkMC5NvMQAJTus7DeDgMyONhmHgKA5kexfJ4eWGTn/fYvAHi9Y8VVscBiqzNuxTYIAF5vV6xV2wAsoNU24xAAXOSA7LQNwALa6RccAcAbq2+R+X5sYJEcKf7EKQC4JPeW7h77AEN3us00BACX4LgDAyyI+4qv/BUAXJbnYu21DcCA1Rn2jG0QAFy+bxfflgUM09E2wxAA/B/qLTPvLN09AgCGos6sO4pbnAsA3pSTsb5YfHEGMAyvtJl10lYIANaupn0yAOiz021WeddSALCGXizdnwPO2Aqgh860GfWirRAArL3DsW6LdcpWAD1yqs2mw7ZCAPDWqZ8K+FzxuVqgH463meQTSwKAGah/X7uleKsNmP8vJLcUf/MXAMzUhbfcDtgKYA4Ott/8/UlSADAHZ0t3m826XBwIzMKZNnPubTMIAcAc1XcBPlVcgAO8tY60WXPAVggA+qNeiHNbrOXifgHA2jrdZosLkAUAPfbLWB9u/563HcCbcP41MwUBQM+ttlr/ROneqnM/buByX/gPtBmy3GYKAoABWSndxTq13uvXcrpgB3gjZ9usuL7NjhVbIgAYtvqlHA+1Q/1IccMO4NVearPh+jYrfJFPAku2IJX6LV2/aGtLrB2xtsfabGsgnXox31Ol+zy/3/QFAInUA7+rrRoAt8e6NdbNsa6zPbBw6m/1fy7dR/meK67mFwC2gDYI9rZVbYx1Y6yb2r91bWr/37r2vwP9crT895M/J0p3e95j7X+v/7qQj1cZTadTuwAAybgIEAAEAAAgAAAAAQAACAAAQAAAAAIAABAAAIAAAAAEAAAgAAAAAQAACAAAQAAAAAIAABAAAIAAAAAEAAAIAABAAAAAAgAAEAAAgAAAAAQAACAAAAABAAAIAABAAAAAAgAAEAAAgAAAAAQAACAAAAABAAAIAAAQAACAAAAABAAAIAAAAAEAAAgAAEAAAAACAAAQAACAAAAABAAAIAAAAAEAAAgAAEAAAAACAAAQAAAgAAAAAQAACAAAQAAAAAIAABAAAIAAAAAEAAAgAAAAAQAACAAAQAAAAAIAABAAAIAAAAAEAAAgAABAAAAAAgAAEAAAgAAAAAQAACAAAAABAAAIAABAAAAAAgAAEAAAgAAAAAQAACAAAAABAAAIAABAAAAAAgAABAAAIAAAAAEAAAgAAEAAAABD8W8BBgBDx9kWx0auLgAAAABJRU5ErkJggg==;" parent="GbpzfajvycvOcoFSvj6P-18" vertex="1">
          <mxGeometry x="16.666666666666668" y="11.11111111111111" width="127.77777777777779" height="127.77777777777779" as="geometry" />
        </mxCell>
        <mxCell id="GbpzfajvycvOcoFSvj6P-23" value="" style="group" parent="1" vertex="1" connectable="0">
          <mxGeometry x="340" y="590" width="400" height="150" as="geometry" />
        </mxCell>
        <mxCell id="GbpzfajvycvOcoFSvj6P-24" value="" style="rounded=1;labelPosition=center;verticalLabelPosition=top;align=center;verticalAlign=bottom;fontFamily=Tahoma;fontSize=20;labelBorderColor=none;whiteSpace=wrap;html=1;horizontal=1;fontStyle=1;fontColor=#888;strokeColor=#888;fillColor=none;strokeWidth=2;" parent="GbpzfajvycvOcoFSvj6P-23" vertex="1">
          <mxGeometry width="400" height="150" as="geometry" />
        </mxCell>
        <mxCell id="GbpzfajvycvOcoFSvj6P-25" value="" style="shape=image;verticalLabelPosition=bottom;labelBackgroundColor=#ffffff;verticalAlign=top;aspect=fixed;imageAspect=0;image=data:image/png,iVBORw0KGgoAAAANSUhEUgAAAgAAAAIACAYAAAD0eNT6AAAABGdBTUEAAK/INwWK6QAAABl0RVh0U29mdHdhcmUAQWRvYmUgSW1hZ2VSZWFkeXHJZTwAABkGSURBVHja7N1/qJX3fQfw53pFkEkEQ8glgo3FEEjQOBwlhqQtRcVMTSezuAXSazrqHyGlpaWhtqFjo61tQspKpWV2rd4GssjcXNLYiIaxNKGGMFvrJaFSWVzAYAgRTA2CcD37fHe+odbO1HvOuc+P87xe8OGkqbn38fOc5/t9n+95fox0Op0CAGiXWVoAAAIAACAAAAACAAAgAAAAAgAAIAAAAAIAACAAAAACAAAgAAAAAgAAIAAAAP2ZrQVUZWJiYjp/fE7UsqjbokajVlz2/x+Jmoo6GjUZdeFqf/D4+Lj+6Z/+IQBAjYxEbc61KmreVf5356IORe3JpX/6p39wGV8BUNeBd0P+JPXPUX8xjcG3yH92Y9STUcei1umf/ukfCADU2zVR/xr1dNStA/h5S6OeifqXaQ7i+qd/+ocAACW5Iepw/vQ0aJuifh41pn/6p38gAFAf1xbd701vmcHfkT6NHYyar3/6p38IAFC9dFb1kzM8+F46CD+pf/qnfwgAUP178P6ie5Z1WdZGbdE//dM/BACozp9Efa2C35t+51z90z/9QwCAat5/D0ZdX8HvXph/t/7pn/4hAEAF77+tFf7+rfqnf/qHAADlS7dWvbHC37+k6J6UpX/6p38IAFCi22uwDSv1T//0DwEAyrXUNuif/oEAQPuM2Qb90z8QAGifubZB//QPBAAAQAAAAAQAAEAAAAAEAABAAAAABAAAQAAAAAEAABAAAAABAAAQAAAAAQAAEAAAAAEAABAAAAABAAAQAAAAAQAAEAAAAAEAABAAAAABAAAQAAAAAQAAEAAAQAAAAAQAAEAAAAAEAABAAAAABAAAQAAAAAQAAEAAAAAEAABAAAAABAAAQAAAAAQAAEAAAAAEAABAAAAAAQAAaIuRTqejCwBgBQAAEAAAAAEAABAAAAABAAAQAAAAAQAAEAAAAAEAABAAAAABAAAQAAAAAQAAEAAAAAEAABAAAEAA0AIAEAAAgBaYrQVcbmJiYn68LIlakV9TLbrkjyyPGtUpqI2pqKOX/O/Xo07kOpJfz9b5LzA+Pm4vCgBUMOEvjpd1UXdGrbxssgfqbzQH9ves+H/+TAoFh6NejNof9Zq2CQC0c9JPn+rvi7o3f8IHhtuiXJujvpsDwONRT0Qd1x4BgOGe9BfkCf/e/EkfaK+08vfVXC/nMLAn6i2tEQAYnol/Ybx8KepvoubqCHCZD+V6JOqHUd+MOqUtAgDNnfgX54l/S9QcHQH+iPQB4cGorVG7cxBwroAAQIMm/nnx8ndRny2crQ9M35wcAtKq4Xei/jbqnLYMF/cBGL7JP53g8+uoz5v8gT6N5rEkjSmbtcMKAPWc+NPZvf8UtVo3gAFL5xE9mVcF7i+6lxRiBYAaTP73xMsxkz8wwz6Wx5p7tMIKANVO/Ol7uu1Fd4kOoAzpTqFPRX07alvUBS2xAkC5k/9YvPynyR+oSBp7Xoga0woBgPIm/8X5wHMzH6BK6d4BPy+6NxVCAGCGJ//l+YBz+16gDhbnMWm5VggAzNzkf2dhyQ2on7E8Nt2pFQIAM/PJ/5moeboB1NC8PEZZCRAAGODkn5b7Dxbds28B6mp+Hqt8RSkAMIDJ/7p4eTbqOt0AGsCYJQAwgMk/Xef/lDQNNEwas9LXAR5CJgDQo/RoTpf6AU2ULhF8TBsEAKb/6T/davOzOgE0WHq0sNsGCwBMY/JP19Xu0glgCKSxzI2CBACmccAs0AZgCCzwgUYA4Oo+/afHbX5EJ4Ahksa0rdogAHDlyT8l5e06AQyh7YWVTQGAK/qaAwQYUgvyGIcAwGWf/tNJMpbIgGGWxjj3NREAuMxXoka1ARhiaYz7kjYIAPzu0/+ieLlPJ4AWSGPdIm0QAOj6fOGWmUA7zMljHgJA6z/9pwdm+O4faJM05nlYkADQemk5bK42AC0yt/C1pwCAT/+AsY/yzdaC6kxMTKyIl5sb/tc4G3Uo12tRZ6KOjo+PT9nDMLCxIp09v7zoXkufLhlenWt+g/9aaexLY+ARe1gAaKNNDd3uU1H7ovanid9kDzMrH2OXTpQ7cyhIIWBd1MaohQ0dAwWAiox0Oh1dqC7V/3fRrKdkTUZ9MwajJ+w9qN14cm/RvcZ+aYM2O60afjCHHDtRAGjNwZqug/2fhmzuW1EPxQG6256D2o8t6eS6x4rmnGX/gajXBYDyOQmwOusasp17o24y+UMzxLH6eDpm87FrLOSKnANQnbo/8vdC1BdiMNlhV0HjQkA6OfcTExMTD+bVgDrfaCyNhd+316wAtMmdNd62c1HrTf7Q+CCQjuH1+Zg2FiIAVC3f/a+uZ+ymgWJNDByH7CkYihCQjuU1NQ4BaSwcs6cEgLao61m6adn/4zFgHLaLYKhCQDqmP56PcWMiAkCFbqnpdn0mBor/sHtgKENAOrY/U9PNu9keEgDaYkkNt2lPDBA77RoY6hCQjvE9xkQEgOrU7eY/6fa9D9gt0ArpWH/LmIgAUI26nQCYlv7P2C3QilWAdKx/zpiIAFCNBTXalkm39oXWhYB0zB+t0SZdZ68IAAJA+f7e7oBW+nqNtmW+3SEAtMVoTbYjPYhjn90BrbQvjwHGRAGAEs2ryXY84VG+0E752H/cmCgA0E57tABaba8WCAC0T3r85qQ2QKtXAdIY8LpOCAC0y/NaABgLBADa52UtAIwFAgDtc0ILAGOBAICDHjAWIADQAm9pARBOa4EAQIuMj4+f1QUgxoJzuiAAAAACAAAgAAAAAgAAIAAAAAIAACAAAAACAABQrdm9/EcTExPT+eNLo1bm17GouQ3rUWd8fHyDt0o5Lj4wMhov90Rtiro5annUqM7QQFNRR6OOR+2NenrW9zpT2lKOmKeejZeRhm32+aJ7Z8b0mOaXoo6lYTHX+4p5qpwAcBXSJP9g1NaoJU2fkxxKpU3+acL/cdSHdIMhkILrilz3Rr0c7/FPRgg4rjWlWFM0f5X7ZNTOqB1R7w56PpqJ5myJ+k3UI0Mw+VPe5P/5ePmlyZ8hlt7bv8zvdbgaN0Z9I8+pnyoGvBo6yAAwPyotueyKWmi/MY3JP4XFx4rmfT0E05Xe44/l9zxcreujfhB1IOraugWA9N3+C1Fr7SemOflvjpcv6gQt88X83ofpWBX1s6gb6hIA5kUdLLon+cF0Jv85+ZM/tNHX8jEA03FL1KGoa+oQAHaZ/OlROtPf10W01ZJ8DEAvIWB30edVDv0GgHXewPT5/gHHAEzfxqj1VQaA7fYBfVihBbTcSi2gzzm451WAfgJAOoHF0j/9GNMCWs5XYPTj1jwXVxIAoB/ztYCWcxIg/So9AKQ37Wp9B4BKreo1SPYaANLS/zx9B4BKpbl4WZkB4DY9B4BaKDUAeDobANRDT3NyrwHA5VsAUA89zcmz9A0A2kcAAAABAAAQAK7siNYBQC30NCf3GgCm9BsAaqGnObnXAHBMvwGgFn5VdgA4p+cAUKk0F0+WGQAuRD2n7wBQqUN5Ti4tACR79B0AKtXzXNxvAHhF7wGgEpNVBYBO1Db9B4BK9DUH93sjoGei9tkHAFCqvVH7qwwAaRVgS9Sr9gUAlCIt/d/f7w8ZxK2A34laLQQAQCmT/5piAJfiD+pZAG9EfbhwaSAAzJQDUXdFnR7EDxvkw4Dejlob9emoN+0nABiIU0V3yf/uqLOD+qGDfhpguh/xj6Juivpy1En7DQB6ciLqoTyn7h70D589Axt8Meq3Ud+KejRqWdTtUUujxqLmNmwHdLwHARrnp1EjDdvm80V3eT99z3+46PEWv1UGgEuDQKpf5AKAsmzQgvc3SwsAQAAAAAQAAEAAAAAEAABAAAAABAAAQAAAAAQAAEAAAAAEAABAAAAABAAAQAAAAAQAAEAAAAAEAABAAAAAAQAAEAAAAAEAABAAAAABAAAQAAAAAQAAEAAAAAEAABAAAAABAAAQAAAAAQAAEAAAAAEAABAAAAABAAAEAABAAAAABAAAQAAAAAQAAEAAAAAEAABAAAAABAAAQAAAAGbe7BJ+x9Kolfl1LGpuw3rUidrgrQLQKM9GjTRsm89HnY6ajHop6ljUxVyNCQBpkn8wamvUkoa/iS46jgAaZ03R/FXuk1E7o3ZEvTvo+WgmmrMl6jdRjwzB5A8AVbkx6ht5Tv1U1GhdA8D8orvksitqof0GAANxfdQPog5EXVu3AJC+238haq39BAAzYlXUz6JuqEsAmBd1sOie5AcAzJxbog5FXVOHALDL5A8ApYaA3UWfVzn0GwDWRW2yLwCgVBuj1lcZALbbBwBQie39rAL0EwA2F5b+AaAqt+a5uJIAAABUp/QAMCdqtb4DQKVW5Tm5tACQlv7n6TsAVCrNxcvKDAC36TkA1EKpAWBUvwGgFnqak3sNACv0GwBqoac5eZa+AUD7CAAAIAAAAALAlR3ROgCohZ7m5F4DwJR+A0At9DQn9xoAjuk3ANTCr8oOAOf0HAAqlebiyTIDwIWo5/QdACp1KM/JpQWAZI++A0Clep6L+w0Ar+g9AFRisqoA0Inapv8AUIm+5uB+bwT0TNQ++wAASrU3an+VASCtAmyJetW+AIBSpKX/+/v9IYO4FfA7UauFAAAoZfJfUwzgUvxBPQvgjagPFy4NBICZciDqrqjTg/hhg3wY0NtRa6M+HfWm/QQAA3Gq6C753x11dlA/dNBPA0z3I/5R1E1RX446ab8BQE9ORD2U59Tdg/7hs2dggy9G/TbqW1GPRi2Luj1qadRY1NyG7YCO9yBA4/w0aqRh23y+6C7vp+/5Dxc93uK3ygBwaRBI9YtcAFCWDVrw/mZpAQAIAACAAAAACAAAgAAAAAgAAIAAAAAIAACAAAAACAAAgAAAAAgAAIAAAAAIAACAAAAACAAAgAAAAAgAACAAAAACAAAgAAAAAgAAIAAAAAIAACAAAAACAAAgAAAAAgAAIAAAAAIAACAAAAACAAAgAAAAAgAAIAAAgAAAAAgAAIAAAAAIAACAAAAACAAAgAAAAAgAAIAAAAAIAADAzJtdwu9YGrUyv45FzW1YjzpRG7xVABrl2aiRhm3z+ajTUZNRL0Udi7qYqzEBIE3yD0ZtjVrS8DfRRccRQOOsKZq/yn0yamfUjqh3Bz0fzURztkT9JuqRIZj8AaAqN0Z9I8+pn4oarWsAmF90l1x2RS203wBgIK6P+kHUgahr6xYA0nf7L0SttZ8AYEasivpZ1A11CQDzog4W3ZP8AICZc0vUoahr6hAAdpn8AaDUELC76PMqh34DwLqoTfYFAJRqY9T6KgPAdvsAACqxvZ9VgH4CwObC0j8AVOXWPBdXEgAAgOqUHgDmRK3WdwCo1Ko8J5cWANLS/zx9B4BKpbl4WZkB4DY9B4BaKDUAjOo3ANRCT3NyrwFghX4DQC30NCfP0jcAaB8BAAAEAABAALiyI1oHALXQ05zcawCY0m8AqIWe5uReA8Ax/QaAWvhV2QHgnJ4DQKXSXDxZZgC4EPWcvgNApQ7lObm0AJDs0Xf6dFYL8OkN+tLzXNxvAHhF7+nDaS2g5U5pAX2YrCoAdKK26T99cDkpjgHoXV9zcL83Anomap99QI/2awGOAejJ3n7fP/0GgLQKsCXqVfuCHt/AJ7SBlnotHwMwXWnp//5+f8ggbgX8TtRqIYBpv/m+10lnrj6sE7TUtnwMwHQn/zXFAE4gHdSzAN6I+nDh0kCmHwLSCSzf1gla5tv5vQ/TcSDqrmJAJ1AP8mFAb0etjfp01Jv2E9PwUF4J8GmIYffeqtdDWsE0pKtF0pL/3cUAL58e9NMA0/2IfxR1U9SXo07ab1zFKsBU1NfjH5dFvawjDKn03v7T9F5P73nt4CqcyGExzam7B/3DZ8/ABl+M+m3Ut6IezYP67VFLo8ai5jZsB3S8B0sLAscvPjByR/zjxqhNUUuiVugMDZYu80sn+6Xl/n0m/lL9NGqkYdt8vugu76fv+Q8XPd7id0YDwPj4+NUGgVS/yAVXtRpQdM+MdnY00LOYpzbowh8Zb7UAAAQAAEAAAAAEAABAAAAABAAAQAAAAAQAAGpnYmJiji4IALTroJ+vC0CYpwUCAO2yQAuA4MOAAEDLLNICwFggANA+t2gBYCwQAGiflVoAhA9pgQBAu3xEC4DwMS0QAGiXRRMTE5b+oMViDLi5cA6AAEArbdYCaLV7tUAAoFznarId98UngFG7A1r56T8d+/cZEwUAyjVVk+1YHLXR7oBW2pjHAGOiAECJztRoW75qd0ArfaVG23LW7hAABIDyLZ2YmPA9ILRIPuaX12iT3rJXBIC2OFWz7fluDAhuDQztmPzTsf4PxkQEgGq8VrPtSQPC9+wWaIV0rF9Xs2163W4RANriRA23aXN8Mthq18BQf/pPx3gdL/89bu8IAG1R1zd7+irAXcFgOCf/dGx/15iIAFCtozXdrjlRT8VA4TkBMFyTfzqmn8rHeB1N2ksCQFukM17retLLvKiDMWCstptgaD75H8zHdh2lsfC0PSUAtMmLNd62NFA845wAaPzkn47hZ2s8+dd9LBxqs7WgMs8X9b4Xf1oq/McYQNJTAx8YHx93ow5ozsQ/v+ie7d+Ee3w8b49ZAWibAw3ZzjSA/DoGlPvsMmjE5J+O1V8XzXnQzwF7zQpA26R7AaRrX5vwKM6xqB/HwPLZeP36+Pj4PrsPajfxp3v7p9v7rmjQZr9e1O++KAIApdgT9cUGbW8aWP4tBpp00k4KAfujDkUg8CAPKH/CT0/zSyfrriu6D/ZZ2NAxkIqMdDodXSj/wL10Qv2vhv910rkBh3KlJH8mAsERexkGPm6k8SLdtXNxnvhTzW/4X+vPov5vvIhxw062AtAq6Y2fboBxc4P/DmkA2pTr8oADcCXH35v8qYaTAKu3UwsAYx8CQPs8HnVeG4AWOZ/HPgSAVkt3BfyhNgAt8sM89iEAtN6jURe0AWiBC3nMQwCg6F4LazkMaIPH85iHAED2zSjX0wPDbMqnfwGAP3SicFYsMNzSGHdcGwQA/tDDUWe0ARhCZ/IYhwDAFQ6QbdoADKFtPuAIALy/tETm+djAMHmx8BWnAMBV+WTRvcc+QNOdzWMaAgBX4TUHDDAk7i888lcAYFqejtqhDUCDpTFsnzYIAEzfFwpPywKa6WgewxAA6EG6ZebHi+49AgCaIo1Z6wu3OBcA6MupqLsLD84AmuGtPGad0goBgMGlaVcGAHV2No9VVi0FAAbo5aL7dcA5rQBq6Fweo17WCgGAwXs+6qNRp7UCqJHTeWx6XisEAGZOuirgrsJ1tUA9vJbHJFcsCQCUIH2/dkdhqQ2o/gPJHYXv/AUASvXektturQAq8Hj+5O8rSQGACpwvurfZTOXkQKAM5/KY88k8BiEAUKG0CrCscAIOMLNezGPNbq0QAKiPdCLOR6MeKNwvABiss3lscQKyAECNfT/qg/l1SjuAPkxdNqYgAFBzZ3Jav7XoLtW5Hzcw3Yl/dx5DHshjCgIADXK86J6sk9J7eiynE3aA93M+jxUfyGPHcS0RAGi29FCOz+SD+nOFG3YAv+9IHhs+kMcKD/Jpgdla0CrpKV3fyXVz1H1R90Yt1hponXQy3xNF93p+n/QFAFokHfAP50oBYF3UR6JWRi3UHhg66VP94aJ7Kd/ThbP5BQAtIA8EO3IlC6KWRC3Pr6kW5f9vNP97oF6OFr+78uf1ont73hP536dXJ/Lxe0Y6nY4uAEDLOAkQAAQAAEAAAAAEAABAAAAABAAAQAAAAAQAAEAAAAAEAABAAAAABAAAQAAAAAQAAEAAAAAEAABAAAAABAAAEAAAgJaYrQVUZWJi4ifx8ucVb8bBqLsb2kL9G4L+jY+P3200QACgbUaK6lehRvRP//SPNvIVAAAIAACAAAAACAAAgAAAAAgAAIAAAAAIAACAAAAACAAAgAAAAAgAAIAAAAAIAACAAAAACAAAgAAAAAgAACAAAAACAAAgAAAAAgAAIAAAAAIAACAAAAACAAAgAAAAAgAAIAAAAAIAACAAAAACAAAgAAAAAgAAIAAAgAAAAAgAAIAAAAAIAACAAAAACAAAgAAAAAgAAIAAQKudtw36p38gANA+p22D/ukfCAC0z6Rt0D/9AwGA9jlcg214Sf/0T/8QAKD8Tz8nKvz9J6OO6Z/+6R8CAJRvZ8W/+6L+6Z/+IQBA+XZEnarg976Zf/dF/dM//UMAgPKly6AeruD3pt/5rv7pn/4hAEB1dkcdKPH3PRe1a4g+femf/oEAQGP9VVHOJVGv5t81pX/6p38IAFC9s1FrZngQToPv6qi39U//9A8BAOoj3RXtjqi9M/Cz90WtjHpD//RP/0AAoH7ORX0iav2APo29EnVP1F9GvaN/+qd/IABQb/ujlhXd70v35YF5OoP4v0f9ddTSqJ9EdfRP//QPfme2FlBze3LNyYPpbVGjUSsu+3NHiu6JVcdyXdA6/dM/uLKRTkcwBYC28RUAAAgAAIAAAAAIAACAAAAACAAAgAAAAAgAAIAAAAAIAACAAAAACAAAwGD9rwADAL9IpXJ72717AAAAAElFTkSuQmCC;" parent="GbpzfajvycvOcoFSvj6P-23" vertex="1">
          <mxGeometry x="255.55555555555557" y="11.11111111111111" width="127.77777777777779" height="127.77777777777779" as="geometry" />
        </mxCell>
        <mxCell id="GbpzfajvycvOcoFSvj6P-26" value="" style="shape=image;imageAspect=0;aspect=fixed;verticalLabelPosition=bottom;verticalAlign=top;image=data:image/png,iVBORw0KGgoAAAANSUhEUgAAAgAAAAIACAYAAAD0eNT6AAAABGdBTUEAAK/INwWK6QAAABl0RVh0U29mdHdhcmUAQWRvYmUgSW1hZ2VSZWFkeXHJZTwAAAvTSURBVHja7N1LqFV1H8fhtdUukl1QIe0CBtKFspImRhAESkJlCFJYwdaBHku7EFRKl0FBYVkkBZZReqgTOSgnRiBBg8SahCnUoAY1kC6DQxe7Yenq92/vgWDpObbXOXut//PA720SvO4v72Z93n0utsqyLACAvEwwAQAIAABAAAAAAgAAEAAAgAAAAAQAACAAAAABAAAIAABAAAAAAgAAEAAAgAAAAAQAACAAAAABAAAIAAAQAACAAAAABAAAIAAAAAEAAAgAAEAAAAACAAAQAACAAAAABAAAIAAAAAEAAAgAAEAAAAACAAAQAAAgAAAAAQAACAAAQAAAAAIAABAAAIAAAAAEAAAgAAAAAQAACAAAQAAAAAIAABAAAIAAAAAEAAAgAABAAAAAAgAAEAAAgAAAAAQAACAAAAABAAAIAABAAAAAAgAAEAAAgAAAAAQAACAAAAABAAAIAABAAACAAAAABAAAIAAAAAEAAAgAAEAAAAACAAAQAACAAAAABAAAIAAAAAEAAAgAAEAAAAACAAAQAACAAAAAAWACABAAAIAAAAAEAAAgAAAAAQAACAAAQAAAAAIAABAAAIAAAAAEAAAgAAAAAQAACAAAQAAAAAIAABAAACAAAAABAAAIAABAAAAAAgAAEAAAgAAAAAQAACAAAAABAAAIAABAAAAAAgAAEAAAgAAAAAQAACAAAEAAAAACAAAQAACAAAAABAAAIAAAAAEAAAgAAEAAAAACAAAQAACAAAAABAAAIAAAAAEAAAgAAEAAAIAAAAAEAAAgAAAAAQAACAAAQAAAAAIAABAAAIAAAAAEAAAgAAAAAQAACAAAQAAAAAIAABAAAIAAAAABAAAIAABAAAAAAgAAEAAAgAAAAAQAACAAAAABAAAIAABAAAAAAgAAEAAAgAAAAAQAACAAAAABAAACwAQAIAAAAAEAAAgAAEAAAAACAAAQAACAAAAABAAAIAAAAAEAAAgAAEAAAAACAAAQAACAAAAABAAAIAAAQAAAAAIAABAAAIAAAAAEAAAgAAAAAQAACAAAQAAAAAIAABAAAIAAAAAEAAAgAAAAAQAACAAAQAAAgAAAAAQAACAAAAABAAAIAABAAAAAAgAAEAAAgAAAAAQAACAAAIAKTDIBAD23a/Px/52hgWnxn8N98efdVPoEAADGyO0mEAAA5OeuuKWeRQIAgLxcFPdm3Lq408whAADI75OAm8wgAADIyzlxz8WtjZtuDgEAQD5mxj0Zt8QUY8OPAQLQT+6LOxi3Le5Xc/gEAIDmaxWdbwx8Ne4ezygBAEB+VsTdYgYBAEBeLoh7Oe6RuKnmEAAA5OOMuAcLPyJYCd8ECEA/O737KUD65xtxP5rEJwAA5GF23Atxy0whAADIz6q4W80gAADIS/oRwaG4R4vOlwQQAABkYmLc6rgbTSEAAMjL2XHr4x6Im2YOAQBAPs6Pe7rwy4IEAADZKePujrsj7hRzjE6WvwdgcHBwNP/6nLiru/+cUYzPN560uv9DPxC3P25P3MftdvuLeC0T4p+H7WxnO9u5CTufwGu8JO717icCG+L+9Ggf4XhlWQqAo02OWxO3suj8/Gk/OhS3L25j93/8ZbyhSzvb2c527oudd20+/r8zNNDL/+6v49YWnb9FcPQ25fcs9CWAoy2L+7LofG1pdh//OdN3ws6N2xK3N26hne1sZzs3fOdjmRX3YtzDhW8MFACjdGbce903xrk1+nOnj8Aui9se/w/llbiWne1sZzs3bOeRmt4NgEUeaQJgpNLX6D6seQ2nb4BZHrcj3swn2dnOdrZzQ3YerfSlmPSlgIGi85cJIQD+05S4nUXnm3XqLn28d33c23a2s53t3ICdT9SFcS/FrfCIEwDHsqUhb+Ij38zzo+Y32NnOdrZzzXf+v9I3ZPo9AQLgX90Qt6SBryt9BLY03sxz7WxnO9u5pjv36pOA9OMb6e8OOMsjXwAc6akGv7b0qzIfs7Od7Wznmu7cK6fG3Vv4uwMEwBHSXyk5p8GvL32kNy9q/ho729nOdq7Zzr2Wfizwibj746Z69AuAHP5O6fQjSovtbGc727lmO1dhVtyzcbd59OcdACfHLcjgdaav6V1nZzvb2c412rlqq7sRMFEA5Cl9hDclk9c6bXBwcKad7WxnO9dk56pdHDdUdH5XwGQBkJ8rMnqt6RtgLrWzne1s55rsPFZWxd0sAPKT00c/rXF8vXa2s53t3K/Oi3s+bl3R+RXCAiATV2X0WtNHXFfa2c52tnNNdh5L6cce008HLC4y5DcBApCzCd1PAgQAAGQkfbljpwAAgLxsLXwJICufZPRaf4/71M52trOda7LzWD/8l+daPrkGwKGMXms5jq/Xzna2s509/AVAX9mX0Wv9I+4zO9vZznauyc4e/gKg8jfyL5m81uF2u/2tne1sZzvXZGcPfwFQqYNx72fwOtPX8T6ws53tbOca7ezhLwAqty2D1/hT3Dt2trOd7VyznT38BUDlb+Qmf40rfQPP7na7vdvOdraznWu2s4e/AKhU+i7XdQ1+fd/FPW5nO9vZzjXc2cNfAFRuR9z2Br6u3+KGouL32tnOdrZzTXf28BcAldf8srjPG/Sa0kd4O+NN/JCd7WxnO9d4Zw9/AVC5n+MWNOTNnN7E78YtsbOd7WznBuzs4V+hSSb4xzdx18a9FTe/pq8h/eKOrVHwd9rZzna2c4N29vD3CUDlhuMWxq2I+75Gf+7DRed3di+qyZvYzna2s509/H0C0HfSR2GvFZ0f9VkTtzJuVp/+Wf+K2xO3Md7AQ3a2s53t3PCdPfwFwJiU8YG49XHPxF0eNy9uTtyMuMnj+Gf7IW5/9w38UbyBv7Kzne1s54x29vDvoVZZllYAoLd2bT7+vzM00IsHUG8e/pvyexb6HgAA/D//DAkAADz8BQAAePgLAADw8BcAAODhLwAAwMNfAACAh78AAAAPfwEAAB7+AgAAPPwFAAB4+AsAADz8EQAAePgjAADw8EcAAODhjwAAwMMfAQCAhz9Ha5VlaQUA8AkAACAAAAABAAAIAABAAAAAAgAAEAAAgAAAAAQAACAAAAABAAAIAABAAAAAAgAAEAAAgAAAAAFgAgAQAACAAAAABAAAIAAAAAEAAAgAAEAAAAACAAAQAACAAAAABAAAIAAAAAEAAAgAAEAAAAACAAAQAAAgAAAAAQAACAAAQAAAAAIAABAAAIAAAAAEAAAgAAAAAQAACAAAQAAAAAIAABAAAIAAAAAEAAAgAABAAAAAAgAAEAAAgAAAAAQAACAAAAABAAAIAABAAAAAAgAAEAAAgAAAAAQAACAAAAABAAAIAABAAACAAAAABAAAIAAAAAEAAAgAAEAAAAACAAAQAACAAAAABAAAIAAAAAEAAAgAAEAAAAACAAAQAACAAAAAAQAACAAAQAAAAAIAABAAAIAAAAAEAAAgAAAAAQAACAAAQAAAAAIAABAAAIAAAAAEAAAgAAAAAQAAAsAEACAAAAABAAAIAABAAAAAAgAAEAAAgAAAAAQAACAAAAABAAAIAABAAAAAAgAAEAAAgAAAAAQAACAAAEAAAAACAAAQAACAAAAABAAAIAAAAAEAAAgAAEAAAAACAAAQAACAAAAABAAAIAAAAAEAAAgAAEAAAIAAAAAEAAAgAAAAAQAACAAAQAAAAAIAABAAAIAAAAAEAAAgAAAAAQAACAAAQAAAAAIAABAAAIAAAAABAAAIAABAAAAAAgAAEAAAgAAAAAQAACAAAAABAAAIAABAAAAAAgAAEAAAgAAAAAQAACAAAAABAAACAAAQAACAAAAABAAAIAAAAAEAAAgAAEAAAAACAAAQAACAAAAABAAAIAAAAAEAAAgAAEAAAAACAAAEgAkAQAAAAAIAABAAAIAAAAAEAAAgAAAAAQAACAAAQAAAAAIAABAAAIAAAAAEAAAgAAAAAQAACAAAQAAAgAAAAAQAACAAAAABAAAIAABAAAAAAgAAEAAAgAAAAAQAACAAAAABAAAIAABAAAAAI/C3AAMAvQJVZb6TxBEAAAAASUVORK5CYII=;" parent="GbpzfajvycvOcoFSvj6P-23" vertex="1">
          <mxGeometry x="127.77777777777779" y="11.11111111111111" width="127.77777777777779" height="127.77777777777779" as="geometry" />
        </mxCell>
        <mxCell id="GbpzfajvycvOcoFSvj6P-27" value="" style="shape=image;imageAspect=0;aspect=fixed;verticalLabelPosition=bottom;verticalAlign=top;image=data:image/png,iVBORw0KGgoAAAANSUhEUgAAAgAAAAIACAYAAAD0eNT6AAAABGdBTUEAAK/INwWK6QAAABl0RVh0U29mdHdhcmUAQWRvYmUgSW1hZ2VSZWFkeXHJZTwAAA3WSURBVHja7N1vyJ1lHcDx67SnlWRNpmFlTRfS+kMhFIFCKEEvQksW0nA5T75I5BFTCsPh6k0U/aFYbKwMBjstDd8kSpHMV4NBIAmD3vjAYDAYDKSHFovBYJ1+V/c1SmWy5eM5931+nw9cDOrNea7j9Tvf5zz3uc9oOp0WACCXt9kCABAAAIAAAAAEAAAgAAAAAQAACAAAQAAAAAIAABAAAIAAAAAEAAAgAAAAAQAACAAAQAAAAAIAABAAACAAAAABAAAIAABAAAAAAgAAEAAAgAAAAAQAACAAAAABAAAIAABAAAAAAgAAEAAAgAAAAAQAACAAAEAAAAACAAAQAACAAAAABAAAIAAAAAEAAAgAAEAAAAACAAAQAACAAAAABAAAIAAAAAEAAAgAAEAAAIAAAAAEAAAgAAAAAQAACAAAQAAAAAIAABAAAIAAAAAEAAAgAAAAAQAACAAAQAAAAAIAABAAAIAAAAABAAAIAABAAAAAAgAAEAAAgAAAAAQAACAAAAABAAAIAABAAAAAAgAAEAAAgAAAAAQAACAAAAABAAACwBYAgAAAAAQAACAAAAABAAAIAABAAAAAAgAAEAAAgAAAAAQAACAAAAABAAAIAABAAAAAAgAAEAAAgAAAAAEAAAgAAEAAAAACAAAQAACAAAAABAAAIAAAAAEAAAgAAEAAAAACAAAQAACAAAAABAAAIAAAAAEAAAIAABAAAIAAAAAEAAAgAAAAAQAACAAAQAAAAAIAABAAAIAAAAAEAAAgAAAAAQAACAAAQAAAAAIAAAQAACAAAAABAAAIAABAAAAAAgAAEAAAgAAAAAQAACAAAAABAAAIAABAAAAAAgAAEAAAgAAAAAQAAAgAAEAAAAACAABYOEu2gHn51/JoOtf63Tcd+bn8XIv6c4F3AAAAAQAACAAAEAAAgAAAAAQAACAAAAABAAAIAABAAAAAAgAAEAAAgAAAAAQAACAAAAABAAAIAABAAAAAAgAAEAAAIAAAAAEAAAgAAEAAAAACAAAQAACAAAAABAAAIAAAAAEAAAgAAEAAAAACAAAQAACAAAAABAAAIAAAQAAAAAIAABAAAIAAAAAEAAAgAAAAAQAACAAAQAAAAAIAABAAAIAAAAAEAAAgAAAAAQAACAAAQAAAgAAAAAQAACAAAAABAAAIAABggJZswfBMJpOr45+/9eGxjMdjTwiYBWaBdwCYka/ZAsAsQADksxzrbs8fmAVmAQIgly2xnoq1M9a7bAeYBWYBAiBf/X/JNoBZYBYgAHL5QKyfx3os1jW2A8wCswABkMf7Y/0w1l22AswCs4BL5WOAi+ORWOdiPR3rn7YDzAKzAO8ALL5R6S4G2h/rm55XMAvMAgRAPt+I9VXbAGaBWYAAyGVzrCdi7Yq10XaAWWAWIADyeE+s7xQfCwKzwCzgIlwEuLje3cq//vvbWH+3JWAWmAV4ByCHG2PtifV1WwFmgVmAAMjngVjbbAOYBWYBAiCX+rGgJ2N9t3RvAwJmgVkgAEhiXawHY91hK8AsMAsQALlcG+vHsR6NdbXtALPALBAA5PGhWD8pbhACZoFZIABIZxrroVj3xHqH7QCzwCwQAORQ7xf+sVgHY30r1tttCZgFZoEAIJf7Y33FNoBZYBYIAHK5IdbeWI8XFwOBWWAWCABSuaYd+i/bCjALzIIcfBcAF1wR67FY62P9LtY/bAmYBWaBdwDI4SOxflW67xEHzAKzQACQTL0YyGeDAbNAAJCw/ielu1/4VbYDzAKzQACQxztjPVzcLxzMArNAAJBO/SjQ90t3g5CNtgPMArNAAJDHDbF+Fmu7rQCzwCwQAOTzYDv462wFmAVmgQAgj4/GerJ0nw++wnaAWWAWCAByeSDWnbYBzAKzQACQywdj7Y61s3S3DQXMArNAAJDEtaW7InirrQCzwCwQAOT7b2e3bQCzwCwQAOQyinXINoBZYBYIAHI5ULztB5gFAoB0B/4+2wBmgVkgAHDgAbMAAYADD5gFCAAceMAsQADgwANmAQIABx4wCxAAOPCAWYAAwIEHzAIEAA48YBYgAHDgAbMAAYADD5gFCAAceMAsQADgwANmAQIABx4wCwQADjxgFiAAcOABswABgAMPmAUIABx4wCxAAODAA2YBAgAHHjALEAA48IBZgADAgQfMAgQADjxgFiAAcOABswABgAMPmAUIABx4wCxAAODAA2YBAsCBd+ABswAB4MADZgEIAAceMAtAADjwgFmAAMCBB8wCBAAOPGAWsNiWbMHwjMdjBx4wC/AOAAAgAAAAAQAACAAAQAAAgAAAAAQAACAAAAABAAAIAABAAAAAAgAA6BFfBjQHk8lkOu/HMB6PR54JwEzyDgAAIAAAAAEAAAgAAEAAAAACAAAQAACAAAAABAAAIAAAAAEAAAgAAEAAAAACAAAQAACAAAAABAAACAAAQAAAAAIAABAAAIAAAAAEAAAgAAAAAQAACAAAQAAAAAIAABAAAIAAAAAEAAAgAAAAAQAACAAAEAAAgAAAAAQAACAAAAABAAAIAABAAAAAAgAAEAAAgAAAAAQAACAAAAABAAAIAADg8izZAuZWn/umIz+Xn8vPBd4BAAAEAAAgAAAAAQAACAAAQAAAAAIAABAAAHQmk8l6uyAAyHXoN9gFIFxpCwQAuWy0BUDwy4AAIJlNtgAwCwQA+XzcFgBmgQAgn5ttARA+awsEALncaguA8HlbIADIZdNkMvHWHyQWM2BLcQ2AACClbbYAUttuCwQAs3WmJ49jR/wGsM7TASl/+69nf4eZKACYrfM9eRybY231dEBKW9sMMBMFADO02qPH8j1PB6T0eI8ey2lPhwAQALP3yclk4u+AkEg78zf16CG94lkRAFmc7Nnj2RMDwa2BIceLfz3ru81EBMB8HO/Z46kDYZ+nBVKoZ/29PXtMJzwtAiCLYz18TNviN4P7PTWw0L/91zPex4//rnh2BEAWff2Pvf4pwF3BYDFf/OvZ3mMmIgDm62hPH9f6WM/GoPA9AbBYL/71TD/bzngf/dWzJACyqFe89vWilytjHYqB8QVPEyzMb/6H2tnuozoLT3mmBEAmR3r82Oqg+INrAmDwL/71DP+pxy/+fZ+FC23JFszN4dLve/HXtwqfiAFSvzVweTweu1EHDOeFf0PprvYfwj0+DnvGvAOQzfMDeZx1gLwcA2WHpwwG8eJfz+rLZThf9PO8Z807ANnUewHUz74O4as43xfrNzFYHo5/fzAej5/x9EHvXvjrvf3r7X0/PaCHfaL0774oAoCZeDrWowN6vHWw/D4GTb1op0bAH2O9EEHgizxg9i/49dv86sW6t5fui32uG+gMZE5G0+nULsz+4P7vC+pfBv7j1GsDXmirlvxqBMFLnmVY87lR50W9a+fm9sJf14aB/1ififWfeRFzw5PsHYBU6n/49QYYWwb8M9QBdFdbrw0cgItZufDiz3y4CHD+fm0LALMPAZDPwVhnbQOQyNk2+xAAqdW7Au63DUAi+9vsQwCk99NY52wDkMC5NvMQAJTus7DeDgMyONhmHgKA5kexfJ4eWGTn/fYvAHi9Y8VVscBiqzNuxTYIAF5vV6xV2wAsoNU24xAAXOSA7LQNwALa6RccAcAbq2+R+X5sYJEcKf7EKQC4JPeW7h77AEN3us00BACX4LgDAyyI+4qv/BUAXJbnYu21DcCA1Rn2jG0QAFy+bxfflgUM09E2wxAA/B/qLTPvLN09AgCGos6sO4pbnAsA3pSTsb5YfHEGMAyvtJl10lYIANaupn0yAOiz021WeddSALCGXizdnwPO2Aqgh860GfWirRAArL3DsW6LdcpWAD1yqs2mw7ZCAPDWqZ8K+FzxuVqgH463meQTSwKAGah/X7uleKsNmP8vJLcUf/MXAMzUhbfcDtgKYA4Ott/8/UlSADAHZ0t3m826XBwIzMKZNnPubTMIAcAc1XcBPlVcgAO8tY60WXPAVggA+qNeiHNbrOXifgHA2jrdZosLkAUAPfbLWB9u/563HcCbcP41MwUBQM+ttlr/ROneqnM/buByX/gPtBmy3GYKAoABWSndxTq13uvXcrpgB3gjZ9usuL7NjhVbIgAYtvqlHA+1Q/1IccMO4NVearPh+jYrfJFPAku2IJX6LV2/aGtLrB2xtsfabGsgnXox31Ol+zy/3/QFAInUA7+rrRoAt8e6NdbNsa6zPbBw6m/1fy7dR/meK67mFwC2gDYI9rZVbYx1Y6yb2r91bWr/37r2vwP9crT895M/J0p3e95j7X+v/7qQj1cZTadTuwAAybgIEAAEAAAgAAAAAQAACAAAQAAAAAIAABAAAIAAAAAEAAAgAAAAAQAACAAAQAAAAAIAABAAAIAAAAAEAAAIAABAAAAAAgAAEAAAgAAAAAQAACAAAAABAAAIAABAAAAAAgAAEAAAgAAAAAQAACAAAAABAAAIAAAQAACAAAAABAAAIAAAAAEAAAgAAEAAAAACAAAQAACAAAAABAAAIAAAAAEAAAgAAEAAAAACAAAQAAAgAAAAAQAACAAAQAAAAAIAABAAAIAAAAAEAAAgAAAAAQAACAAAQAAAAAIAABAAAIAAAAAEAAAgAABAAAAAAgAAEAAAgAAAAAQAACAAAAABAAAIAABAAAAAAgAAEAAAgAAAAAQAACAAAAABAAAIAABAAAAAAgAABAAAIAAAAAEAAAgAAEAAAABD8W8BBgBDx9kWx0auLgAAAABJRU5ErkJggg==;" parent="GbpzfajvycvOcoFSvj6P-23" vertex="1">
          <mxGeometry x="16.666666666666668" y="11.11111111111111" width="127.77777777777779" height="127.77777777777779" as="geometry" />
        </mxCell>
        <mxCell id="GbpzfajvycvOcoFSvj6P-28" style="edgeStyle=orthogonalEdgeStyle;rounded=0;orthogonalLoop=1;jettySize=auto;html=1;startArrow=none;startFill=0;endArrow=block;endFill=1;strokeColor=#888888;strokeWidth=5;" parent="1" edge="1">
          <mxGeometry relative="1" as="geometry">
            <Array as="points">
              <mxPoint x="340" y="405" />
            </Array>
            <mxPoint x="200" y="405" as="sourcePoint" />
            <mxPoint x="340" y="405" as="targetPoint" />
          </mxGeometry>
        </mxCell>
        <mxCell id="GbpzfajvycvOcoFSvj6P-29" style="edgeStyle=orthogonalEdgeStyle;rounded=0;orthogonalLoop=1;jettySize=auto;html=1;startArrow=none;startFill=0;endArrow=block;endFill=1;strokeColor=#888888;strokeWidth=5;" parent="1" edge="1">
          <mxGeometry relative="1" as="geometry">
            <Array as="points">
              <mxPoint x="310" y="443" />
              <mxPoint x="310" y="605" />
            </Array>
            <mxPoint x="200" y="443" as="sourcePoint" />
            <mxPoint x="340" y="605" as="targetPoint" />
          </mxGeometry>
        </mxCell>
        <mxCell id="GbpzfajvycvOcoFSvj6P-30" value="Distributor" style="text;html=1;align=center;verticalAlign=middle;resizable=0;points=[];autosize=1;strokeColor=none;fontSize=18;fontFamily=Tahoma;fontColor=#888888;fontStyle=1;container=0;" parent="1" vertex="1">
          <mxGeometry x="65" y="100" width="110" height="30" as="geometry" />
        </mxCell>
        <mxCell id="GbpzfajvycvOcoFSvj6P-31" value="Worker A" style="text;html=1;align=center;verticalAlign=middle;resizable=0;points=[];autosize=1;strokeColor=none;fontSize=18;fontFamily=Tahoma;fontColor=#888888;fontStyle=1;container=0;" parent="1" vertex="1">
          <mxGeometry x="490" y="100" width="100" height="30" as="geometry" />
        </mxCell>
        <mxCell id="GbpzfajvycvOcoFSvj6P-32" value="Worker B" style="text;html=1;align=center;verticalAlign=middle;resizable=0;points=[];autosize=1;strokeColor=none;fontSize=18;fontFamily=Tahoma;fontColor=#888888;fontStyle=1;container=0;" parent="1" vertex="1">
          <mxGeometry x="490" y="330" width="100" height="30" as="geometry" />
        </mxCell>
        <mxCell id="GbpzfajvycvOcoFSvj6P-33" value="Worker C" style="text;html=1;align=center;verticalAlign=middle;resizable=0;points=[];autosize=1;strokeColor=none;fontSize=18;fontFamily=Tahoma;fontColor=#888888;fontStyle=1;container=0;" parent="1" vertex="1">
          <mxGeometry x="490" y="560" width="100" height="30" as="geometry" />
        </mxCell>
        <mxCell id="GbpzfajvycvOcoFSvj6P-34" value="Worker Availability&lt;br&gt;Manager" style="text;html=1;align=center;verticalAlign=middle;resizable=0;points=[];autosize=1;strokeColor=none;fontSize=18;fontFamily=Tahoma;fontColor=#888888;fontStyle=1;container=0;" parent="1" vertex="1">
          <mxGeometry x="25" y="940" width="190" height="50" as="geometry" />
        </mxCell>
        <mxCell id="beAJDS_k1I3WG32ly8YH-3" value="Message A" style="text;html=1;align=center;verticalAlign=middle;resizable=0;points=[];autosize=1;strokeColor=none;fontSize=18;fontFamily=Tahoma;fontStyle=1;container=0;fontColor=#888888;" parent="1" vertex="1">
          <mxGeometry x="200" y="340" width="110" height="30" as="geometry" />
        </mxCell>
        <mxCell id="Yowsr8ln7lWeVKN-Ewds-4" value="Message B" style="text;html=1;align=center;verticalAlign=middle;resizable=0;points=[];autosize=1;strokeColor=none;fontSize=18;fontFamily=Tahoma;fontStyle=1;container=0;fontColor=#888888;" vertex="1" parent="1">
          <mxGeometry x="200" y="377" width="110" height="30" as="geometry" />
        </mxCell>
        <mxCell id="Yowsr8ln7lWeVKN-Ewds-5" value="Message C" style="text;html=1;align=center;verticalAlign=middle;resizable=0;points=[];autosize=1;strokeColor=none;fontSize=18;fontFamily=Tahoma;fontStyle=1;container=0;fontColor=#888888;" vertex="1" parent="1">
          <mxGeometry x="200" y="415" width="110" height="30" as="geometry" />
        </mxCell>
        <mxCell id="Yowsr8ln7lWeVKN-Ewds-6" style="edgeStyle=orthogonalEdgeStyle;rounded=0;orthogonalLoop=1;jettySize=auto;html=1;exitX=1;exitY=0.5;exitDx=0;exitDy=0;fontColor=#888888;entryX=1.006;entryY=0.368;entryDx=0;entryDy=0;entryPerimeter=0;strokeColor=#519ad4;strokeWidth=2;endArrow=block;endFill=1;dashed=1;" edge="1" parent="1" source="I9LBWQpZaqhSioIUp3wA-1" target="GbpzfajvycvOcoFSvj6P-4">
          <mxGeometry relative="1" as="geometry">
            <mxPoint x="280" y="270" as="targetPoint" />
            <Array as="points">
              <mxPoint x="760" y="205" />
              <mxPoint x="760" y="70" />
              <mxPoint x="280" y="70" />
              <mxPoint x="280" y="270" />
            </Array>
          </mxGeometry>
        </mxCell>
        <mxCell id="Yowsr8ln7lWeVKN-Ewds-7" style="edgeStyle=orthogonalEdgeStyle;rounded=0;orthogonalLoop=1;jettySize=auto;html=1;exitX=1;exitY=0.5;exitDx=0;exitDy=0;dashed=1;fontColor=#888888;endArrow=block;endFill=1;strokeColor=#519ad4;strokeWidth=2;entryX=1;entryY=0.25;entryDx=0;entryDy=0;" edge="1" parent="1" source="GbpzfajvycvOcoFSvj6P-19" target="GbpzfajvycvOcoFSvj6P-4">
          <mxGeometry relative="1" as="geometry">
            <mxPoint x="260" y="230" as="targetPoint" />
            <Array as="points">
              <mxPoint x="780" y="435" />
              <mxPoint x="780" y="60" />
              <mxPoint x="260" y="60" />
              <mxPoint x="260" y="225" />
            </Array>
          </mxGeometry>
        </mxCell>
        <mxCell id="Yowsr8ln7lWeVKN-Ewds-8" style="edgeStyle=orthogonalEdgeStyle;rounded=0;orthogonalLoop=1;jettySize=auto;html=1;exitX=1;exitY=0.5;exitDx=0;exitDy=0;dashed=1;fontColor=#888888;endArrow=block;endFill=1;strokeColor=#519ad4;strokeWidth=2;entryX=1;entryY=0.103;entryDx=0;entryDy=0;entryPerimeter=0;" edge="1" parent="1" source="GbpzfajvycvOcoFSvj6P-24" target="GbpzfajvycvOcoFSvj6P-4">
          <mxGeometry relative="1" as="geometry">
            <mxPoint x="240" y="170" as="targetPoint" />
            <Array as="points">
              <mxPoint x="800" y="665" />
              <mxPoint x="800" y="50" />
              <mxPoint x="240" y="50" />
              <mxPoint x="240" y="169" />
            </Array>
          </mxGeometry>
        </mxCell>
        <mxCell id="Yowsr8ln7lWeVKN-Ewds-13" value="&lt;b&gt;&lt;font color=&quot;#519ad4&quot;&gt;control messages indicating worker availability&lt;/font&gt;&lt;/b&gt;" style="text;html=1;strokeColor=none;fillColor=none;align=center;verticalAlign=middle;whiteSpace=wrap;rounded=0;fontColor=#888888;" vertex="1" parent="1">
          <mxGeometry x="400" y="20" width="280" height="20" as="geometry" />
        </mxCell>
      </root>
    </mxGraphModel>
  </diagram>
</mxfile>
